<?xml version="1.0" encoding="UTF-8" standalone="no"?>
<!-- Created with Inkscape (http://www.inkscape.org/) -->

<svg
   width="16"
   height="16"
   viewBox="0 0 16 16"
   version="1.1"
   id="svg1"
   xml:space="preserve"
   inkscape:export-filename="bitmap3.svg"
   inkscape:export-xdpi="96"
   inkscape:export-ydpi="96"
   xmlns:inkscape="http://www.inkscape.org/namespaces/inkscape"
   xmlns:sodipodi="http://sodipodi.sourceforge.net/DTD/sodipodi-0.dtd"
   xmlns="http://www.w3.org/2000/svg"
   xmlns:svg="http://www.w3.org/2000/svg"><sodipodi:namedview
     id="namedview1"
     pagecolor="#505050"
     bordercolor="#eeeeee"
     borderopacity="1"
     inkscape:showpageshadow="0"
     inkscape:pageopacity="0"
     inkscape:pagecheckerboard="0"
     inkscape:deskcolor="#505050"
     inkscape:document-units="px"
     showguides="false"><inkscape:page
       x="0"
       y="0"
       width="16"
       height="16"
       id="page2"
       margin="0"
       bleed="0" /></sodipodi:namedview><defs
     id="defs1" /><g
     inkscape:label="Capa 1"
     inkscape:groupmode="layer"
     id="layer1"><path
       style="fill:#181818;stroke-width:0.021173"
       d="m 5.1440109,12.80995 c -0.180123,-0.05459 -0.52938,-0.329362 -0.69352,-0.545624 -0.07326,-0.09653 -0.257892,-0.301231 -0.410279,-0.45489 -0.152387,-0.15366 -0.277067,-0.295539 -0.277067,-0.315287 0,-0.07805 0.03966,-0.1299 0.137576,-0.179877 0.148046,-0.07556 0.211424,-0.154808 0.190495,-0.238195 -0.02422,-0.0965 -0.21718,-0.241308 -0.374341,-0.280924 -0.14736,-0.03715 -0.221533,-0.115848 -0.151345,-0.160592 0.117287,-0.07477 0.405702,0.0069 0.630296,0.178559 0.08066,0.06163 0.167884,0.10412 0.213759,0.10412 0.118491,0 0.342336,0.08381 0.474649,0.177714 0.112223,0.07964 0.129271,0.08332 0.30356,0.06546 l 0.184658,-0.01891 0.04821,0.106659 c 0.104601,0.231423 0.16226,0.251255 0.345193,0.118738 0.06585,-0.0477 0.138257,-0.07962 0.160908,-0.07092 0.02265,0.0087 0.075,0.08901 0.116332,0.178479 0.0954,0.206515 0.119268,0.498679 0.05227,0.639864 -0.02505,0.05278 -0.04554,0.14085 -0.04554,0.195718 0,0.176891 -0.08773,0.325896 -0.193349,0.328386 -0.02094,5.74e-4 -0.08247,-0.02017 -0.136727,-0.04591 -0.109587,-0.052 -0.148562,-0.02732 -0.149414,0.09462 -9.57e-4,0.125079 -0.215175,0.186822 -0.426333,0.12283 z m 0.781238,-0.777377 c 0.02903,-0.0443 0.03788,-0.08874 0.02392,-0.119981 -0.01952,-0.04367 -0.02352,-0.04199 -0.03331,0.01395 -0.0168,0.09609 -0.101616,0.12982 -0.175667,0.06986 -0.06954,-0.05631 -0.05494,-0.135557 0.02995,-0.162496 0.06302,-0.02 0.07237,-0.06975 0.01311,-0.06975 -0.04553,0 -0.128638,0.105203 -0.128638,0.162833 0,0.05118 0.128749,0.175936 0.181564,0.175936 0.02364,0 0.06372,-0.03166 0.08908,-0.07036 z m -0.918858,-0.01229 c -0.03835,-0.07165 -0.0087,-0.1432 0.05927,-0.1432 0.06934,0 0.09938,0.07666 0.05677,0.144894 -0.02778,0.04448 -0.0246,0.05272 0.02032,0.05272 0.02928,0 0.06901,-0.01899 0.08827,-0.04221 0.02821,-0.03399 0.02614,-0.05577 -0.01066,-0.11193 -0.0791,-0.120723 -0.144315,-0.137759 -0.233546,-0.06101 -0.07039,0.06055 -0.0749,0.07482 -0.04463,0.141248 0.01853,0.04064 0.04709,0.0739 0.0635,0.0739 0.02071,0 0.02092,-0.01665 7.66e-4,-0.05442 z m 2.461413,0.70368 c -0.0952,-0.03982 -0.107423,-0.106009 -0.03401,-0.184156 0.04931,-0.05249 0.05507,-0.07136 0.02474,-0.08111 -0.02173,-0.007 -0.08562,-0.02686 -0.14197,-0.04415 -0.13673,-0.04196 -0.205525,-0.120587 -0.183227,-0.209426 0.02022,-0.08057 0.116296,-0.110255 0.350009,-0.108156 0.19015,0.0017 0.288555,0.06128 0.288555,0.174673 0,0.06758 -0.01904,0.09175 -0.104079,0.132105 l -0.10408,0.04939 0.08781,0.03583 c 0.101578,0.04145 0.144867,0.137933 0.08758,0.195215 -0.05206,0.05207 -0.192692,0.07268 -0.271341,0.03979 z m -0.444605,-0.180401 c -0.04565,-0.03338 -0.04807,-0.04612 -0.01606,-0.08469 0.02072,-0.02497 0.06828,-0.0454 0.105686,-0.0454 0.08862,0 0.120211,0.08074 0.05131,0.131119 -0.0651,0.04761 -0.07453,0.04754 -0.140942,-9.57e-4 z m 3.6394301,-5.74e-4 c -0.01,-0.02603 -0.01256,-0.05292 -0.0057,-0.05977 0.02555,-0.02555 0.38397,-0.01939 0.431883,0.0074 0.07622,0.04266 0.0081,0.06989 -0.214804,0.08584 -0.162823,0.01166 -0.196066,0.0064 -0.211368,-0.03349 z m -2.1920081,-0.03611 c -0.05924,-0.01548 -0.06481,-0.0611 -0.01001,-0.08212 0.05629,-0.0216 0.276126,0.04246 0.256223,0.07467 -0.01678,0.02714 -0.154859,0.03132 -0.246205,0.0074 z m -0.658125,-0.03985 c -0.03453,-0.05587 0.08714,-0.147795 0.168575,-0.127358 0.08234,0.02067 0.101054,0.113457 0.02849,0.141301 -0.07117,0.02731 -0.17616,0.01988 -0.197066,-0.01393 z m 1.805506,0.0015 c -0.02939,-0.01047 -0.09836,-0.01315 -0.153257,-0.0059 -0.05877,0.0077 -0.145838,-0.0065 -0.21173,-0.03456 -0.335772,-0.143018 -0.578969,-0.212689 -0.683867,-0.195913 -0.187615,0.03 -0.436718,-0.06779 -0.3032,-0.119022 0.02329,-0.0089 0.04234,-0.02705 0.04234,-0.04025 0,-0.03796 -0.538391,-0.192586 -0.663422,-0.190539 -0.06211,9.57e-4 -0.313007,-0.008 -0.557557,-0.02008 -0.328432,-0.01619 -0.444634,-0.03127 -0.444634,-0.05768 0,-0.04084 0.229453,-0.09689 0.396621,-0.09689 0.07799,0 0.111532,-0.01217 0.111532,-0.04045 0,-0.05336 -0.09209,-0.08278 -0.282308,-0.0902 -0.47525,-0.01854 -0.75961,-0.0976 -0.423831,-0.11785 0.07784,-0.0047 0.141525,-0.01864 0.141525,-0.031 0,-0.01236 -0.05089,-0.04542 -0.113086,-0.07346 -0.0622,-0.02805 -0.127272,-0.06809 -0.14461,-0.08898 -0.01881,-0.02266 -0.08991,-0.03816 -0.17628,-0.03842 -0.07961,-1.92e-4 -0.162485,-0.01166 -0.184157,-0.02538 -0.06093,-0.03858 -0.01493,-0.113214 0.09918,-0.160892 0.05661,-0.02365 0.09172,-0.05296 0.07803,-0.06512 -0.01369,-0.01217 -0.190038,-0.03775 -0.391888,-0.05685 -0.563973,-0.05337 -0.605819,-0.07319 -0.31707,-0.150129 0.125509,-0.03344 0.234276,-0.04237 0.374057,-0.0307 0.126467,0.01056 0.292446,4.2e-5 0.463199,-0.02933 0.14636,-0.02518 0.33869,-0.04578 0.427399,-0.04578 0.173501,0 0.485381,-0.07845 0.95799,-0.240973 0.322813,-0.111008 0.779452,-0.23931 0.846924,-0.237959 0.05417,0.0011 0.148243,0.19648 0.11421,0.23723 -0.01376,0.01648 -0.09586,0.06808 -0.182438,0.114663 -0.08657,0.04658 -0.153219,0.09739 -0.148105,0.11291 0.0051,0.01552 0.06947,0.03683 0.143007,0.04734 0.11241,0.01608 0.163041,0.006 0.317878,-0.06351 0.214193,-0.0961 0.263601,-0.101924 0.263601,-0.03106 0,0.04101 0.017,0.04908 0.08299,0.03939 0.04565,-0.0067 0.104238,-0.03566 0.130208,-0.06436 0.05265,-0.05818 0.04531,-0.06173 -0.19465,-0.09401 -0.05967,-0.008 -0.151361,-0.04729 -0.203761,-0.08726 -0.09555,-0.07288 -0.124805,-0.142125 -0.173195,-0.409927 l -0.02295,-0.127012 -0.05905,0.100089 c -0.0457,0.07745 -0.08717,0.107182 -0.183379,0.13146 -0.156253,0.03943 -0.734629,0.248115 -0.843053,0.304184 -0.0447,0.02311 -0.155055,0.04541 -0.245237,0.04954 l -0.16397,0.0075 -0.03218,-0.09755 c -0.0177,-0.05366 -0.04723,-0.102571 -0.06562,-0.108703 -0.01839,-0.0061 -0.07737,0.03409 -0.131073,0.08939 -0.158653,0.163359 -0.74237,0.317897 -1.085154,0.287291 -0.116453,-0.01039 -0.395936,-0.02392 -0.621077,-0.03005 -0.45659,-0.01244 -1.28592,-0.06581 -1.362133,-0.08766 -0.141602,-0.0406 0.01508,-0.05484 0.645992,-0.05873 0.449629,-0.0028 0.706045,-0.01493 0.725529,-0.03442 0.09734,-0.09733 -0.241907,-0.155108 -0.762161,-0.129794 -0.244575,0.0119 -0.480313,0.0077 -0.606962,-0.01076 -0.113888,-0.01661 -0.340093,-0.0433 -0.502677,-0.0593 -0.162584,-0.016 -0.308042,-0.04153 -0.323243,-0.05673 -0.123999,-0.124 0.484145,-0.16074 0.956037,-0.05776 0.220329,0.04808 0.210078,-0.0082 -0.02153,-0.118193 C 3.7257019,9.871067 3.5304699,9.713643 3.4640129,9.585131 3.4041929,9.469459 3.3121699,9.16463 3.3121769,9.082193 c 1.4e-5,-0.138786 0.108662,-0.593763 0.173348,-0.725917 0.0994,-0.20306 0.672973,-0.742081 0.789656,-0.742081 0.02261,0 0.09115,0.05125 0.152314,0.113884 0.06116,0.06264 0.205142,0.158471 0.319951,0.212968 0.20282,0.09627 0.213249,0.09815 0.367389,0.06629 0.174606,-0.03609 0.432664,-0.156568 0.615628,-0.287408 0.111673,-0.07986 0.150205,-0.135089 0.484868,-0.695019 0.168605,-0.282094 0.205902,-0.429236 0.204459,-0.80663 -9.57e-4,-0.242632 -0.01466,-0.37445 -0.04895,-0.469798 -0.04682,-0.130199 -0.04646,-0.134934 0.02034,-0.268824 0.04635,-0.09291 0.125047,-0.180164 0.247259,-0.274138 l 0.179266,-0.137846 0.187733,0.08616 c 0.103254,0.04739 0.238549,0.09827 0.300656,0.113063 0.06211,0.01479 0.214555,0.05334 0.338769,0.08566 0.124216,0.03232 0.265883,0.05896 0.314816,0.0592 0.07643,3.83e-4 0.605371,-0.190834 0.791337,-0.286057 0.03389,-0.01736 0.07886,-0.02494 0.09993,-0.01684 0.08988,0.03449 0.507679,0.372343 0.641441,0.518703 0.163233,0.1786 0.222127,0.282635 0.3380949,0.597231 0.04416,0.119804 0.12816,0.325007 0.1866602,0.456006 l 0.106364,0.238178 -0.01791,0.454437 -0.01792,0.454439 0.13129,0.150084 c 0.08765,0.100198 0.18928,0.177785 0.305753,0.233421 0.1333,0.06367 0.189337,0.109802 0.237503,0.195501 l 0.06304,0.112164 -0.08989,0.08397 c -0.04944,0.04618 -0.101092,0.08397 -0.114782,0.08397 -0.05467,0 -0.171017,0.240705 -0.295619,0.611586 -0.143076,0.425865 -0.188319,0.517644 -0.255173,0.517644 -0.07328,0 -0.3528531,0.201546 -0.3805231,0.274321 -0.04469,0.117555 -0.0334,0.152098 0.04342,0.132817 0.05719,-0.01436 0.07941,-7.66e-4 0.1269329,0.0771 0.07238,0.118724 0.07268,0.171101 0.0013,0.235648 -0.0624,0.05647 -0.07289,0.127552 -0.02577,0.174669 0.05277,0.05277 -0.02301,0.07249 -0.1082669,0.02816 -0.225145,-0.117046 -0.296289,-0.13626 -0.378471,-0.102219 -0.08046,0.03333 -0.105081,0.09249 -0.05211,0.125234 0.09485,0.05862 -0.0626,0.09949 -0.16734,0.04344 -0.03479,-0.01862 -0.06621,-0.01581 -0.100083,0.009 -0.04686,0.03427 -0.04688,0.0386 -3.83e-4,0.08508 0.0349,0.0349 0.07263,0.04377 0.131334,0.03088 0.07672,-0.01684 0.08115,-0.01326 0.06469,0.05232 -0.02366,0.09426 0.065,0.123532 0.18546,0.06124 l 0.08825,-0.04563 -0.07635,-0.07076 c -0.08245,-0.07641 -0.07116,-0.108229 0.04892,-0.137872 0.06549,-0.01617 0.0737,-0.01118 0.06106,0.03716 -0.008,0.03071 -0.0024,0.06339 0.01252,0.07261 0.03903,0.02412 0.3165399,-0.04651 0.3166619,-0.08059 6.6e-5,-0.01573 0.03773,-0.123886 0.08372,-0.240337 0.04599,-0.116453 0.08405,-0.232037 0.08459,-0.256853 5.74e-4,-0.02687 -0.0447,-0.06306 -0.111952,-0.08948 -0.1800409,-0.07072 -0.1335849,-0.218283 0.06872,-0.218283 0.08335,0 0.08979,0.01872 0.02937,0.08548 -0.03862,0.04267 -0.03849,0.05137 0.0011,0.08431 0.02826,0.02345 0.05405,0.02694 0.07134,0.0096 0.01489,-0.01489 0.101377,-0.242393 0.192174,-0.505545 0.0908,-0.263151 0.208283,-0.580089 0.26108,-0.704303 l 0.096,-0.225847 0.338769,-0.169438 c 0.522099,-0.261134 1.91519,-0.767454 2.68192,-0.974747 0.186323,-0.05037 0.436814,-0.12796 0.556647,-0.172412 0.263775,-0.09785 0.29716,-0.09935 0.33554,-0.01512 0.02374,0.0521 0.01472,0.109097 -0.04358,0.275251 -0.04043,0.115249 -0.141688,0.419157 -0.225006,0.675351 -0.08332,0.256195 -0.1979,0.591664 -0.254623,0.74549 -0.09897,0.268382 -0.235476,0.823076 -0.20906,0.84949 0.03197,0.03197 0.757034,0.06379 1.139074,0.04999 0.418463,-0.01512 0.917121,0.02729 0.917121,0.07799 0,0.03421 -0.214329,0.05183 -1.003804,0.08255 -0.647678,0.0252 -0.718555,0.03297 -0.839775,0.09202 -0.07282,0.03547 -0.132436,0.07213 -0.132484,0.08145 -1.28e-4,0.02551 0.382653,0.105084 0.604733,0.125708 0.222414,0.02066 0.276647,0.03601 0.254388,0.07203 -0.0086,0.0139 -0.139629,0.02527 -0.291194,0.02527 -0.172918,0 -0.374743,0.02162 -0.541777,0.05803 -0.14641,0.03192 -0.358649,0.07623 -0.471639,0.09848 -0.270356,0.05322 -0.447367,0.14582 -0.389461,0.203728 0.0097,0.0097 0.108274,0.02739 0.218955,0.03922 0.11068,0.01183 0.213494,0.03376 0.228477,0.04874 0.03345,0.03345 -0.104796,0.05197 -0.53874,0.07218 -0.310764,0.01447 -0.326916,0.01855 -0.610546,0.153665 -0.423362,0.201699 -0.422164,0.233265 0.0093,0.245396 0.271218,0.0076 0.455847,0.04687 0.369925,0.07863 -0.02329,0.0086 -0.182087,0.02086 -0.352884,0.02723 -0.608186,0.02267 -1.045487,0.113052 -1.148692,0.237403 -0.05419,0.06529 0.02182,0.107062 0.183239,0.100688 0.212356,-0.0084 0.459982,0.02031 0.415033,0.04809 -0.02046,0.01265 -0.152708,0.03201 -0.293887,0.04303 -0.141181,0.01103 -0.290783,0.03751 -0.332449,0.05886 -0.04257,0.02182 -0.193293,0.04352 -0.344095,0.04956 -0.254709,0.01018 -0.284141,0.0182 -0.579491,0.157799 -0.306852,0.145033 -0.5587399,0.208775 -0.6692919,0.169367 z m 0.112041,-0.238977 c 0.02895,-0.0619 0.07344,-0.12518 0.09885,-0.140623 0.09191,-0.05586 0.3788691,-0.150575 0.4146171,-0.136858 0.02013,0.0077 0.05043,-0.01179 0.06733,-0.04337 0.03467,-0.06478 0.186775,-0.116217 0.287692,-0.09729 0.09307,0.01746 0.506934,-0.177145 0.525187,-0.24695 0.0077,-0.02958 0.05391,-0.07834 0.102606,-0.108349 0.09612,-0.05924 0.640058,-0.284832 0.82254,-0.341142 0.06211,-0.01917 0.171315,-0.07158 0.242684,-0.116472 0.09913,-0.06235 0.150092,-0.07756 0.215873,-0.0644 0.118964,0.02379 0.530626,-0.187076 0.555031,-0.28431 0.01878,-0.07483 0.216461,-0.184282 0.332828,-0.184282 0.03978,0 0.08511,-0.01589 0.100735,-0.03529 0.05741,-0.07129 0.172813,-0.442488 0.201336,-0.647561 0.03763,-0.270562 0.263616,-1.016086 0.464766,-1.533263 0.0772,-0.19848 0.04959,-0.493098 -0.04635,-0.494561 -0.01885,-3.82e-4 -0.288371,0.08196 -0.598909,0.182765 -0.310538,0.100808 -0.856181,0.273703 -1.212539,0.384211 -0.727533,0.22561 -1.120073,0.372337 -1.328228,0.496478 -0.146226,0.08721 -0.228718,0.200889 -0.314424,0.433297 -0.02576,0.06987 -0.132939,0.349357 -0.238161,0.621077 -0.17103,0.441656 -0.292982,0.815439 -0.4513211,1.383307 -0.1679519,0.602347 -0.2104509,0.718482 -0.2746169,0.750448 -0.03553,0.0177 -0.08232,0.05618 -0.103965,0.0855 -0.05776,0.07824 -0.11861,0.01451 -0.07103,-0.0744 0.0186,-0.03476 0.05718,-0.160973 0.08572,-0.280469 0.02854,-0.119497 0.08236,-0.298859 0.119605,-0.398578 0.07494,-0.200658 0.1132729,-0.364812 0.0852,-0.364812 -0.01003,0 -0.04156,0.0211 -0.07007,0.0469 -0.0285,0.02579 -0.07907,0.06073 -0.112376,0.07764 -0.0333,0.0169 -0.0745,0.0535 -0.09155,0.08133 -0.0253,0.04128 -0.01805,0.06044 0.03944,0.104152 l 0.07044,0.05356 -0.08456,0.0885 c -0.07854,0.0822 -0.08104,0.09109 -0.03515,0.124807 0.08221,0.06041 0.06057,0.108403 -0.04235,0.09393 -0.05046,-0.0071 -0.11117,-0.02147 -0.134905,-0.03194 -0.02374,-0.01047 -0.0682,3.83e-4 -0.09881,0.02393 -0.05534,0.04273 -0.05534,0.04321 7.65e-4,0.08654 0.03105,0.02397 0.08822,0.05043 0.127039,0.05882 0.151721,0.03278 0.159587,0.03956 0.09881,0.08514 -0.07814,0.0586 -0.215259,0.03177 -0.373609,-0.07312 -0.123223,-0.08162 -0.261582,-0.114493 -0.261582,-0.06215 0,0.01321 0.08893,0.0633 0.197614,0.111312 0.224592,0.0992 0.264277,0.164842 0.08204,0.135703 -0.06357,-0.01016 -0.19022,-0.0499 -0.281456,-0.0883 -0.212142,-0.08929 -0.26248,-0.09063 -0.236558,-0.0063 0.02696,0.0877 0.03661,0.09407 0.09077,0.0599 0.03597,-0.02269 0.09831,-0.0099 0.259781,0.05332 0.314557,0.123148 0.35097,0.143345 0.381187,0.211447 0.02695,0.06073 0.211094,0.145975 0.297031,0.137494 0.02327,-0.0023 0.06599,-0.05482 0.09495,-0.116719 z m -0.360371,-0.17871 c -0.0098,-0.01581 -0.004,-0.03724 0.0128,-0.04763 0.0434,-0.02683 0.07141,0.0099 0.03518,0.04615 -0.02027,0.02027 -0.03607,0.02076 -0.04798,0.0015 z M 10.39737,11.636386 c 0,-0.02039 0.107168,-0.05895 0.225845,-0.08126 l 0.09881,-0.01857 -0.09881,0.05614 c -0.09152,0.052 -0.225845,0.07799 -0.225845,0.04369 z m -0.4077722,-0.09556 c -0.0204,-0.03301 0.01087,-0.115471 0.04379,-0.115471 0.01388,0 0.02521,0.03176 0.02521,0.07058 0,0.06977 -0.03825,0.09465 -0.069,0.0449 z m 0.1330342,-0.404835 c 0.0076,-0.05046 0.06676,-0.225141 0.131563,-0.388173 0.0648,-0.163034 0.136166,-0.389342 0.158597,-0.502907 0.02243,-0.113567 0.0715,-0.25966 0.109041,-0.324653 0.03754,-0.06499 0.110159,-0.251506 0.161372,-0.414471 0.06803,-0.216482 0.117975,-0.322952 0.185394,-0.395231 l 0.09228,-0.09893 -0.05654,0.112922 c -0.03408,0.06807 -0.05033,0.141297 -0.04091,0.184359 0.02179,0.09963 -0.112642,0.55028 -0.212788,0.713287 -0.07049,0.11473 -0.287338,0.647238 -0.442071,1.085563 -0.05014,0.142048 -0.105727,0.160307 -0.08594,0.02823 z m 0.618902,-0.05702 c -0.04449,-0.05361 -0.157648,-0.41416 -0.136587,-0.435221 0.02775,-0.02775 0.03657,-0.01139 0.128859,0.238891 0.07887,0.213894 0.08168,0.285437 0.0077,0.19633 z m 0.332581,-0.247943 c -0.01705,-0.03187 -0.02639,-0.07951 -0.02075,-0.105865 0.0077,-0.03576 0.02244,-0.02499 0.05825,0.04242 0.05532,0.104167 0.05826,0.121383 0.02075,0.121383 -0.01499,0 -0.04119,-0.02607 -0.05825,-0.05794 z m 0.687528,-0.08848 c -0.0715,-0.03457 -0.201571,-0.263461 -0.168506,-0.296524 0.01236,-0.01238 0.0577,0.02064 0.100738,0.07336 0.07229,0.08857 0.08697,0.09447 0.192975,0.07752 0.0631,-0.01009 0.134901,-0.02608 0.159551,-0.03554 0.07824,-0.03002 0.05037,0.06384 -0.04205,0.141603 -0.09292,0.07819 -0.145237,0.08672 -0.242713,0.03959 z m 0.631488,-0.240337 c -0.0928,-0.02406 -0.031,-0.079 0.09232,-0.08207 0.08078,-0.002 0.129931,-0.01851 0.147223,-0.0494 0.0327,-0.05844 0.104342,-0.06013 0.12627,-0.003 0.02975,0.07753 -0.07192,0.15455 -0.199242,0.150944 -0.06358,-0.0017 -0.138541,-0.0092 -0.166573,-0.01648 z m -0.554525,-0.105714 c -0.089,-0.09474 -0.06775,-0.154395 0.153338,-0.430379 0.178004,-0.222205 0.263032,-0.287093 0.325566,-0.248445 0.0426,0.02633 0.225396,0.398717 0.225396,0.459178 0,0.08596 -0.06045,0.119274 -0.216404,0.119274 -0.127093,0 -0.161214,0.01229 -0.235289,0.08469 -0.105103,0.102741 -0.167196,0.106594 -0.252607,0.01567 z m 1.454911,-0.181025 c -0.02562,-0.04144 0.01244,-0.116962 0.05895,-0.116962 0.02633,0 0.03802,0.02222 0.03227,0.06131 -0.0098,0.0664 -0.06409,0.09954 -0.09122,0.05565 z m 0.09647,-0.301874 c 1.91e-4,-0.09057 0.05697,-0.26678 0.08586,-0.26678 0.03563,0 0.03397,0.05514 -0.0052,0.17223 -0.04036,0.120698 -0.08089,0.168206 -0.08068,0.09455 z M 11.622571,9.748446 c -0.01738,-0.0453 0.096,-0.229576 0.124013,-0.201562 0.0089,0.0089 0.0011,0.03125 -0.01719,0.04962 -0.01837,0.01837 -0.03341,0.06188 -0.03341,0.09667 0,0.07696 -0.0505,0.114978 -0.07341,0.05527 z m 0.233386,0.02074 c -0.03866,-0.03866 -0.01692,-0.171769 0.03586,-0.219531 0.06926,-0.06268 0.114701,-0.03549 0.114701,0.06862 0,0.109785 -0.09574,0.205743 -0.150565,0.150915 z m 0.648094,-0.02407 c -0.04067,-0.04067 -0.04104,-0.05389 -0.0035,-0.126515 0.05422,-0.104856 0.09125,-0.126085 0.14381,-0.08246 0.05791,0.04807 0.03885,0.166119 -0.03467,0.214639 -0.05253,0.03467 -0.06605,0.03394 -0.105654,-0.0057 z M 12.209783,9.528281 c -0.05195,-0.05195 -0.04053,-0.14551 0.03063,-0.251118 0.07843,-0.116378 0.146297,-0.134624 0.190882,-0.05131 0.06218,0.116181 -0.04464,0.33631 -0.163199,0.33631 -0.01344,0 -0.03968,-0.01524 -0.05832,-0.03388 z m 0.532724,-0.01887 c -0.01552,-0.02901 -0.02032,-0.06066 -0.01064,-0.07033 0.02467,-0.02467 0.09335,0.03728 0.09335,0.08419 0,0.05613 -0.04971,0.04779 -0.08271,-0.01386 z M 11.030158,9.396415 c 0.0066,-0.06787 0.02577,-0.137104 0.04252,-0.153857 0.04594,-0.04594 0.03651,0.09022 -0.01334,0.192564 l -0.04125,0.08469 z m 2.094499,-0.189448 c -0.02989,-0.07789 -0.01968,-0.105527 0.02521,-0.06827 0.04621,0.03835 0.05753,0.112923 0.01713,0.112923 -0.01387,0 -0.03292,-0.02009 -0.04234,-0.04465 z m -0.95891,-0.05961 c -0.02859,-0.02859 0.04077,-0.09335 0.09997,-0.09335 0.03007,0 0.04686,0.01263 0.03732,0.02808 -0.02595,0.04199 -0.117194,0.08537 -0.137292,0.06528 z m 1.101419,-0.03206 c -0.0257,-0.02839 -0.04632,-0.07603 -0.04583,-0.105865 7.65e-4,-0.04699 0.0102,-0.04365 0.07058,0.02497 0.0709,0.08059 0.08886,0.132522 0.04583,0.132522 -0.01313,0 -0.04488,-0.02323 -0.07058,-0.05163 z M 13.767114,8.65877 c 0.0092,-0.0854 0.02013,-0.185346 0.02436,-0.222107 0.0052,-0.04503 -0.01671,-0.08528 -0.0671,-0.123374 -0.06891,-0.05208 -0.08963,-0.05395 -0.263169,-0.02373 -0.103607,0.01805 -0.393897,0.09016 -0.645089,0.160255 -1.023804,0.285703 -1.160394,0.32188 -1.215287,0.32188 -0.113932,0 0.0019,-0.05043 0.385134,-0.167708 0.213833,-0.06544 0.652116,-0.208078 0.97396,-0.316984 0.81886,-0.277089 0.87234,-0.290094 0.959112,-0.233239 0.08106,0.05311 0.07847,0.08354 -0.0395,0.463853 -0.09269,0.298804 -0.135049,0.351992 -0.112426,0.141154 z m -4.5836671,3.528843 c 0,-0.01552 -0.02223,-0.02803 -0.0494,-0.0278 -0.04222,3.83e-4 -0.04325,0.0044 -0.0071,0.0278 0.05328,0.03443 0.05646,0.03443 0.05646,0 z m 0.8480471,-0.05703 c 0.09443,-0.04818 0.149587,-0.11235 0.09656,-0.11235 -0.03209,0 -0.2358572,0.113494 -0.2527012,0.140751 -0.02783,0.04503 0.0344,0.03371 0.1561432,-0.0284 z m -1.7246731,-0.33669 c 0.03273,-0.02071 0.02567,-0.03278 -0.03541,-0.06061 -0.08471,-0.0386 -0.119889,-0.02231 -0.09453,0.04378 0.01878,0.04893 0.06894,0.05543 0.12994,0.01684 z m 0.191443,0.0097 c -0.0094,-0.0094 -0.03373,-0.01039 -0.05411,-0.0022 -0.02252,0.009 -0.01583,0.01569 0.01705,0.01705 0.02976,0.0011 0.04643,-0.0054 0.03705,-0.01483 z m -0.43515,-0.115963 c 0.03425,-0.02045 -0.0576,-0.110992 -0.15245,-0.150281 -0.0476,-0.01972 -0.09018,-0.06296 -0.09983,-0.101389 -0.01458,-0.05809 -0.0337,-0.067 -0.143816,-0.067 -0.104208,0 -0.123923,0.008 -0.109861,0.04465 0.0094,0.02456 0.01713,0.06353 0.01713,0.08659 0,0.02886 0.01732,0.03644 0.05552,0.02432 0.04307,-0.01366 0.05958,-0.0013 0.07364,0.05456 0.02169,0.08643 0.05629,0.09352 0.07664,0.01571 0.02149,-0.08219 0.06693,-0.06909 0.08569,0.0247 0.01322,0.06609 0.03092,0.08123 0.09528,0.08151 0.04348,1.92e-4 0.0894,-0.0058 0.102058,-0.0134 z m 1.051419,-0.07873 c 0.05378,-0.04158 0.05355,-0.04342 -0.01185,-0.09881 -0.07438,-0.06299 -0.200646,-0.07428 -0.25236,-0.02257 -0.05032,0.05032 -0.04209,0.07279 0.04376,0.11936 0.09968,0.05408 0.15248,0.05456 0.22045,0.002 z m -0.83447,-0.125695 c 0,-0.04016 -0.190648,-0.122963 -0.239733,-0.104128 -0.06871,0.02637 -0.04928,0.06425 0.04918,0.09584 0.120242,0.03857 0.190556,0.04163 0.190556,0.0083 z m 0.304892,-0.0352 c 0.01864,-0.01864 0.03388,-0.04902 0.03388,-0.06752 0,-0.04989 -0.133271,-0.07419 -0.202804,-0.03698 l -0.06049,0.03237 0.06813,0.05237 c 0.08011,0.06159 0.115159,0.06588 0.161288,0.01975 z m 0.780664,0.0011 c 0.09007,-0.04104 0.09103,-0.07266 0.0034,-0.112579 -0.09323,-0.04248 -0.213812,-0.0093 -0.213812,0.05884 0,0.08416 0.09205,0.107668 0.210402,0.05374 z m -1.864922,-0.04012 c 0.02486,-0.06477 0.02284,-0.06827 -0.03933,-0.06827 -0.05441,0 -0.0765,0.05524 -0.03764,0.0941 0.03092,0.03091 0.05878,0.02156 0.07697,-0.02584 z m -0.139872,-0.03722 c 0.01694,-0.0274 -0.207396,-0.155972 -0.230986,-0.132383 -0.03037,0.03037 0.02208,0.101339 0.0749,0.101339 0.03063,0 0.06353,0.01271 0.07313,0.02823 0.0217,0.0351 0.06215,0.03648 0.08295,0.0028 z m -0.308798,-0.115736 c 0,-0.0207 -0.01589,-0.04293 -0.03529,-0.0494 -0.02099,-0.007 -0.03529,0.01301 -0.03529,0.0494 0,0.03639 0.0143,0.0564 0.03529,0.04941 0.01941,-0.0065 0.03529,-0.0287 0.03529,-0.04941 z m 1.044536,-3.82e-4 c 0,-0.0267 -0.03336,-0.04518 -0.09175,-0.05081 -0.09947,-0.0096 -0.121536,0.03081 -0.04234,0.07754 0.06585,0.03886 0.134095,0.02525 0.134095,-0.02673 z m 0.967698,1.91e-4 0.09254,-0.05642 -0.06256,-0.08463 c -0.0614,-0.08305 -0.108408,-0.108954 -0.108408,-0.05974 0,0.01368 -0.04111,0.06507 -0.09136,0.114198 -0.07576,0.07407 -0.08419,0.09384 -0.0494,0.115841 0.06339,0.04008 0.117274,0.03289 0.219188,-0.02925 z m -1.334333,-0.03508 c 0.03345,-0.07621 0.193002,-0.159086 0.310174,-0.161107 0.04658,-7.65e-4 0.125085,-0.02609 0.174455,-0.0562 0.04937,-0.0301 0.141473,-0.06866 0.204673,-0.08567 0.0632,-0.01701 0.11491,-0.0423 0.11491,-0.05618 0,-0.0409 -0.103028,-0.06169 -0.208057,-0.04199 -0.07743,0.01453 -0.146042,-0.0036 -0.331976,-0.08751 l -0.234374,-0.105823 -0.191526,0.06521 c -0.105341,0.03586 -0.191527,0.07175 -0.191527,0.07974 0,0.008 0.02211,0.03897 0.04914,0.06884 0.04708,0.05202 0.04583,0.05715 -0.0298,0.122204 -0.09503,0.08174 -0.215072,0.08672 -0.37222,0.01544 -0.109244,-0.04955 -0.1835,-0.05156 -0.1835,-0.005 0,0.04047 0.319388,0.181563 0.550501,0.243197 0.296147,0.07898 0.306515,0.07912 0.339132,0.0048 z m -0.212094,-0.105896 c 0,-0.01552 0.02541,-0.02823 0.05646,-0.02823 0.03105,0 0.05646,0.01271 0.05646,0.02823 0,0.01552 -0.02541,0.02823 -0.05646,0.02823 -0.03105,0 -0.05646,-0.01271 -0.05646,-0.02823 z m 0.112922,-0.324653 c 0.038,-0.04579 0.141154,-0.05831 0.141154,-0.01713 0,0.02879 -0.06853,0.05948 -0.132804,0.05948 -0.03546,0 -0.037,-0.0078 -0.0083,-0.04235 z m -0.719883,0.409346 c 0,-0.02286 -0.02223,-0.04585 -0.0494,-0.05109 -0.03466,-0.0067 -0.0494,0.0086 -0.0494,0.05109 0,0.04252 0.01474,0.05776 0.0494,0.05109 0.02717,-0.0052 0.0494,-0.02822 0.0494,-0.05109 z m 1.616209,-0.0178 c 0.08848,-0.02371 0.07923,-0.06302 -0.02518,-0.106918 -0.08901,-0.03743 -0.193613,-0.03014 -0.193613,0.01347 0,0.0232 0.111928,0.111582 0.140379,0.110845 0.0082,-1.91e-4 0.04348,-0.008 0.07841,-0.01742 z m -1.777949,-0.06161 c 0.0061,-0.01843 -0.0089,-0.03352 -0.03352,-0.03352 -0.02458,0 -0.0447,0.02011 -0.0447,0.0447 0,0.04985 0.06077,0.04117 0.07822,-0.01118 z m -0.138385,-0.01495 c 0.0373,-0.04494 0.01424,-0.07504 -0.05747,-0.07504 -0.05728,0 -0.05929,0.004 -0.03462,0.06827 0.02096,0.05462 0.05056,0.0568 0.09209,0.0068 z m 2.330065,-0.07519 c 0.04413,-0.04413 -0.03077,-0.08358 -0.159654,-0.08411 -0.08399,-3.83e-4 -0.105865,0.01026 -0.105865,0.05132 0,0.02847 0.0095,0.06134 0.02117,0.07306 0.02779,0.02796 0.205383,-0.0013 0.244347,-0.04027 z m -0.590184,-0.554816 c 0.137118,-0.06549 0.160724,-0.122572 0.05069,-0.122572 -0.09717,0 -0.325191,0.110962 -0.342424,0.166636 -0.01611,0.05204 0.13983,0.02849 0.291732,-0.04406 z m 1.312741,0.05785 c 0,-0.04044 -0.127284,-0.144909 -0.160856,-0.132025 -0.05781,0.02218 -0.04341,0.05912 0.04088,0.104841 0.08453,0.04586 0.11998,0.05389 0.11998,0.02718 z m -3.230973,-0.137918 c 0.173829,-0.05426 0.33132,-0.117059 0.349983,-0.139546 0.04518,-0.05444 0.05795,-1.382033 0.01372,-1.426363 -0.02132,-0.02136 -0.05831,-0.01564 -0.127038,0.0197 -0.188721,0.09701 -1.212076,0.05474 -1.212076,-0.05006 0,-0.01493 0.02521,-0.02714 0.05602,-0.02714 0.03081,0 0.0975,-0.03774 0.148212,-0.08386 l 0.09219,-0.08386 -0.09287,-7.65e-4 c -0.11497,-9.57e-4 -0.303922,0.09235 -0.346009,0.170996 -0.02467,0.04609 -0.02192,0.06922 0.01279,0.107562 0.0398,0.04398 0.04003,0.07258 0.0023,0.287016 -0.02305,0.130995 -0.04193,0.336629 -0.04195,0.456962 l -4.4e-5,0.218788 h -0.116378 c -0.102064,0 -0.1119,0.0054 -0.07996,0.04389 0.09244,0.111378 0.209913,0.112937 0.235522,0.0031 0.0078,-0.03362 0.0089,0.0087 0.0024,0.09414 -0.01309,0.171841 -0.0032,0.196638 0.09954,0.248552 0.03882,0.01962 0.121392,0.06679 0.183501,0.104825 0.06211,0.03804 0.151034,0.06955 0.197615,0.07004 0.04658,5.74e-4 0.116451,0.01851 0.155269,0.04004 0.102051,0.05663 0.119421,0.05462 0.467254,-0.05396 z m -0.601351,-0.03296 c -0.03054,-0.01233 -0.05261,-0.09423 -0.02538,-0.09423 0.05104,0 0.184105,0.06769 0.171898,0.08744 -0.01673,0.02707 -0.08804,0.03038 -0.146513,0.0068 z m 0.218788,-0.0047 c 0,-0.03253 0.06839,-0.06127 0.145816,-0.06127 0.03256,0 0.0516,0.01495 0.04492,0.03529 -0.01361,0.04148 -0.190736,0.06561 -0.190736,0.02598 z m -0.474629,-0.288879 c 0.0068,-0.02038 0.02903,-0.04261 0.04941,-0.0494 0.02117,-0.0071 0.03176,0.0035 0.0247,0.0247 -0.0068,0.02038 -0.02902,0.04261 -0.0494,0.0494 -0.02117,0.0071 -0.03176,-0.0035 -0.0247,-0.0247 z m -0.118217,-0.08126 c 0,-0.0146 0.01271,-0.03442 0.02823,-0.04401 0.01552,-0.0096 0.02823,0.0024 0.02823,0.02657 0,0.02421 -0.01271,0.04401 -0.02823,0.04401 -0.01552,0 -0.02823,-0.01196 -0.02823,-0.02657 z m 1.230116,-0.05643 c -0.04094,-0.06364 -0.05693,-0.470558 -0.0194,-0.493753 0.04986,-0.03081 0.06276,0.04033 0.05383,0.2968 -0.0055,0.158839 -0.01694,0.224127 -0.03443,0.196953 z m -0.552577,-0.05659 c 0,-0.01466 0.03136,-0.0623 0.06968,-0.105865 0.07934,-0.09019 0.10104,-0.03518 0.02752,0.06978 -0.04504,0.0643 -0.09721,0.08367 -0.09721,0.03609 z m -0.024,-0.19919 c 0.01623,-0.04658 0.04667,-0.08469 0.06764,-0.08469 0.03009,0 0.0319,0.01784 0.0086,0.08469 -0.01623,0.04658 -0.04668,0.08469 -0.06764,0.08469 -0.03009,0 -0.0319,-0.01784 -0.0086,-0.08469 z m -0.70413,-0.385907 c 0.0054,-0.141923 0.02041,-0.220546 0.04353,-0.228197 0.02581,-0.0085 0.03529,0.03762 0.03529,0.171866 0,0.194367 -0.01745,0.272853 -0.06067,0.272853 -0.01479,0 -0.02278,-0.09514 -0.01816,-0.216522 z m 0.262323,-0.03755 c 0.0096,-0.01552 0.02305,-0.02823 0.0299,-0.02823 0.0069,0 0.01244,0.01271 0.01244,0.02823 0,0.01552 -0.01346,0.02823 -0.0299,0.02823 -0.01644,0 -0.02204,-0.01271 -0.01244,-0.02823 z m 0.508153,-0.103182 c -0.203933,-0.04312 -0.202191,-0.0423 -0.139765,-0.06624 0.03182,-0.01219 0.16999,-0.03152 0.307046,-0.04294 0.201632,-0.0168 0.246804,-0.01359 0.236672,0.0168 -0.0069,0.02066 -0.07519,0.05381 -0.151776,0.07367 -0.144542,0.03748 -0.158512,0.03851 -0.252177,0.0187 z m -0.409347,-0.09443 c -0.03312,-0.02141 -0.0258,-0.02746 0.03362,-0.0278 0.04178,-1.91e-4 0.08382,0.01227 0.09342,0.0278 0.02228,0.03605 -0.07126,0.03605 -0.12704,0 z m 4.036998,1.358531 c 0,-0.0361 -0.08301,-0.09924 -0.103513,-0.07874 -0.0205,0.0205 0.04264,0.103513 0.07874,0.103513 0.01363,0 0.02477,-0.01114 0.02477,-0.02477 z M 4.7565559,10.06655 c 0.04364,-0.03108 0.07936,-0.06759 0.07936,-0.08113 0,-0.03138 -0.306452,0.118981 -0.308794,0.15151 -0.0027,0.03698 0.14021,-0.0069 0.229437,-0.07038 z m 0.425801,-0.625668 c -0.01185,-0.104701 -0.02566,-0.133472 -0.0609,-0.126796 -0.06721,0.01273 -0.07773,0.226042 -0.01428,0.289499 0.06775,0.06775 0.09466,0.0095 0.07518,-0.162703 z m 3.654189,-0.08107 c 0.08831,-0.09402 0.306537,-0.209889 0.671555,-0.356582 0.155269,-0.0624 0.3204199,-0.133582 0.3669989,-0.158184 0.04658,-0.0246 0.106175,-0.04481 0.1324302,-0.0449 0.02625,-9.6e-5 0.05559,-0.01288 0.06519,-0.0284 0.02892,-0.04679 -0.0533,-0.03225 -0.2577731,0.0456 -0.106655,0.04061 -0.308253,0.110053 -0.447996,0.154326 -0.281726,0.08925 -0.602035,0.281661 -0.654109,0.392921 -0.01816,0.03882 -0.04156,0.121391 -0.05198,0.1835 l -0.01895,0.112921 0.06193,-0.112921 c 0.03406,-0.06211 0.09378,-0.146831 0.132705,-0.188273 z m -3.77203,-0.166575 c 0.10435,-0.0743 0.158872,-0.167422 0.09803,-0.167422 -0.04745,0 -0.241937,0.16121 -0.241937,0.200541 0,0.04188 0.05701,0.02876 0.143911,-0.03312 z M 4.6907149,8.914258 c -0.05212,-0.06322 -0.126524,-0.121804 -0.16534,-0.130195 -0.03882,-0.0084 -0.10869,-0.03321 -0.155269,-0.05516 -0.04658,-0.02195 -0.122805,-0.04807 -0.169384,-0.05804 -0.07995,-0.01713 -0.08153,-0.01581 -0.02823,0.02345 0.03106,0.02287 0.0848,0.05043 0.119429,0.06123 0.07793,0.02432 0.374152,0.20125 0.42937,0.256468 0.08278,0.08278 0.06108,0.01342 -0.03057,-0.09776 z m 2.057327,-0.190411 c 0.01646,-0.04938 -0.07555,-0.121492 -0.155007,-0.121492 h -0.07384 l 0.08157,0.08514 c 0.08043,0.08395 0.127537,0.09558 0.147279,0.03635 z M 6.4297369,8.605008 c 0.114336,-0.04472 -0.344689,-0.07792 -0.524584,-0.03794 -0.08559,0.01902 -0.07663,0.02283 0.08822,0.03747 0.273651,0.02431 0.375132,0.02442 0.436364,3.82e-4 z m 0.83402,-0.885049 c 0.345084,-0.156416 0.477497,-0.444091 0.341861,-0.742718 -0.07147,-0.15735 -0.215349,-0.314726 -0.351012,-0.383938 -0.258288,-0.131768 -0.636263,0.03211 -0.848678,0.36796 -0.112097,0.177235 -0.106947,0.291332 0.02396,0.530745 0.131024,0.239625 0.17096,0.285052 0.26513,0.301587 0.16219,0.02848 0.415937,-0.0044 0.568739,-0.07364 z M 6.8532079,7.561686 c -0.04724,-0.02881 -0.12162,-0.09484 -0.165283,-0.146727 -0.06575,-0.07814 -0.07689,-0.112944 -0.06486,-0.202646 0.03995,-0.297853 0.444994,-0.520261 0.651564,-0.357772 0.142245,0.11189 0.196325,0.296191 0.126143,0.429883 -0.04743,0.09035 -0.193171,0.254058 -0.261347,0.293565 -0.08545,0.04952 -0.18784,0.04369 -0.286216,-0.01631 z m 2.415344,0.06592 c 0.169176,-0.02356 0.420908,-0.149738 0.490497,-0.245856 0.08375,-0.115675 0.09539,-0.376526 0.02312,-0.518178 -0.07206,-0.141242 -0.192269,-0.262799 -0.308454,-0.311903 -0.122355,-0.05171 -0.436637,-0.04877 -0.566044,0.0053 -0.22403,0.09361 -0.316146,0.239757 -0.334839,0.531267 -0.01257,0.196021 -0.01007,0.20552 0.09417,0.356653 0.115899,0.168043 0.236936,0.234086 0.389398,0.212472 0.04658,-0.0066 0.142045,-0.01999 0.212143,-0.02976 z M 8.9726989,7.385504 c -0.08296,-0.07284 -0.09979,-0.106639 -0.09979,-0.200408 0,-0.229052 0.156326,-0.417744 0.346089,-0.417744 0.08132,0 0.121399,0.02536 0.242661,0.153579 0.165972,0.175491 0.181033,0.251254 0.075,0.377267 -0.160612,0.190876 -0.403224,0.228435 -0.563961,0.08731 z m -2.628392,5.053072 c -0.01992,-0.03223 0.03357,-0.08033 0.09017,-0.08111 0.09246,-0.0013 0.208202,0.0397 0.208202,0.07367 0,0.04824 -0.269012,0.05494 -0.298373,0.0074 z m 0.08664,-0.275068 c -0.146723,-0.03249 -0.09222,-0.07433 0.108193,-0.08306 0.172814,-0.0075 0.191886,-0.0031 0.183266,0.04235 -0.0106,0.05594 -0.140666,0.07411 -0.291459,0.04071 z m -2.583114,-0.04643 c 0,-0.02329 0.01906,-0.04235 0.04235,-0.04235 0.02329,0 0.04235,0.01906 0.04235,0.04235 0,0.02329 -0.01906,0.04235 -0.04235,0.04235 -0.02329,0 -0.04235,-0.01906 -0.04235,-0.04235 z m 8.6527241,-0.07058 c -0.0099,-0.01608 0.01437,-0.02823 0.05646,-0.02823 0.04208,0 0.0664,0.01215 0.05646,0.02823 -0.0096,0.01552 -0.03501,0.02823 -0.05646,0.02823 -0.02146,0 -0.04686,-0.01271 -0.05646,-0.02823 z M 3.2173469,11.575986 c -0.06842,-0.06842 0.06197,-0.15591 0.138151,-0.09269 0.03138,0.02605 0.03362,0.0436 0.0093,0.07291 -0.03374,0.04065 -0.115601,0.05163 -0.147454,0.01978 z m -0.696358,-0.03764 c 0,-0.01552 0.04764,-0.02803 0.105865,-0.0278 0.07875,3.83e-4 0.09502,0.0074 0.06352,0.0278 -0.05564,0.03596 -0.169384,0.03596 -0.169385,0 z M 12.891621,11.369127 c -0.172355,-0.06954 -0.07251,-0.147412 0.194862,-0.151971 0.231448,-0.0039 0.309796,0.01744 0.28649,0.07816 -0.03319,0.0865 -0.33514,0.132799 -0.481352,0.07381 z M 2.6480299,11.209043 c -0.16441,-0.02107 -0.211732,-0.03924 -0.211732,-0.0813 0,-0.06893 0.133975,-0.10018 0.392411,-0.09155 0.200512,0.0067 0.243707,0.01625 0.251225,0.05559 0.005,0.02612 -0.01391,0.05943 -0.04203,0.07402 -0.06479,0.03363 -0.279262,0.05741 -0.389876,0.04323 z m 2.978344,-0.0636 c 0,-0.01424 0.01589,-0.03122 0.03529,-0.03775 0.05229,-0.01759 0.135837,0.0097 0.117998,0.03861 -0.02045,0.03309 -0.153285,0.03235 -0.153285,-7.65e-4 z m -3.959956,-0.08926 c -0.06893,-0.04065 -0.03453,-0.08248 0.06785,-0.08248 0.06563,0 0.08293,0.01122 0.07564,0.04908 -0.01137,0.05899 -0.07499,0.0738 -0.143493,0.0334 z m 12.2140611,-0.09524 c -0.02687,-0.07002 0.01608,-0.100159 0.14275,-0.100159 0.146157,0 0.221673,0.06323 0.132507,0.110954 -0.08351,0.04469 -0.256569,0.0379 -0.275257,-0.0108 z M 4.6382969,10.807288 c 0,-0.02965 0.202937,-0.05301 0.316125,-0.0364 0.04319,0.0063 0.07156,0.02281 0.06304,0.0366 -0.02031,0.03286 -0.379162,0.03267 -0.379162,-1.91e-4 z m -2.300805,-0.05723 c -0.0546,-0.02134 -0.05436,-0.02274 0.0073,-0.04236 0.07885,-0.02507 0.373765,0.0092 0.373765,0.04342 0,0.03047 -0.302593,0.02963 -0.381114,-0.0011 z m 0.704106,-0.213388 c -0.04743,-0.03619 -0.0491,-0.04562 -0.01246,-0.07014 0.02329,-0.01558 0.07411,-0.02834 0.112923,-0.02834 0.03882,0 0.08963,0.01275 0.112924,0.02834 0.03665,0.02453 0.03498,0.03395 -0.01246,0.07014 -0.03014,0.023 -0.07535,0.04181 -0.100469,0.04181 -0.02512,0 -0.07033,-0.01881 -0.10047,-0.04181 z m -1.79099,-0.0092 c 0,-0.01642 0.114334,-0.126847 0.254078,-0.245407 0.139741,-0.11856 0.254075,-0.234936 0.254075,-0.258615 0,-0.02368 -0.02656,-0.172087 -0.05903,-0.329795 -0.104233,-0.506298 -0.03655,-1.48655 0.102632,-1.48655 0.02164,0 0.08886,0.02581 0.149371,0.05735 0.266527,0.138921 0.590899,0.08098 0.713923,-0.127532 0.03296,-0.05587 0.07424,-0.09695 0.09173,-0.09131 0.01749,0.0056 0.04812,0.06653 0.06807,0.135286 0.01995,0.06876 0.05552,0.191674 0.07905,0.273148 0.104931,0.363317 0.123427,1.262437 0.03046,1.480726 -0.103597,0.243248 -0.450687,0.376446 -0.794804,0.305007 -0.136438,-0.02832 -0.168253,-0.02532 -0.286777,0.02711 -0.07332,0.03243 -0.200053,0.10327 -0.281622,0.157413 -0.154437,0.10251 -0.321157,0.156065 -0.321157,0.103168 z m 0.899786,-1.447169 c 0.04922,-0.08813 0.02459,-0.210667 -0.05041,-0.250808 -0.09991,-0.05347 -0.284759,0.05195 -0.284759,0.162408 0,0.01445 0.02687,0.06045 0.05973,0.102209 0.07847,0.09976 0.215864,0.09287 0.275444,-0.01382 z m -0.211406,-0.03874 c -0.04551,-0.118593 0.05503,-0.199931 0.140945,-0.114022 0.03469,0.03469 0.03868,0.05886 0.01656,0.100218 -0.03414,0.0638 -0.134921,0.07263 -0.157494,0.0138 z m 0.858665,0.03505 c 0.04768,-0.04768 0.04215,-0.178194 -0.0094,-0.220943 -0.06806,-0.05648 -0.267297,0.01166 -0.267297,0.0914 0,0.130432 0.187825,0.218377 0.276662,0.12954 z m -0.201605,-0.06344 c -0.02712,-0.07067 0.01135,-0.132298 0.07675,-0.122966 0.04282,0.0061 0.05992,0.0287 0.05992,0.07913 0,0.08225 -0.108569,0.117079 -0.136673,0.04384 z m -0.823172,1.452391 c 0.01984,-0.03209 0.184411,-0.03209 0.310539,0 0.06354,0.01617 0.03315,0.02239 -0.121646,0.02489 -0.131157,0.0021 -0.199982,-0.0069 -0.188893,-0.02489 z m -0.98337105,-0.01881 c -0.04347,-0.04347 -0.01204,-0.06587 0.09244,-0.06587 0.06119,0 0.11821505,0.01125 0.12672105,0.02502 0.0263,0.04255 -0.17915905,0.08085 -0.21915805,0.04085 z m -0.284823,-0.232606 c -0.250401,-0.03021 -0.181323,-0.0773 0.142452,-0.09711 0.67041605,-0.04102 0.98730005,-0.01799 0.89602505,0.0651 -0.03138,0.02856 -0.85629005,0.054 -1.03847705,0.03202 z M 11.265465,8.063698 c -0.05728,-0.03336 -0.0631,-0.106175 -0.01665,-0.208141 0.04037,-0.08861 0.118878,-0.09267 0.177368,-0.0092 0.109367,0.156146 -0.0036,0.308839 -0.160726,0.217303 z M 10.336277,7.948562 c -0.04136,-0.01476 -0.08421,-0.04838 -0.09522,-0.0747 -0.011,-0.02632 -0.03054,-0.304392 -0.04341,-0.617931 -0.02183,-0.531913 -0.02794,-0.577265 -0.09121,-0.677538 -0.0373,-0.05911 -0.07785,-0.139226 -0.0901,-0.178043 C 9.9667568,6.243284 9.7963009,5.900213 9.6809019,5.725217 9.4698709,5.405195 9.2530349,5.237194 8.7008919,4.96592 8.3567619,4.796846 8.1906809,4.765234 7.6391899,4.763838 c -0.518008,-0.0013 -0.652689,0.04425 -1.065018,0.360234 -0.292522,0.224176 -0.372348,0.427347 -0.285408,0.726411 0.08216,0.282601 0.01548,0.743849 -0.167245,1.15703 -0.134782,0.304767 -0.527175,0.731008 -0.769245,0.8356 -0.187907,0.08119 -0.412139,0.08248 -0.572824,0.0033 -0.151926,-0.07486 -0.479345,-0.348263 -0.527779,-0.440702 -0.06415,-0.122434 -0.09464,-0.419508 -0.06581,-0.64111 0.01495,-0.114941 0.03991,-0.306875 0.05546,-0.426522 0.04096,-0.315116 0.05236,-0.351923 0.186273,-0.601151 0.147144,-0.273861 0.201836,-0.327095 0.431029,-0.419542 0.126164,-0.05089 0.238623,-0.128422 0.386272,-0.266313 0.24775,-0.23137 0.559548,-0.473069 0.784254,-0.607935 0.198476,-0.119123 0.628622,-0.279661 0.952301,-0.355414 0.334912,-0.07838 0.889702,-0.150554 1.04308,-0.13569 0.239066,0.02317 0.657864,0.161851 0.815386,0.270013 0.08278,0.05684 0.192143,0.128751 0.243036,0.159805 0.163493,0.09976 0.469673,0.383769 1.0000011,0.927576 0.134113,0.137522 0.310665,0.299991 0.392338,0.361045 0.08167,0.06105 0.176954,0.152772 0.211732,0.20382 0.428945,0.629614 0.46068,0.705084 0.435234,1.035066 -0.02158,0.279766 -0.06954,0.414497 -0.230862,0.648469 -0.235874,0.342104 -0.389135,0.449981 -0.555117,0.390739 z M 4.9911819,7.472727 c 0,-0.05559 -0.01615,-0.07205 -0.07763,-0.07912 -0.06015,-0.0069 -0.07764,0.0029 -0.07764,0.04376 0,0.02898 0.01562,0.06831 0.0347,0.08739 0.05454,0.05454 0.120569,0.02605 0.12057,-0.05203 z m 0.223537,0.06794 c 0.05642,-0.02165 0.05651,-0.05166 3.83e-4,-0.107831 -0.06543,-0.06543 -0.166473,-0.0088 -0.124443,0.06969 0.03149,0.05885 0.05295,0.06544 0.124095,0.03814 z m 0.297331,-0.08898 c 0.06524,-0.05283 0.05598,-0.147963 -0.01441,-0.147963 -0.07478,0 -0.181808,0.06638 -0.181808,0.112749 0,0.09773 0.09741,0.115218 0.196214,0.03521 z m 5.1958581,0.009 c 0,-0.0552 -0.05472,-0.08527 -0.09034,-0.04966 -0.01592,0.01592 -0.02042,0.04277 -0.01,0.05965 0.02767,0.04478 0.100328,0.03754 0.100328,-0.01 z M 4.7512199,7.404227 c 0,-0.0069 -0.01271,-0.0203 -0.02823,-0.0299 -0.01552,-0.0096 -0.02823,-0.004 -0.02823,0.01246 0,0.01644 0.01271,0.0299 0.02823,0.0299 0.01552,0 0.02823,-0.0056 0.02823,-0.01244 z m -0.169384,-0.06879 c 0,-0.0361 -0.08301,-0.09924 -0.103513,-0.07874 -0.0205,0.0205 0.04264,0.103513 0.07874,0.103513 0.01363,0 0.02477,-0.01116 0.02477,-0.02477 z M 10.514877,6.87616 c -0.01516,-0.266363 -0.02891,-0.340058 -0.07248,-0.388173 -0.09439,-0.104243 -0.137148,-0.07745 -0.119207,0.07471 0.0087,0.07375 0.02403,0.267486 0.03407,0.43052 0.01005,0.163032 0.02474,0.307271 0.03266,0.320531 0.0079,0.01326 0.04349,-0.0058 0.07903,-0.04235 0.06231,-0.06407 0.06395,-0.07824 0.04592,-0.395237 z m 0.268245,0.411569 c 0.0093,-0.02434 -6.4e-5,-0.0761 -0.0209,-0.115027 -0.03531,-0.06597 -0.04035,-0.06739 -0.07433,-0.02093 -0.05815,0.07953 -0.04648,0.18021 0.0209,0.18021 0.03154,0 0.06499,-0.01991 0.07433,-0.04425 z M 5.7381719,7.262759 c 0.01872,-0.02254 0.02576,-0.06701 0.01568,-0.09881 -0.01439,-0.04532 -0.006,-0.05782 0.03902,-0.05782 0.09505,0 0.124506,-0.09426 0.05647,-0.180751 -0.03195,-0.04063 -0.06857,-0.06739 -0.08138,-0.05948 -0.0128,0.0079 -0.06288,0.08456 -0.111289,0.170338 -0.07061,0.125113 -0.08211,0.16698 -0.05816,0.211728 0.03526,0.06589 0.09224,0.07193 0.139663,0.01479 z M 5.2119669,7.075868 c 0.235254,-0.06533 0.448377,-0.373981 0.58739,-0.850686 0.06898,-0.236569 0.05459,-0.431776 -0.03183,-0.431776 -0.02329,0 -0.102113,0.101631 -0.175162,0.225845 -0.284628,0.483993 -0.402462,0.645883 -0.536072,0.736499 -0.1185,0.08037 -0.12856,0.09526 -0.09517,0.140927 0.03301,0.04514 0.05038,0.04715 0.149895,0.01734 0.06191,-0.01855 0.128522,-0.03372 0.148031,-0.03372 0.05325,0 -0.01895,0.07861 -0.120361,0.131053 -0.179201,0.09267 -0.556851,-0.09279 -0.556851,-0.273466 0,-0.04406 0.01271,-0.08795 0.02823,-0.09755 0.01552,-0.0096 0.02823,0.0083 0.02823,0.03969 0,0.05148 0.101212,0.136704 0.129159,0.108757 0.0063,-0.0063 -0.0085,-0.08034 -0.03286,-0.164613 -0.07839,-0.271387 -0.07674,-0.310925 0.02926,-0.702165 0.05619,-0.207374 0.09818,-0.388964 0.09333,-0.403533 -0.01677,-0.0503 -0.132283,0.07793 -0.234967,0.26083 -0.166045,0.295761 -0.228942,0.782436 -0.13627,1.054411 0.0522,0.153204 0.13884,0.211559 0.362986,0.244492 0.209645,0.0308 0.244546,0.03058 0.363031,-0.0023 z m 0.207382,-0.412015 c -0.03248,-0.03248 -0.02056,-0.06587 0.02352,-0.06587 0.02329,0 0.04235,0.01906 0.04235,0.04235 0,0.04409 -0.03339,0.05601 -0.06587,0.02353 z m 0.08469,-0.112923 c -0.03248,-0.03248 -0.02056,-0.06587 0.02353,-0.06587 0.02329,0 0.04234,0.01906 0.04234,0.04235 0,0.04408 -0.03339,0.05601 -0.06587,0.02352 z m 0.0941,-0.300437 c 0,-0.05003 0.0758,-0.150733 0.09729,-0.129247 0.02456,0.02456 -0.0337,0.166197 -0.06836,0.166197 -0.01591,0 -0.02893,-0.01663 -0.02893,-0.03695 z M 4.6301409,5.941052 c 0.0081,-0.0424 0.02596,-0.0771 0.03968,-0.0771 0.03622,0 0.03063,0.03789 -0.01474,0.09993 -0.03712,0.05076 -0.03873,0.04928 -0.02494,-0.02284 z M 10.84875,6.965533 c 0.01644,-0.03074 0.02183,-0.08807 0.01196,-0.127405 -0.01028,-0.04096 -0.0033,-0.08921 0.0164,-0.112914 0.03906,-0.04706 0.0074,-0.168347 -0.07202,-0.275848 l -0.04664,-0.06314 0.01407,0.08236 c 0.0077,0.0453 0.0011,0.168829 -0.01445,0.274516 -0.02879,0.193969 -0.01889,0.278318 0.03267,0.278318 0.01546,0 0.04158,-0.02515 0.05803,-0.05588 z M 5.9651429,6.781453 c 0,-0.03698 -0.01271,-0.0751 -0.02823,-0.08469 -0.05101,-0.03153 -0.0295,-0.07005 0.03529,-0.06319 0.05845,0.0062 0.06315,-0.004 0.05895,-0.127372 -0.0034,-0.09882 0.0059,-0.134095 0.03529,-0.134095 0.02192,0 0.03986,-0.004 0.03986,-0.0089 0,-0.0049 0.0129,-0.07867 0.02865,-0.163909 0.02184,-0.118137 0.01962,-0.181067 -0.0093,-0.26473 -0.05461,-0.157725 -0.09312,-0.150956 -0.114739,0.02016 -0.04076,0.322644 -0.06699,0.438616 -0.139604,0.617235 -0.09155,0.225202 -0.09201,0.235685 -0.01198,0.272277 0.08047,0.03679 0.105865,0.02174 0.105865,-0.06276 z M 5.0653679,6.275254 c 0.138616,-0.05882 0.398001,-0.340805 0.507998,-0.552269 0.138431,-0.266127 0.428729,-0.55779 0.774717,-0.778353 0.552874,-0.352453 0.944974,-0.472035 1.550866,-0.472983 0.370704,-5.74e-4 0.405034,0.0041 0.553224,0.07477 0.0869,0.04146 0.170888,0.07539 0.186651,0.07539 0.0882,0 0.439036,0.195118 0.576586,0.320671 0.08745,0.07983 0.224488,0.194074 0.304526,0.253888 0.08687,0.06492 0.221534,0.215682 0.3341089,0.374058 0.103721,0.145917 0.1985272,0.265304 0.2106852,0.265304 0.09887,0 -0.1445022,-0.489526 -0.3639261,-0.731998 -0.08971,-0.09914 -0.232593,-0.224693 -0.317514,-0.279014 -0.08492,-0.05432 -0.206886,-0.138834 -0.271037,-0.1878 -0.06415,-0.04897 -0.235399,-0.150371 -0.380553,-0.22534 -0.257766,-0.133131 -0.272276,-0.136958 -0.622654,-0.164241 -0.316181,-0.02462 -0.406855,-0.0207 -0.76434,0.03304 -0.882157,0.132617 -1.612237,0.478913 -2.004058,0.950581 -0.233878,0.281537 -0.236377,0.286536 -0.334124,0.668554 -0.04466,0.174533 -0.08997,0.339563 -0.100693,0.366735 -0.02433,0.06165 0.02845,0.06463 0.159537,0.009 z m 0.278974,-0.713113 c 5.74e-4,-0.100456 0.135491,-0.338943 0.241007,-0.425917 0.106229,-0.08756 0.740215,-0.429265 0.958523,-0.516621 0.182219,-0.07291 0.392217,-0.137264 0.405287,-0.124192 0.02884,0.02884 -0.06896,0.100297 -0.208989,0.152691 -0.170785,0.0639 -0.635665,0.326068 -0.819794,0.462324 -0.06697,0.04956 -0.174621,0.121865 -0.239225,0.160683 -0.06461,0.03882 -0.154337,0.123919 -0.199408,0.189117 -0.09775,0.141395 -0.137774,0.171086 -0.137401,0.101915 z m 4.083443,-0.483812 c -0.103819,-0.114717 -0.01686,-0.165642 0.08951,-0.05242 0.03376,0.03594 0.06138,0.07405 0.06138,0.08469 0,0.04001 -0.105993,0.01734 -0.150892,-0.03227 z m -0.752491,-0.56945 c -0.09606,-0.05259 -0.09674,-0.05413 -0.0243,-0.05528 0.04098,-5.74e-4 0.104499,0.0238 0.141154,0.05434 0.08801,0.07332 0.0164,0.0739 -0.116853,9.57e-4 z m -1.489604,-0.09045 c 0.01611,-0.04838 0.19157,-0.08964 0.227661,-0.05355 0.01983,0.01983 0.0047,0.03824 -0.04803,0.05826 -0.103834,0.03948 -0.193578,0.03712 -0.179633,-0.0047 z m 1.235527,-0.02158 c 0,-0.01504 0.01906,-0.02003 0.04235,-0.0111 0.02329,0.0089 0.04235,0.02124 0.04235,0.02734 0,0.0061 -0.01906,0.0111 -0.04235,0.0111 -0.02329,0 -0.04235,-0.01231 -0.04235,-0.02734 z m -0.592846,-0.05735 c 0,-0.01552 0.03736,-0.02823 0.08303,-0.02823 0.04566,0 0.09088,0.01271 0.100475,0.02823 0.01039,0.0168 -0.02323,0.02823 -0.08303,0.02823 -0.05526,0 -0.100475,-0.01271 -0.100475,-0.02823 z m -5.607904,3.429529 c -0.02093,-0.05455 0.03938,-0.202473 0.09056,-0.222111 0.04975,-0.0191 0.12527,0.05554 0.12527,0.123809 0,0.113177 -0.178862,0.194639 -0.215831,0.0983 z M 11.810955,7.596342 c -0.09948,-0.126472 -0.057,-0.344074 0.08685,-0.444829 0.08195,-0.0574 0.151381,-0.01749 0.193947,0.11149 0.09209,0.27905 -0.122816,0.534177 -0.280794,0.333339 z M 3.3226699,7.402074 c -0.06658,-0.101614 -0.04109,-0.331099 0.04721,-0.425096 0.08615,-0.09171 0.163321,-0.07857 0.244081,0.04156 0.132149,0.196568 0.04778,0.454577 -0.148642,0.454577 -0.07153,0 -0.10801,-0.01816 -0.142652,-0.07104 z m 9.7552201,-0.0011 c -0.05237,-0.0631 -0.0017,-0.193283 0.0796,-0.204951 0.05445,-0.0078 0.06295,0.0038 0.06295,0.0861 0,0.08745 -0.04024,0.162879 -0.08688,0.162879 -0.01053,0 -0.03557,-0.01982 -0.05567,-0.04403 z M 3.8580219,5.934599 c -0.01784,-0.04646 0.0029,-0.146875 0.04318,-0.208723 0.03907,-0.06007 0.11602,-0.01457 0.11602,0.0686 0,0.145949 -0.117333,0.24922 -0.159198,0.140121 z M 10.784381,5.225378 c -0.03502,-0.03502 -0.02155,-0.143565 0.02233,-0.179985 0.06036,-0.05009 0.132449,0.01552 0.121408,0.110506 -0.0083,0.07172 -0.09811,0.115113 -0.143742,0.06948 z"
       id="path1" /></g></svg>
