<?xml version="1.0" encoding="UTF-8" standalone="no"?>
<!-- Created with Inkscape (http://www.inkscape.org/) -->

<svg
   width="16"
   height="16"
   viewBox="0 0 16 16"
   version="1.1"
   id="svg1"
   xml:space="preserve"
   inkscape:export-filename="bitmap.svg"
   inkscape:export-xdpi="96"
   inkscape:export-ydpi="96"
   xmlns:inkscape="http://www.inkscape.org/namespaces/inkscape"
   xmlns:sodipodi="http://sodipodi.sourceforge.net/DTD/sodipodi-0.dtd"
   xmlns="http://www.w3.org/2000/svg"
   xmlns:svg="http://www.w3.org/2000/svg"><sodipodi:namedview
     id="namedview1"
     pagecolor="#505050"
     bordercolor="#eeeeee"
     borderopacity="1"
     inkscape:showpageshadow="0"
     inkscape:pageopacity="0"
     inkscape:pagecheckerboard="0"
     inkscape:deskcolor="#505050"
     inkscape:document-units="px"><inkscape:page
       x="0"
       y="0"
       width="16"
       height="16"
       id="page2"
       margin="0"
       bleed="0" /></sodipodi:namedview><defs
     id="defs1" /><g
     inkscape:label="Capa 1"
     inkscape:groupmode="layer"
     id="layer1"><path
       style="fill:#0e0e0e;stroke-width:0.0218573"
       d="m 7.15736,11.881701 c -0.02868,-0.02868 -0.152236,-0.08865 -0.274573,-0.133268 -0.132849,-0.04845 -0.2615,-0.119013 -0.319434,-0.175198 -0.09079,-0.08805 -0.120308,-0.09719 -0.461287,-0.14282 -0.200359,-0.0268 -0.501987,-0.05618 -0.67029,-0.06526 -0.168301,-0.0091 -0.384688,-0.03468 -0.48086,-0.05689 -0.09617,-0.02221 -0.336968,-0.04836 -0.535103,-0.05812 C 3.980441,11.228705 3.789138,11.192065 3.654049,11.104267 3.514371,11.013487 3.220192,10.952679 2.736045,10.914526 2.218563,10.873746 1.925475,10.815896 1.685826,10.707232 1.581454,10.659912 1.394737,10.596915 1.270902,10.567248 0.90148004,10.478748 0.63733804,10.305151 0.73043704,10.212052 c 0.0143,-0.0143 0.208617,-0.01348 0.44716396,0.0019 0.232025,0.01499 0.66228,0.03257 0.956122,0.03911 0.589908,0.01313 0.58081,0.01594 0.545916,-0.17004 -0.01559,-0.083111 -0.03209,-0.1017825 -0.08988,-0.1017825 -0.04918,0 -0.08459,-0.02669 -0.116,-0.08743 -0.06137,-0.118688 -0.09773,-0.109855 -0.119952,0.02914 -0.02491,0.1558935 -0.05723,0.1471915 -0.08113,-0.02185 -0.137411,-0.971787 -0.114116,-1.1163 0.234286,-1.45344 0.138278,-0.13381 0.214511,-0.230288 0.214511,-0.271491 0,-0.229402 0.30177,-0.358576 0.830575,-0.355529 0.112201,5.47e-4 0.272776,-0.01876 0.356833,-0.04314 0.08405,-0.02437 0.179776,-0.03576 0.212714,-0.0253 0.105583,0.03351 0.195001,-0.05482 0.22824,-0.22547 0.01646,-0.08459 0.03835,-0.698037 0.04862,-1.363227 0.02319,-1.503826 0.02593,-1.590457 0.05453,-1.73401 0.03044,-0.152789 0.145995,-0.329918 0.228417,-0.350136 0.142148,-0.03488 0.398343,-0.07528 0.645576,-0.101801 0.142716,-0.01531 0.280417,-0.03432 0.306001,-0.04224 0.09432,-0.02919 1.019504,-0.09668 1.372525,-0.10013 0.535423,-0.0052 0.864019,-0.02967 1.086021,-0.0808 0.160572,-0.03697 0.314695,-0.0422 0.830577,-0.02817 0.971528,0.02642 1.366728,0.01955 1.474903,-0.02565 0.06889,-0.02878 0.280237,-0.04116 0.777709,-0.04552 0.777658,-0.0068 0.868569,0.01097 0.92803,0.181523 0.02524,0.07239 0.0406,0.08591 0.06729,0.05922 0.01903,-0.01903 0.04508,-0.03459 0.0579,-0.03459 0.03525,0 0.02793,1.051731 -0.009,1.291282 -0.03863,0.2507 -0.07442,0.333098 -0.123406,0.284112 -0.02341,-0.02341 -0.03402,-0.227217 -0.03468,-0.666133 -8.2e-4,-0.548143 -0.0078,-0.645223 -0.05252,-0.728619 -0.05834,-0.108826 -0.124177,-0.145795 -0.17289,-0.09708 -0.04281,0.04281 -0.291318,0.04282 -0.33412,2.2e-5 -0.04313,-0.04313 -1.564037,-0.01348 -1.770964,0.03452 -0.09356,0.02171 -0.406484,0.03196 -0.874291,0.02865 -0.415927,-0.003 -0.760593,0.007 -0.803188,0.02322 -0.13725,0.0522 -0.619546,0.09649 -1.193113,0.109571 -0.312557,0.0071 -0.777689,0.02385 -1.033621,0.03718 -0.255933,0.01332 -0.488688,0.01811 -0.517236,0.01064 -0.02855,-0.0075 -0.08502,0.0081 -0.125493,0.03464 -0.04047,0.02653 -0.154687,0.07722 -0.253813,0.112672 -0.207821,0.07433 -0.219018,0.09534 -0.223516,0.419561 -0.0016,0.115166 -0.01666,0.24553 -0.03344,0.289697 -0.01679,0.04417 -0.03663,0.372455 -0.04407,0.729526 -0.0074,0.357071 -0.02691,0.684402 -0.04327,0.727404 -0.0341,0.08969 -0.09058,1.158517 -0.06505,1.230903 0.03156,0.08946 0.109631,0.156579 0.259381,0.222991 0.140272,0.06221 0.151457,0.07513 0.1846,0.213291 0.02497,0.104139 0.02707,0.192277 0.0071,0.301949 -0.01548,0.08518 -0.02781,0.187663 -0.02739,0.227736 5.47e-4,0.04007 -0.0022,0.303453 -0.0059,0.585289 -0.0066,0.507979 -0.006,0.513399 0.06865,0.623358 0.0414,0.06101 0.07528,0.1219595 0.07528,0.1354455 0,0.01348 0.0327,0.03273 0.07267,0.04276 0.03997,0.01004 0.139038,0.09485 0.220153,0.188481 0.08112,0.09363 0.222179,0.223063 0.313476,0.287621 0.520742,0.36824 0.727565,0.50622 0.811135,0.541138 0.05141,0.02147 0.115669,0.07294 0.142804,0.114348 0.02713,0.04141 0.07305,0.07529 0.102031,0.07529 0.02898,0 0.08977,0.03084 0.135078,0.06853 0.04531,0.03769 0.110634,0.08338 0.145169,0.101538 0.07854,0.04129 0.76515,0.01933 1.27093,-0.04065 0.824329,-0.09775 1.533688,-0.157025 1.697159,-0.141822 0.244892,0.02278 1.34608,-0.107664 1.967157,-0.233026 0.280502,-0.05662 0.628031,-0.117157 0.77229,-0.134534 0.588027,-0.07083 0.702637,-0.08568 0.77229,-0.10002 0.04007,-0.0083 0.248026,-0.03507 0.462122,-0.05959 0.507393,-0.05811 0.576132,-0.09587 0.440177,-0.241802 -0.07455,-0.08002 -0.104282,-0.08043 -0.124856,-0.0016 -0.01299,0.04967 -0.03218,0.05897 -0.0964,0.04669 -0.0441,-0.0084 -0.10718,0.0016 -0.140181,0.02215 -0.09709,0.06062 -0.277034,0.08086 -0.371415,0.04177 -0.06592,-0.02732 -0.120081,-0.02768 -0.236748,-0.0016 -0.0832,0.01857 -0.243076,0.04755 -0.355277,0.06443 -0.501095,0.07536 -0.582634,0.06756 -0.497316,-0.04752 0.03651,-0.04925 0.05027,-0.0517 0.104394,-0.01862 0.04815,0.02942 0.07178,0.03027 0.103775,0.0037 0.03196,-0.02653 0.05154,-0.02598 0.08563,0.0022 0.03568,0.02961 0.107248,0.02705 0.371574,-0.01335 0.180058,-0.02752 0.36672,-0.06752 0.414806,-0.08888 0.04809,-0.02136 0.136607,-0.05411 0.196715,-0.07276 0.06011,-0.01865 0.109286,-0.04598 0.109286,-0.06072 0,-0.01474 -0.06042,-0.108802 -0.134263,-0.209028 -0.109871,-0.149118 -0.1252,-0.1840425 -0.08437,-0.1922365 0.03361,-0.0068 -0.0039,-0.04241 -0.114912,-0.109286 -0.09064,-0.0546 -0.176923,-0.09928 -0.191738,-0.09928 -0.02442,0 -0.11586,-0.148771 -0.11586,-0.188538 0,-0.0091 0.03296,-0.0083 0.07324,0.0019 0.0414,0.01039 0.09159,0.0031 0.115448,-0.01666 0.03416,-0.02835 0.09106,-0.0057 0.298338,0.118606 0.3931,0.235799 0.764729,0.4891935 0.933336,0.6363895 0.146504,0.1279 0.152646,0.139213 0.152999,0.281736 2.65e-4,0.107174 -0.01447,0.161901 -0.05293,0.196715 -0.02931,0.02653 -0.06263,0.04823 -0.07404,0.04823 -0.0114,0 -0.05707,0.02686 -0.10147,0.05968 -0.111019,0.08208 -0.565368,0.160468 -1.344922,0.232036 -1.251592,0.114903 -1.592077,0.157574 -1.64417,0.206062 -0.01575,0.01466 -0.0068,0.03254 0.02185,0.04352 0.151167,0.05801 -0.03616,0.103961 -0.709133,0.173956 -0.248444,0.02584 -0.600098,0.06419 -0.781452,0.08521 -0.181354,0.02103 -0.355348,0.03153 -0.386659,0.02336 -0.06049,-0.01581 -0.4278,0.02325 -0.928968,0.0988 -0.231658,0.03492 -0.401447,0.04096 -0.707689,0.02519 -0.29539,-0.01523 -0.414062,-0.01151 -0.444711,0.01395 -0.023,0.01909 -0.104522,0.03763 -0.181176,0.04122 -0.07665,0.0036 -0.168014,0.02201 -0.203025,0.04093 -0.0887,0.04794 -0.146313,0.043 -0.207058,-0.01775 z M 4.399117,10.556833 c 0.08996,-0.03606 0.211574,-0.106683 0.270252,-0.156927 l 0.106688,-0.09136 0.02502,-0.9558815 c 0.02366,-0.904267 0.02215,-0.95796 -0.02762,-0.99436 -0.02894,-0.02117 -0.07298,-0.03222 -0.09786,-0.02456 -0.1335,0.04104 -0.673104,0.06607 -0.953464,0.04421 -0.173683,-0.01354 -0.431453,-0.0307 -0.572824,-0.03813 -0.248865,-0.0131 -0.258049,-0.01129 -0.288824,0.05624 -0.01944,0.0427 -0.05656,0.06976 -0.09566,0.06976 -0.14665,0 -0.429689,0.295286 -0.427819,0.44633 0.0027,0.21217 0.06091,0.607871 0.09577,0.650129 0.05417,0.06569 0.362513,0.322154 0.403888,0.335945 0.01786,0.006 0.05229,0.09585 0.07653,0.1997845 0.05961,0.255522 0.09283,0.296946 0.307962,0.384031 0.274313,0.111039 0.387411,0.13262 0.716366,0.136684 0.246916,0.0031 0.326094,-0.0076 0.461599,-0.06189 z M 3.168132,10.352832 C 3.135722,10.316772 3.079772,10.193561 3.04381,10.079041 2.99201,9.9140735 2.98524,9.8580785 3.01126,9.8094665 c 0.01805,-0.03374 0.03798,-0.06135 0.04427,-0.06135 0.0215,0 0.161379,0.3168675 0.161379,0.3655615 0,0.02672 0.03317,0.08802 0.07372,0.13621 0.05762,0.06848 0.06639,0.09645 0.04015,0.128066 -0.04776,0.05754 -0.0949,0.05026 -0.16264,-0.02511 z m 0.823123,-0.07681 c -0.01105,-0.01786 -0.0029,-0.03284 0.01808,-0.03329 0.02098,-5.47e-4 0.12995,-0.04514 0.242151,-0.09931 0.112202,-0.05417 0.208478,-0.09413 0.213948,-0.08881 0.0055,0.0053 0.0016,0.03563 -0.0084,0.06735 -0.03361,0.105897 -0.417182,0.232752 -0.465818,0.154055 z m 0.600855,-0.054 c 0.01463,-0.07597 0.111091,-0.08444 0.111091,-0.0098 0,0.04171 -0.01871,0.06042 -0.06042,0.06042 -0.04171,0 -0.0574,-0.0157 -0.05067,-0.05066 z M 3.440047,10.064834 C 3.356337,10.016174 3.24643,9.7515625 3.247978,9.6023975 c 0.0016,-0.149545 0.0551,-0.325605 0.103863,-0.341505 0.03673,-0.01198 0.06237,0.08915 0.09399,0.370647 0.01277,0.113766 0.04693,0.230173 0.0855,0.29143 0.03532,0.0561 0.06426,0.1183965 0.06433,0.1384315 1.31e-4,0.04426 -0.08224,0.04608 -0.155608,0.0034 z M 3.81554,9.982584 C 3.75034,9.910534 3.78239,9.804722 3.930536,9.602904 4.072241,9.409864 4.106303,9.403292 4.239497,9.543304 4.375092,9.685846 4.414763,9.839148 4.338007,9.923966 4.230955,10.042258 3.902859,10.079063 3.815542,9.982576 Z M 2.732438,9.588934 C 2.723438,9.565494 2.690928,9.538344 2.660178,9.528584 2.535776,9.489104 2.45761,9.183562 2.516222,8.965893 2.534872,8.896643 2.594532,8.791868 2.64882,8.73305 2.7312,8.64378 2.756202,8.631436 2.800066,8.65836 c 0.045,0.02762 0.05383,0.0821 0.06143,0.37886 0.01069,0.41748 -0.01009,0.594319 -0.06987,0.594319 -0.02357,0 -0.0502,-0.01917 -0.05919,-0.0426 z m 0.0037,-0.680972 c -0.03541,-0.0354 -0.09724,0.03258 -0.11481,0.126225 -0.01485,0.07922 -0.0066,0.126778 0.03207,0.184472 l 0.0521,0.07773 0.02141,-0.188114 c 0.01179,-0.103464 0.01592,-0.193606 0.0092,-0.200317 z m 0.903299,0.567395 c -0.04392,-0.06704 -0.03652,-0.138874 0.02215,-0.214782 0.04305,-0.05571 0.130342,0.0069 0.152912,0.109626 0.03484,0.158611 -0.09064,0.233985 -0.175058,0.105156 z m 0.728509,0.03952 c -0.03715,-0.06011 0.04539,-0.203909 0.117048,-0.203909 0.08281,0 0.106975,0.05809 0.06191,0.148827 -0.03723,0.07495 -0.145988,0.108427 -0.178956,0.05508 z M 3.902568,9.2435025 c -0.02431,-0.03711 -0.05259,-0.128648 -0.06284,-0.203426 -0.01564,-0.114204 -0.01028,-0.139161 0.0335,-0.155967 0.07048,-0.02705 0.14902,0.07381 0.174385,0.223946 0.03053,0.180698 -0.06,0.265236 -0.145045,0.135447 z m 0.271816,-0.003 c -0.02563,-0.05624 -0.02111,-0.09251 0.02248,-0.180135 0.0701,-0.140952 0.135103,-0.182401 0.200689,-0.127967 0.03462,0.02873 0.04454,0.06819 0.0338,0.134383 -0.03457,0.213056 -0.190896,0.318735 -0.256969,0.173719 z m -1.143996,0.0028 c -0.01458,-0.03048 -0.01315,-0.190515 0.0033,-0.376037 0.03036,-0.342123 0.04965,-0.381455 0.206378,-0.420809 0.09503,-0.02385 0.114178,0.01034 0.05667,0.101133 -0.02735,0.04317 -0.07092,0.124391 -0.09684,0.180493 -0.02593,0.0561 -0.06479,0.121926 -0.08638,0.14628 -0.02166,0.02442 -0.0434,0.128916 -0.04851,0.233146 -0.0065,0.133407 -0.01671,0.17328 -0.03462,0.135794 z m 0.303037,-0.437363 c 0,-0.06692 0.224673,-0.262203 0.278084,-0.241706 0.03984,0.01529 0.04229,0.02697 0.01307,0.06219 -0.0198,0.02385 -0.05376,0.04337 -0.07547,0.04337 -0.02172,0 -0.06024,0.03168 -0.08561,0.07041 -0.05314,0.0811 -0.130068,0.119979 -0.130068,0.06573 z m 1.04915,-0.01958 c -0.06839,-0.03744 -0.161453,-0.05624 -0.282425,-0.05707 -0.196259,-0.0014 -0.26135,-0.04257 -0.140006,-0.0887 0.179393,-0.0682 0.496539,0.01198 0.566821,0.14329 0.04195,0.0784 -0.0043,0.07919 -0.14439,0.0025 z m 0.174858,-0.233143 c 0,-0.03756 0.01477,-0.05822 0.03643,-0.051 0.02005,0.0067 0.03643,0.02963 0.03643,0.051 0,0.02139 -0.01638,0.04432 -0.03643,0.051 -0.02166,0.0072 -0.03643,-0.01343 -0.03643,-0.051 z M 3.158566,8.0897255 c 0.274549,-0.101369 1.29428,-0.08032 1.50811,0.03114 0.07738,0.04033 0.11758,0.01411 0.06869,-0.0448 -0.176002,-0.212068 -1.619083,-0.190737 -1.893008,0.02798 -0.0056,0.0045 -8.2e-4,0.02338 0.01069,0.04197 0.02357,0.03814 0.07579,0.02852 0.305504,-0.05629 z m 3.96491,3.2614145 c -0.0553,-0.0134 -0.125243,-0.05826 -0.15543,-0.0997 -0.03019,-0.04144 -0.07438,-0.07535 -0.0982,-0.07535 -0.02825,0 -0.04007,-0.02281 -0.03398,-0.06557 0.0067,-0.0469 0.02593,-0.06302 0.0676,-0.05662 0.03205,0.0049 0.106119,0.0077 0.164598,0.0063 0.05848,-0.0014 0.17651,0.02401 0.262288,0.05661 0.185806,0.07062 0.447739,0.08012 0.471917,0.01712 0.01644,-0.04284 0.245546,-0.120031 0.273446,-0.09213 0.0084,0.0084 0.0077,0.03487 -0.0016,0.05889 -0.01474,0.03842 -0.07585,0.07836 -0.322125,0.210586 -0.08192,0.04398 -0.501722,0.07062 -0.62859,0.03989 z m 1.485649,-0.130363 c -0.02442,-0.02942 -0.08765,-0.04469 -0.185063,-0.04469 -0.219868,0 -0.135972,-0.05113 0.171678,-0.10462 0.167853,-0.02919 0.281662,-0.06522 0.320458,-0.101465 0.07286,-0.06806 0.124697,-0.07073 0.210209,-0.01083 0.07627,0.05342 0.08229,0.107803 0.01895,0.171131 -0.03573,0.03573 -0.08083,0.04169 -0.20501,0.0271 -0.138351,-0.01624 -0.168046,-0.01042 -0.226681,0.04468 -0.05985,0.05623 -0.07166,0.05834 -0.104557,0.01871 z M 9.416248,10.993428 C 9.045913,10.603805 8.81344,10.330025 8.812784,10.28274 c -2.74e-4,-0.02092 0.05552,-0.03406 0.147562,-0.03478 0.08141,-5.47e-4 0.166912,-0.01682 0.189999,-0.03598 0.02308,-0.01917 0.126045,-0.03671 0.2288,-0.03901 0.137471,-0.0031 0.202759,-0.0186 0.247146,-0.05876 0.08406,-0.07607 0.07527,-0.1250715 -0.02645,-0.1474125 -0.136262,-0.02993 -0.198955,0.0019 -0.18166,0.092441 0.01321,0.06911 0.0077,0.07487 -0.05516,0.05804 -0.03841,-0.01028 -0.08607,-0.01887 -0.105917,-0.01909 -0.01996,-2.22e-4 -0.03299,-0.02969 -0.02914,-0.06597 0.0064,-0.060571 -0.0064,-0.066311 -0.167915,-0.07523 -0.09617,-0.0053 -0.378132,0.0051 -0.626577,0.02311 -0.373866,0.027131 -0.499432,0.025411 -0.728577,-0.01 -0.152272,-0.02349 -0.391609,-0.05147 -0.531859,-0.06216 -0.254855,-0.01942 -0.255002,-0.01939 -0.255002,0.05022 0,0.0383 -0.01463,0.084262 -0.03249,0.1021375 -0.04492,0.04493 0.118093,0.127525 0.206203,0.104481 0.05715,-0.01496 0.06339,-0.0088 0.04616,0.04547 -0.01542,0.04863 -0.0047,0.06875 0.04768,0.08945 0.05563,0.02199 0.07917,0.01293 0.133021,-0.05119 0.03599,-0.04285 0.06549,-0.104336 0.06557,-0.136645 1.37e-4,-0.05529 0.01343,-0.05775 0.226002,-0.0418 0.124224,0.0093 0.256748,0.03367 0.294502,0.05412 0.042,0.02275 0.107888,0.02981 0.16978,0.01821 0.05998,-0.01124 0.117129,-0.0057 0.140422,0.01362 0.02848,0.02363 0.0711,0.02404 0.154957,0.0014 0.06362,-0.01712 0.135746,-0.02344 0.160277,-0.01403 0.02768,0.01061 0.05738,-0.0068 0.0783,-0.04585 0.03018,-0.05639 0.04943,-0.06097 0.184381,-0.04387 0.08288,0.0105 0.173631,0.0256 0.201682,0.03352 0.14025,0.03967 -0.03016,0.107749 -0.262288,0.104779 -0.178988,-0.0022 -0.167472,0.0743 0.02914,0.193781 0.06011,0.03653 0.109286,0.08361 0.109286,0.104628 0,0.07865 -0.09701,0.0724 -0.251934,-0.01625 -0.08784,-0.05025 -0.178449,-0.08266 -0.203859,-0.07291 -0.02516,0.0097 -0.09734,0.0022 -0.160416,-0.01679 -0.09412,-0.0282 -0.141888,-0.02598 -0.266521,0.01233 -0.10959,0.03369 -0.200512,0.04107 -0.326707,0.02653 -0.161677,-0.01862 -0.521852,0.0022 -0.678607,0.03918 -0.03663,0.0086 -0.0784,0.04676 -0.09282,0.08469 -0.01441,0.03793 -0.06709,0.08935 -0.117031,0.114266 -0.07844,0.03914 -0.09259,0.03955 -0.10389,0.0031 -0.0072,-0.02322 -0.01961,-0.06286 -0.02757,-0.08809 -0.01912,-0.06054 -0.113194,-0.04084 -0.126143,0.02642 -0.0056,0.029 0.02377,0.101683 0.06524,0.161518 0.07831,0.113005 0.09529,0.191918 0.04763,0.221372 -0.04068,0.02513 -0.496818,-0.218063 -0.496818,-0.264889 0,-0.02188 -0.03934,-0.07486 -0.08743,-0.117706 -0.04809,-0.04284 -0.08743,-0.09451 -0.08743,-0.114813 0,-0.0467 -0.153364,-0.157452 -0.218028,-0.157452 -0.0268,0 -0.08513,-0.03607 -0.129611,-0.08014 -0.09697,-0.0961 -0.406911,-0.3376595 -0.490988,-0.3826555 -0.04885,-0.02614 -0.06268,-0.06873 -0.07441,-0.22909 -0.0079,-0.108337 -0.01884,-0.22976 -0.02426,-0.269834 -0.0082,-0.06077 0.0034,-0.07439 0.07029,-0.08208 0.0471,-0.0054 0.08014,0.0049 0.08014,0.02494 0,0.01879 0.03279,0.05996 0.07286,0.09148 0.04007,0.03152 0.07286,0.07603 0.07286,0.09891 0,0.05732 0.07701,0.05251 0.09954,-0.0062 0.02322,-0.06052 -0.05033,-0.175026 -0.128334,-0.199781 -0.09798,-0.0311 -0.03547,-0.07297 0.108939,-0.07297 0.12389,0 0.130341,0.0034 0.07842,0.04155 -0.05514,0.0405 -0.05455,0.04366 0.02357,0.125452 0.04408,0.04615 0.08014,0.104732 0.08014,0.130191 0,0.05306 0.05803,0.08126 0.169955,0.08259 0.07347,8.21e-4 0.07474,0.0032 0.02308,0.04234 -0.05329,0.04035 -0.05313,0.04406 0.0063,0.144789 0.06744,0.114307 0.04452,0.137427 -0.04174,0.0421 -0.07538,-0.08329 -0.181526,-0.134815 -0.303001,-0.14707 -0.08271,-0.0083 -0.103463,5.47e-4 -0.112516,0.04805 -0.0061,0.03206 -0.02563,0.06743 -0.04339,0.07861 -0.02133,0.01343 -0.0086,0.04555 0.0376,0.09471 0.07997,0.08512 0.124661,0.0929 0.1763,0.03068 0.05044,-0.06077 0.153212,-0.05456 0.241096,0.01458 0.04075,0.03205 0.09098,0.058281 0.111621,0.058281 0.02065,0 0.07475,0.03566 0.120247,0.07925 0.06959,0.06668 0.09147,0.07379 0.137816,0.04485 0.04343,-0.02713 0.07353,-0.02521 0.142172,0.009 0.04789,0.0239 0.170521,0.05123 0.272508,0.06076 0.150183,0.01403 0.192898,0.0083 0.224701,-0.03 0.06406,-0.07719 -0.0089,-0.135871 -0.161677,-0.13009 -0.105003,0.004 -0.143925,-0.0102 -0.214924,-0.078212 -0.04768,-0.04569 -0.0867,-0.113394 -0.0867,-0.150467 0,-0.05582 -0.0154,-0.0674 -0.08952,-0.0674 -0.04924,0 -0.146507,-0.0334 -0.216152,-0.07421 -0.115855,-0.0679 -0.124645,-0.08112 -0.103327,-0.15545 0.01313,-0.04574 0.01116,-0.102944 -0.0045,-0.130894 -0.04737,-0.08464 -0.01,-0.124472 0.05051,-0.05382 0.03045,0.03556 0.07539,0.06494 0.09988,0.06529 0.02448,2.73e-4 0.100478,0.02604 0.168867,0.05708 0.09685,0.04396 0.128293,0.07617 0.142189,0.145645 0.0207,0.103584 0.161179,0.233603 0.252992,0.23418 0.03484,2.19e-4 0.09285,0.0083 0.128909,0.01797 0.03606,0.0097 0.06557,0.0057 0.06557,-0.0087 0,-0.03425 -0.377569,-0.346849 -0.566719,-0.469199 -0.274743,-0.177714 -0.545681,-0.501719 -0.873884,-1.045042 -0.296938,-0.49157 -0.297655,-1.029618 -0.0016,-1.289458 0.185533,-0.1629 0.375414,-0.236865 0.606845,-0.23639 0.114893,2.38e-4 0.241679,0.0169 0.281752,0.03703 0.214029,0.107508 0.375537,0.579532 0.335201,0.979663 -0.03242,0.321634 -0.03243,0.36617 -5.7e-5,0.376232 0.01603,0.005 0.03993,-0.04092 0.05311,-0.102001 0.01318,-0.06108 0.06518,-0.248759 0.115557,-0.417059 0.08474,-0.28315 0.09105,-0.333823 0.08436,-0.678511 -0.01009,-0.520925 0.03052,-0.603837 0.514006,-1.049218 0.352874,-0.325063 0.784794,-0.55676 1.185546,-0.635965 0.132975,-0.02628 0.158882,-0.02177 0.296317,0.05173 0.205462,0.109858 0.257705,0.219056 0.21205,0.443232 -0.01835,0.09013 -0.06052,0.193321 -0.0937,0.229322 -0.08286,0.08991 -0.05554,0.102425 0.112388,0.05148 0.151642,-0.046 0.958506,-0.06424 0.983235,-0.02223 0.0071,0.01201 0.02199,0.06441 0.03315,0.116424 0.018,0.08387 0.01162,0.09786 -0.05631,0.12369 -0.05466,0.02079 -0.103092,0.08551 -0.169102,0.226006 -0.116107,0.247112 -0.130022,0.508416 -0.03393,0.637278 0.118751,0.159251 0.205204,0.20076 0.417973,0.200678 0.210461,-8.2e-5 0.24705,-0.0175 0.550612,-0.26199 0.06888,-0.05548 0.147455,-0.113304 0.174615,-0.128504 0.02716,-0.0152 0.03983,-0.03718 0.02816,-0.04885 -0.01168,-0.01168 -0.142702,0.03826 -0.291187,0.110954 -0.335269,0.164141 -0.406732,0.181477 -0.526091,0.127618 -0.05148,-0.02322 -0.12281,-0.05062 -0.158518,-0.06088 -0.04508,-0.01294 -0.07474,-0.0551 -0.09704,-0.137944 -0.09059,-0.336418 0.244121,-0.850575 0.656419,-1.008354 0.31524,-0.120636 0.503225,-0.06917 0.741877,0.203109 l 0.118909,0.135666 -0.03321,0.214051 c -0.0224,0.144448 -0.02519,0.327776 -0.0086,0.563769 0.01354,0.192345 0.02813,0.310375 0.03241,0.262288 0.0043,-0.04809 0.02199,-0.205458 0.03935,-0.349717 0.01737,-0.144256 0.03475,-0.334416 0.03862,-0.422573 0.01485,-0.338163 0.298513,-0.765292 0.592802,-0.892565 0.06094,-0.02636 0.176379,-0.07858 0.25652,-0.116044 0.234593,-0.109674 0.401282,-0.132655 0.743148,-0.102454 0.316454,0.02795 0.503324,0.08463 0.772291,0.234245 0.27111,0.150803 0.511331,0.187893 1.099284,0.169731 0.413397,-0.01277 0.525074,-0.0082 0.536598,0.0218 0.0204,0.05314 -0.183971,0.448901 -0.277999,0.538362 -0.188941,0.179768 -0.200244,0.215638 -0.232974,0.739243 -0.01676,0.267985 -0.05289,0.604233 -0.08029,0.747215 l -0.04984,0.259971 0.255544,0.530358 c 0.299397,0.621375 0.320193,0.69827 0.208623,0.771372 -0.0675,0.04423 -0.122752,0.04848 -0.418635,0.03222 -0.187482,-0.01031 -0.396135,-0.0319 -0.463674,-0.048 -0.09216,-0.02196 -0.168512,-0.01849 -0.306002,0.01392 -0.210501,0.04963 -0.460062,0.05772 -0.460062,0.0149 0,-0.04625 -0.184359,-0.03382 -0.25742,0.01737 -0.08714,0.06104 -0.32375,0.05837 -0.446341,-0.005 -0.06348,-0.03283 -0.188339,-0.05311 -0.373382,-0.06066 -0.247862,-0.01012 -0.304872,-0.0022 -0.525724,0.07331 -0.136246,0.04656 -0.320805,0.09815 -0.410136,0.114646 -0.08933,0.01649 -0.266371,0.06906 -0.39343,0.116812 -0.304087,0.114291 -0.474081,0.148922 -0.935778,0.190647 -0.352469,0.03185 -0.450772,0.05367 -0.412818,0.091632 0.0078,0.0078 0.124713,-0.0053 0.259857,-0.029103 0.135146,-0.02379 0.296506,-0.04326 0.358575,-0.04328 0.0956,-3.3e-5 0.10746,0.0065 0.07757,0.04247 -0.07652,0.092201 0.203897,0.079811 0.703009,-0.03107 0.06205,-0.01378 0.09968,0.004 0.18943,0.089452 0.0616,0.05866 0.08577,0.09361 0.05371,0.07767 -0.168018,-0.08354 -0.334727,-0.09405 -0.56294,-0.0355 -0.123157,0.0316 -0.27338,0.06544 -0.333831,0.0752 -0.06045,0.0098 -0.152252,0.05375 -0.204001,0.09774 -0.108624,0.09234 -0.286682,0.205855 -0.232522,0.148238 0.05992,-0.06375 0.04207,-0.114529 -0.04028,-0.114529 -0.0793,0 -0.240272,0.08376 -0.350997,0.182628 -0.06492,0.05796 -0.126018,0.04807 -0.126018,-0.02043 0,-0.04321 -0.150907,-0.08214 -0.218252,-0.0563 -0.07144,0.02741 -0.05143,0.0977 0.07416,0.260475 0.135253,0.175312 0.15729,0.187333 0.343389,0.187333 0.07493,0 0.175496,0.01088 0.223476,0.02417 0.05509,0.01526 0.232221,0.0048 0.480668,-0.02827 0.62434,-0.08323 1.051874,-0.118806 1.211284,-0.100789 l 0.147562,0.01668 0.04915,-0.111409 c 0.06505,-0.147425 0.06292,-0.163634 -0.03099,-0.237003 -0.109073,-0.08521 -0.025,-0.03897 0.176387,0.09701 0.168897,0.114046 0.213584,0.208242 0.129614,0.273218 -0.04471,0.03459 -0.421648,0.112592 -0.735863,0.15227 -0.12823,0.01619 -0.423303,0.05541 -0.655718,0.08716 -0.232416,0.03174 -0.553719,0.07103 -0.714004,0.0873 -0.160287,0.01627 -0.354079,0.03831 -0.430649,0.04898 l -0.139218,0.01939 z M 6.468318,10.56083 c 0.03841,-0.06216 -0.172307,-0.144109 -0.227816,-0.0886 -0.02338,0.02338 -0.005,0.04387 0.06771,0.07541 0.122137,0.053 0.13486,0.05404 0.16011,0.01318 z M 9.656663,9.3233465 c 0.01704,-0.06219 0.101391,-0.199519 0.177684,-0.28927 0.02724,-0.03206 0.05708,-0.130415 0.06629,-0.218572 0.0268,-0.25646 0.06967,-0.440177 0.142821,-0.612006 0.173669,-0.40793 0.228406,-0.458065 0.561747,-0.51449 0.115207,-0.0195 0.15839,0.03131 0.274117,0.322553 l 0.09164,0.230632 -0.04669,0.317245 c -0.02568,0.174484 -0.04137,0.332985 -0.03487,0.352228 0.01892,0.05601 0.09672,-0.12456 0.1356,-0.314737 0.0325,-0.159002 0.02931,-0.199961 -0.03527,-0.451715 -0.03906,-0.152275 -0.07207,-0.306964 -0.07335,-0.343758 -0.0029,-0.08345 -0.144795,-0.259392 -0.229028,-0.284005 -0.06482,-0.01895 -0.195432,0.03459 -0.455459,0.186664 -0.166192,0.0972 -0.331194,0.329212 -0.389036,0.547029 -0.02185,0.08231 -0.043,0.279171 -0.04699,0.437478 l -0.0072,0.287829 -0.139101,0.170734 c -0.111435,0.136782 -0.132299,0.178928 -0.10491,0.211929 0.04335,0.05223 0.09223,0.03663 0.112062,-0.03577 z m -2.184924,-0.0091 c 0.333782,-0.07354 0.562527,-0.101741 0.845149,-0.104178 0.265206,-0.0022 0.323485,-0.01206 0.437146,-0.07321 0.165684,-0.08915 0.08683,-0.118882 -0.08407,-0.03169 -0.138007,0.07041 -0.201121,0.07389 -0.278502,0.01537 -0.07433,-0.05622 -0.13981,-0.05356 -0.356872,0.0145 -0.09916,0.03109 -0.282767,0.06484 -0.408005,0.075 -0.281519,0.02284 -0.417133,0.06221 -0.417133,0.121092 0,0.03195 0.01887,0.04013 0.06557,0.02844 0.03606,-0.009 0.124587,-0.02941 0.196715,-0.04531 z m 5.701617,-0.347823 c 0.17965,-0.09069 0.296536,-0.201474 0.415285,-0.393611 0.05219,-0.08445 0.06796,-0.15537 0.07148,-0.321445 0.0043,-0.200971 -0.0016,-0.222447 -0.10473,-0.377708 -0.07858,-0.118409 -0.148118,-0.184051 -0.247717,-0.233824 -0.206859,-0.103379 -0.278175,-0.112062 -0.502085,-0.06113 -0.231702,0.0527 -0.308222,0.122585 -0.455137,0.415678 -0.069,0.137657 -0.08303,0.202631 -0.08378,0.387956 -8.2e-4,0.218298 0.0019,0.226536 0.137608,0.425444 0.07618,0.111559 0.167983,0.217875 0.204004,0.236253 0.109991,0.05613 0.371207,0.02024 0.56507,-0.07761 z m -0.516229,-0.19406 c -0.04121,-0.0224 -0.111884,-0.09407 -0.157047,-0.159237 -0.07102,-0.10249 -0.07988,-0.137351 -0.06557,-0.258161 0.0253,-0.21365 0.07406,-0.29003 0.2555,-0.400249 0.385462,-0.234155 0.711704,-0.04855 0.655771,0.373087 -0.02614,0.197166 -0.08234,0.296932 -0.225707,0.40079 -0.135152,0.0979 -0.329595,0.11629 -0.462947,0.04377 z m -3.485833,0.16005 C 9.39679,8.7894075 9.56895,8.4578105 9.524547,8.2520045 9.495837,8.1189395 9.412729,7.9668235 9.322865,7.8828705 c -0.07172,-0.067 -0.09948,-0.07275 -0.345265,-0.07158 -0.298464,0.0014 -0.706239,0.03111 -0.743441,0.0541 -0.01335,0.0083 -0.07561,0.01712 -0.138349,0.01969 -0.161061,0.0066 -0.287858,0.04877 -0.348604,0.115896 -0.05173,0.05716 -0.0511,0.05726 0.07662,0.01217 0.147611,-0.05212 0.449511,-0.08315 0.828206,-0.08513 0.280767,-0.0014 0.572468,0.07991 0.669054,0.186634 0.06371,0.0704 0.06439,0.228842 0.0014,0.351206 -0.06886,0.133976 -0.300419,0.428545 -0.352619,0.448578 -0.05949,0.02284 -0.05047,0.105017 0.01151,0.105017 0.02892,0 0.11434,-0.03917 0.189821,-0.08704 z m -1.918081,-0.55403 c 0.0099,-0.01603 0.0041,-0.02914 -0.01285,-0.02914 -0.01698,0 -0.03086,0.01313 -0.03086,0.02914 0,0.01603 0.0058,0.02914 0.01285,0.02914 0.0071,0 0.02095,-0.01313 0.03087,-0.02914 z m 6.059471,-1.410605 c 0.348831,-0.145752 0.604348,-0.629136 0.469945,-0.88904 -0.135762,-0.262534 -0.815908,-0.305241 -1.096817,-0.06887 -0.126034,0.106051 -0.17228,0.231352 -0.17228,0.466798 0,0.290662 0.07362,0.368224 0.451718,0.47588 0.223519,0.06365 0.230799,0.06397 0.347434,0.01523 z m -0.419103,-0.297734 c -0.198206,-0.16678 -0.219879,-0.355359 -0.06085,-0.529469 0.26985,-0.29545 0.70081,-0.137741 0.70081,0.256461 0,0.170075 -0.07621,0.277097 -0.227184,0.319027 -0.186432,0.05178 -0.313363,0.03763 -0.412774,-0.04602 z m -0.556743,3.7607125 c -0.02098,-0.02527 -0.136426,-0.09988 -0.25658,-0.165828 -0.120157,-0.06595 -0.258706,-0.15478 -0.307883,-0.197404 -0.04918,-0.04263 -0.128602,-0.09597 -0.176492,-0.1185415 -0.154503,-0.07281 -0.126802,-0.127101 0.08769,-0.171861 0.10573,-0.02207 0.198796,-0.05073 0.206815,-0.06371 0.02152,-0.03482 0.140132,-0.02866 0.178036,0.0092 0.02092,0.02092 0.06273,0.02431 0.115117,0.0094 0.04525,-0.01291 0.134733,-0.02081 0.198848,-0.01756 0.06412,0.0033 0.136243,-0.0076 0.160288,-0.02418 0.03726,-0.02562 0.03295,-0.03898 -0.02914,-0.09036 l -0.07286,-0.06029 0.07286,0.01441 c 0.04007,0.0079 0.125318,0.03435 0.18943,0.05871 0.08346,0.0317 0.174697,0.0396 0.32121,0.0278 0.154637,-0.01244 0.212276,-0.0067 0.235905,0.02366 0.114192,0.146594 0.04782,0.242991 -0.16075,0.233474 -0.114583,-0.0052 -0.168312,0.0073 -0.226246,0.0529 -0.04179,0.03287 -0.09287,0.05976 -0.113525,0.05976 -0.02065,0 -0.07652,0.03279 -0.124136,0.07286 -0.04762,0.04007 -0.09453,0.07286 -0.104237,0.07286 -0.0393,0 -0.01398,-0.08172 0.04064,-0.131142 0.06971,-0.06309 0.07657,-0.1761785 0.0122,-0.2008845 -0.08526,-0.03271 -0.130048,-0.01811 -0.15633,0.05103 -0.01436,0.0378 -0.08075,0.09719 -0.147502,0.1319815 -0.118322,0.06167 -0.121746,0.06185 -0.136082,0.007 -0.0083,-0.031731 -0.04848,-0.062871 -0.09221,-0.071461 -0.144809,-0.02844 -0.124598,0.02947 0.05516,0.1580595 0.288649,0.206478 0.348205,0.261257 0.348205,0.320258 0,0.06746 -0.06601,0.07291 -0.11841,0.0098 z M 7.180355,10.024968 c 0,-0.02672 0.01411,-0.04387 0.03133,-0.03813 0.01723,0.0057 0.03133,0.022891 0.03133,0.03813 0,0.01523 -0.01408,0.03238 -0.03133,0.03813 -0.01723,0.0057 -0.03133,-0.0114 -0.03133,-0.03813 z M 5.105717,9.1579595 c -0.06651,-0.05294 -0.09236,-0.297507 -0.03637,-0.343977 0.02691,-0.02234 0.04129,-0.07713 0.03742,-0.142629 -0.0034,-0.0585 0.004,-0.122911 0.01646,-0.143138 0.0125,-0.02024 0.0065,-0.07606 -0.01343,-0.12407 -0.02837,-0.0685 -0.02853,-0.09478 -8.21e-4,-0.122099 0.03958,-0.0389 0.07168,-0.0053 0.215419,0.225735 0.07892,0.126822 0.08281,0.197437 0.01039,0.188494 -0.0948,-0.0117 -0.111449,0.0039 -0.09313,0.08734 0.01069,0.04869 0.0054,0.09278 -0.01236,0.103786 -0.01704,0.01053 -0.02292,0.05111 -0.01313,0.0902 0.01999,0.07965 -0.0064,0.216789 -0.04175,0.216789 -0.01266,0 -0.04361,-0.01638 -0.06878,-0.03643 z m 0.331884,-0.289973 c -0.05375,-0.05375 -0.04189,-0.0816 0.03477,-0.0816 0.03835,0 0.0768,0.01841 0.08542,0.04087 0.02901,0.0756 -0.05638,0.104539 -0.120187,0.04073 z M 4.878052,7.7936855 c -0.02404,-0.01504 -0.0765,-0.03887 -0.116572,-0.05297 -0.07069,-0.02486 -0.07276,-0.03332 -0.06947,-0.284128 0.0042,-0.321366 0.06596,-1.693152 0.08509,-1.890513 0.0078,-0.08014 0.02598,-0.293173 0.04048,-0.4734 0.02972,-0.369605 0.07811,-0.482517 0.259638,-0.605866 0.111859,-0.07601 0.242121,-0.09103 0.369509,-0.04259 0.05634,0.02141 0.118297,0.01731 0.230559,-0.01534 0.272697,-0.07928 0.620109,-0.105785 0.738428,-0.05635 0.111887,0.04675 0.259517,0.03926 0.589774,-0.02992 0.249478,-0.05226 0.870339,-0.111294 1.25315,-0.119151 0.37123,-0.0076 0.381868,-0.0092 0.296277,-0.04349 -0.09649,-0.03867 -0.06219,-0.10019 0.05587,-0.10019 0.08452,0 0.09922,0.0099 0.09726,0.06557 -0.0014,0.03606 0.01184,0.06757 0.02914,0.07002 0.143509,0.02029 0.397708,0.0087 0.825518,-0.03752 0.537151,-0.05809 1.296317,-0.06937 1.809232,-0.02688 0.431795,0.03576 0.478916,0.09072 0.513724,0.599106 0.03087,0.450843 0.02511,0.817024 -0.01406,0.891884 -0.03949,0.07552 -0.27949,0.346679 -0.340216,0.384392 -0.02262,0.01406 -0.08004,-0.006 -0.146324,-0.051 -0.06,-0.04077 -0.126967,-0.07412 -0.148823,-0.07412 -0.02185,0 -0.0811,-0.02951 -0.131665,-0.06557 -0.14281,-0.101866 -0.416647,-0.09044 -0.645644,0.02694 -0.242182,0.124131 -0.448587,0.165372 -0.57371,0.11463 -0.05312,-0.02155 -0.213567,-0.0477 -0.356546,-0.05813 -0.142982,-0.01042 -0.275642,-0.03197 -0.2948,-0.04787 -0.01914,-0.01589 -0.04321,-0.09 -0.05344,-0.164661 -0.02445,-0.178414 -0.132907,-0.358655 -0.275095,-0.45719 -0.08811,-0.06106 -0.16215,-0.08346 -0.319438,-0.09665 l -0.204745,-0.01717 -0.458555,0.27355 c -0.634967,0.378789 -1.064322,0.765013 -1.181405,1.062723 -0.01841,0.04682 -0.0378,0.215996 -0.04309,0.375952 -0.0053,0.159957 -0.0221,0.294997 -0.03738,0.300086 -0.01526,0.0051 -0.06525,-0.05199 -0.11108,-0.126849 C 6.430028,6.8256315 6.350081,6.7561925 6.164258,6.6862735 5.89649,6.5855255 5.67486,6.6453935 5.275424,6.9263715 c -0.213201,0.149975 -0.258019,0.247031 -0.279162,0.604561 -0.01616,0.273211 -0.0349,0.314879 -0.118237,0.262762 z"
       id="path1" /></g></svg>
