<?xml version="1.0" encoding="UTF-8" standalone="no"?>
<!-- Created with Inkscape (http://www.inkscape.org/) -->

<svg
   width="16"
   height="16"
   viewBox="0 0 16 16"
   version="1.1"
   id="svg1"
   xml:space="preserve"
   inkscape:export-filename="bitmap.png"
   inkscape:export-xdpi="96"
   inkscape:export-ydpi="96"
   xmlns:inkscape="http://www.inkscape.org/namespaces/inkscape"
   xmlns:sodipodi="http://sodipodi.sourceforge.net/DTD/sodipodi-0.dtd"
   xmlns="http://www.w3.org/2000/svg"
   xmlns:svg="http://www.w3.org/2000/svg"><sodipodi:namedview
     id="namedview1"
     pagecolor="#505050"
     bordercolor="#eeeeee"
     borderopacity="1"
     inkscape:showpageshadow="0"
     inkscape:pageopacity="0"
     inkscape:pagecheckerboard="0"
     inkscape:deskcolor="#505050"
     inkscape:document-units="px"><inkscape:page
       x="0"
       y="0"
       width="16"
       height="16"
       id="page2"
       margin="0"
       bleed="0" /></sodipodi:namedview><defs
     id="defs1" /><g
     inkscape:label="Capa 1"
     inkscape:groupmode="layer"
     id="layer1"><path
       style="fill:#131313;stroke-width:0.0180284"
       d="m 10.009343,14.981473 c -0.02591,-0.06752 0.1036,-0.109373 0.182995,-0.05913 0.02859,0.01808 0.02914,0.02831 0.0032,0.05973 -0.04141,0.04992 -0.166829,0.04951 -0.186062,-4.61e-4 z m 1.208254,-0.06458 c -0.07025,-0.05227 -0.03195,-0.107663 0.08664,-0.12536 0.141721,-0.02117 0.31417,-0.006 0.325532,0.02859 0.0267,0.08125 -0.322765,0.163306 -0.412172,0.09678 z M 1.0435633,14.814133 c -0.00991,-0.02578 0.065636,-0.118785 0.2411335,-0.296879 0.1405492,-0.142629 0.2571622,-0.279872 0.2591312,-0.304985 0.0018,-0.02513 0.0014,-0.364759 -0.0018,-0.754775 -0.0048,-0.644304 -4.61e-4,-0.730949 0.04584,-0.947961 0.02813,-0.13136 0.05654,-0.247645 0.0632,-0.258407 0.02481,-0.04016 0.112804,-0.01725 0.214693,0.05593 0.09708,0.06972 0.122072,0.07602 0.326344,0.08237 0.202791,0.0063 0.227581,0.0018 0.297695,-0.05146 0.08365,-0.0638 0.154544,-0.07429 0.199346,-0.02951 0.02246,0.02246 0.02887,0.02043 0.02887,-0.0091 0,-0.06115 -0.06877,-0.105536 -0.116921,-0.07547 -0.0225,0.01407 -0.07416,0.03283 -0.114801,0.04178 -0.153636,0.03375 -0.529107,-0.147365 -0.762001,-0.36755 -0.113629,-0.107422 -0.292921,-0.455785 -0.3407673,-0.66209 -0.049607,-0.2139 -0.051046,-0.502113 -0.00323,-0.666069 C 1.4659627,10.27561 1.810539,9.8724063 2.171896,9.6436683 2.451261,9.466828 2.567666,9.425844 2.878918,9.394728 c 0.258762,-0.02587 0.300304,-0.02283 0.656487,0.04834 0.353647,0.07064 0.57112,0.1953393 0.777937,0.4460693 0.172224,0.2087947 0.220065,0.3665167 0.218355,0.7198177 -0.0014,0.23915 -0.0098,0.289684 -0.09001,0.528831 -0.110263,0.328603 -0.161111,0.522283 -0.161111,0.613695 0,0.195907 -0.118079,0.751607 -0.181686,0.855032 -0.01706,0.02776 -0.06977,0.06887 -0.117101,0.09133 -0.05642,0.02679 -0.103674,0.0756 -0.137239,0.141813 -0.0625,0.123289 -0.08084,0.136201 -0.194132,0.136666 -0.06564,2.59e-4 -0.111471,-0.01909 -0.172957,-0.07308 -0.06956,-0.06107 -0.09704,-0.07094 -0.163093,-0.05858 -0.0658,0.01231 -0.104587,-0.0014 -0.225954,-0.07987 -0.144962,-0.09374 -0.208938,-0.164951 -0.27391,-0.30492 -0.03288,-0.07084 -0.03366,-0.07109 -0.04302,-0.01439 -0.0053,0.03172 0.0081,0.1208 0.02974,0.197895 0.03592,0.128085 0.09988,0.632961 0.126384,0.997923 0.01356,0.186948 -0.05713,0.374139 -0.224575,0.594564 C 2.51841,14.478897 2.450021,14.502857 2.10515,14.445342 2.0126,14.429892 1.869716,14.410802 1.787622,14.402872 l -0.14926,-0.01439 -0.151215,0.163213 c -0.1482685,0.160041 -0.3334544,0.299931 -0.397052,0.299931 -0.017661,0 -0.038596,-0.01692 -0.046513,-0.03758 z M 1.901574,13.144592 c 0.05332,-0.02854 0.105177,-0.197701 0.08511,-0.277654 -0.01393,-0.05551 -0.0332,-0.06592 -0.174446,-0.09429 -0.181774,-0.03652 -0.235056,0.192956 -0.08065,0.347357 0.05442,0.05442 0.101525,0.06123 0.169987,0.02458 z m -0.12696,-0.09767 c -0.04999,-0.0291 -0.05555,-0.138709 -0.01019,-0.200748 0.07713,-0.105477 0.220332,0.06865 0.144962,0.176258 -0.03892,0.05558 -0.0713,0.06146 -0.134776,0.02449 z m 0.793274,0.0623 c 0.114003,-0.03279 0.127324,-0.204945 0.02333,-0.301812 -0.06632,-0.0618 -0.195418,-0.06127 -0.257743,9.22e-4 -0.08532,0.08532 -0.05257,0.268953 0.05566,0.3121 0.05177,0.02066 0.07192,0.01937 0.178739,-0.01134 z m -0.157473,-0.06518 c -0.05783,-0.05783 -0.0089,-0.211534 0.06731,-0.211534 0.03956,0 0.09615,0.07598 0.09615,0.129118 0,0.06283 -0.04187,0.111264 -0.09615,0.111264 -0.02117,0 -0.05144,-0.013 -0.06731,-0.02887 z m 1.310222,-0.440097 c 0.03325,-0.05871 0.05352,-0.133269 0.05223,-0.192099 l -0.0023,-0.09615 -0.03624,0.120191 c -0.03873,0.12844 -0.0701,0.180284 -0.109087,0.180284 -0.0386,0 -0.0041,-0.181631 0.058,-0.30724 0.03094,-0.06238 0.07003,-0.110641 0.08685,-0.107238 0.03647,0.0074 0.0711,-0.0765 0.109466,-0.26525 0.0439,-0.215998 0.07553,-0.167751 0.0831,0.126762 0.0037,0.145479 0.01646,0.264512 0.02831,0.264512 0.04099,0 0.1945,-0.482299 0.229522,-0.721136 0.0087,-0.05949 0.04187,-0.205558 0.07367,-0.324592 0.103397,-0.38706 0.100916,-0.588265 -0.01194,-0.967163 C 4.235638,10.15841 4.221668,10.138905 4.054014,9.9961793 3.840345,9.8142813 3.578392,9.6830833 3.37892,9.6580723 c -0.125554,-0.01572 -0.531879,0.01485 -0.564194,0.04247 -0.02315,0.01978 0.06191,0.05442 0.134518,0.05478 0.119974,4.61e-4 0.227968,0.02859 0.218603,0.05668 -0.0047,0.01425 -0.09441,0.0386 -0.19925,0.05409 -0.208057,0.03076 -0.334008,0.06982 -0.577023,0.1788547 -0.148974,0.06684 -0.202528,0.07309 -0.202528,0.02366 0,-0.05168 0.139581,-0.1779737 0.273638,-0.2475937 0.138354,-0.07185 0.142887,-0.07686 0.07686,-0.08485 -0.139918,-0.01692 -0.272803,0.04381 -0.445359,0.203575 -0.192924,0.1786147 -0.395664,0.4425137 -0.442971,0.5765887 -0.07779,0.220466 -0.06556,0.647357 0.02638,0.921032 0.06025,0.179334 0.25837,0.448781 0.398292,0.541678 0.172611,0.114593 0.250259,0.125844 0.422921,0.06127 0.132521,-0.04956 0.146539,-0.05055 0.215025,-0.01512 0.0403,0.02084 0.134315,0.11901 0.208938,0.21816 0.152811,0.203036 0.316098,0.353942 0.37122,0.343074 0.04155,-0.0082 0.04656,-0.139388 0.013,-0.34003 -0.02984,-0.178352 0.03749,-0.133679 0.08934,0.05928 0.03786,0.141002 0.109161,0.299051 0.170329,0.377672 0.03989,0.0513 0.09621,0.02223 0.153751,-0.07936 z M 3.184535,12.404252 C 3.133965,12.369672 3.052327,12.2307 3.067839,12.205601 c 0.01881,-0.03043 0.179094,0.114104 0.179094,0.161466 0,0.03897 -0.03195,0.058 -0.0624,0.03717 z M 3.06172,12.047105 c -0.01946,-0.0507 0.04238,-0.161387 0.0959,-0.171693 0.02859,-0.0055 0.04122,0.0078 0.04122,0.04348 0,0.11019 -0.106016,0.209312 -0.137137,0.128219 z m -0.283524,-0.08264 c -0.310735,-0.153018 -0.322914,-0.201523 -0.05071,-0.20198 0.19249,-3.18e-4 0.207808,-0.0041 0.299649,-0.07812 0.05324,-0.04279 0.102835,-0.07778 0.110222,-0.07778 0.06861,0 -0.126559,0.315904 -0.222071,0.359438 -0.06503,0.02965 -0.07394,0.02956 -0.137086,-0.0014 z M 2.078621,11.857868 c -0.0884,-0.115898 -0.05118,-0.157177 0.08595,-0.09534 0.126984,0.05726 0.160253,0.09705 0.120851,0.144524 -0.05212,0.0628 -0.136736,0.04265 -0.206799,-0.04918 z m 1.975167,0.06376 c -0.01757,-0.0284 0.0088,-0.09871 0.03703,-0.09871 0.02845,0 0.02767,0.08947 -9.22e-4,0.107146 -0.01231,0.0076 -0.02854,0.0037 -0.03615,-0.0084 z M 3.564936,11.746697 c -0.05267,-0.05267 -0.03472,-0.09438 0.03657,-0.08484 0.04584,0.0061 0.0661,0.02287 0.0661,0.05458 0,0.05419 -0.0608,0.07212 -0.102659,0.03025 z m -0.955008,-0.0817 c -0.103162,-0.05355 -0.198899,-0.150123 -0.27237,-0.274768 -0.05408,-0.09176 -0.06302,-0.132798 -0.05885,-0.270512 0.0066,-0.219009 0.04238,-0.338637 0.131479,-0.440148 0.138995,-0.158307 0.264378,-0.190157 0.425328,-0.108045 0.215643,0.110014 0.32734,0.347168 0.311477,0.66132 -0.0071,0.140683 -0.02149,0.192946 -0.07557,0.274671 -0.119739,0.180943 -0.298658,0.241996 -0.461494,0.157482 z m -0.72127,-0.08261 c -0.02402,-0.02651 -0.03657,-0.0553 -0.0279,-0.06395 0.01752,-0.01752 0.112177,0.05998 0.112177,0.09186 0,0.03509 -0.03892,0.02218 -0.08427,-0.0279 z m 1.66522,-0.04251 c -0.01655,-0.06329 0.05014,-0.27 0.09233,-0.28619 0.04574,-0.01757 0.201671,0.128837 0.201671,0.189345 0,0.0261 -0.01761,0.04334 -0.04436,0.04334 -0.02439,0 -0.06393,0.02163 -0.08786,0.04808 -0.05426,0.05996 -0.146724,0.06305 -0.161793,0.0054 z m 0.496898,-0.07983 c -0.02578,-0.04173 0.05478,-0.110198 0.08918,-0.0758 0.0213,0.0213 0.02066,0.03684 -0.0028,0.06507 -0.03624,0.04371 -0.06391,0.04712 -0.08641,0.01074 z M 3.94726,11.266537 C 3.893,11.246477 3.85473,11.183077 3.88101,11.1568 c 0.0083,-0.0083 0.04136,-9.22e-4 0.07354,0.01628 0.05307,0.02841 0.06773,0.02402 0.157316,-0.04693 0.05434,-0.04302 0.105167,-0.07188 0.112946,-0.0641 0.01485,0.01485 -0.03426,0.156167 -0.06729,0.193767 -0.02541,0.02891 -0.144639,0.035 -0.210261,0.0107 z M 3.842719,11.01276 C 3.682092,10.845028 3.61416,10.474859 3.710562,10.292629 c 0.09358,-0.176904 0.250845,-0.224584 0.36482,-0.110609 0.129976,0.12998 0.16236,0.230574 0.153299,0.476249 -0.0077,0.207458 -0.01333,0.229182 -0.08276,0.315139 -0.09921,0.12287 -0.209515,0.137188 -0.303205,0.03933 z M 2.549835,10.420562 c 0,-0.03546 0.0983,-0.08799 0.164588,-0.08799 0.04963,0 0.09983,0.04473 0.09983,0.08894 0,0.02186 -0.03975,0.03126 -0.132208,0.03126 -0.09445,0 -0.132208,-0.0092 -0.132208,-0.03219 z m 0.605363,-0.08116 c 0.0092,-0.04775 0.128667,-0.122142 0.154568,-0.09624 0.02269,0.02269 -0.08496,0.137483 -0.128879,0.137483 -0.01881,0 -0.03011,-0.01812 -0.02568,-0.04122 z m -1.183133,-0.05096 c 0.01582,-0.03089 0.03537,-0.04955 0.04344,-0.0415 0.0081,0.0081 -0.0049,0.03334 -0.02877,0.05614 -0.04155,0.03966 -0.04219,0.03901 -0.01466,-0.01466 z m 1.106601,-0.06032 c 0,-0.04348 0.07829,-0.111895 0.128095,-0.111895 0.05335,0 0.05068,0.02771 -0.0089,0.09162 -0.05476,0.05877 -0.119255,0.06974 -0.119255,0.02029 z M 3.715671,10.06815 c 0.02619,-0.05065 0.055,-0.07211 0.09677,-0.07211 0.03583,0 0.05948,0.01383 0.05948,0.03468 0,0.04279 -0.09153,0.109535 -0.150191,0.109535 -0.04044,0 -0.04081,-0.0048 -0.006,-0.07212 z M 3.359765,9.8845143 c -0.02504,-0.02504 0.0067,-0.05674 0.05685,-0.05674 0.02564,0 0.04666,0.01623 0.04666,0.03606 0,0.03564 -0.07379,0.0504 -0.103508,0.0207 z m 4.037056,4.8589237 c -0.06047,-0.06048 -0.009,-0.108091 0.116838,-0.108091 0.185905,0 0.190839,0.105896 0.0063,0.135841 -0.0588,0.0095 -0.09375,0.0018 -0.123166,-0.02776 z m 1.851853,0.0014 c -0.09815,-0.035 -0.125927,-0.06285 -0.223952,-0.22457 -0.0577,-0.09518 -0.06176,-0.119734 -0.05238,-0.316038 0.009,-0.189396 0.01785,-0.222873 0.07966,-0.303933 0.03823,-0.0501 0.10164,-0.119831 0.140951,-0.15495 0.08988,-0.08031 0.09607,-0.189807 0.01559,-0.275483 -0.08919,-0.09494 -0.128717,-0.09403 -0.346319,0.0079 -0.250296,0.11729 -0.392704,0.213249 -0.579342,0.390365 -0.169024,0.160406 -0.360278,0.28655 -0.434445,0.28655 -0.07496,0 -0.102276,-0.04459 -0.110881,-0.180893 -0.007,-0.110641 -0.01254,-0.120154 -0.07417,-0.127237 -0.0385,-0.0046 -0.138294,0.02536 -0.236504,0.07064 -0.175926,0.08109 -0.215131,0.07973 -0.271378,-0.0095 -0.01748,-0.02767 -0.01605,-0.06378 0.0048,-0.121367 0.02642,-0.07306 0.0231,-0.09603 -0.03062,-0.211396 -0.107353,-0.230611 -0.07244,-0.481317 0.120348,-0.864139 0.04519,-0.08972 0.09433,-0.170656 0.109212,-0.179855 0.01489,-0.0092 0.07658,0.01817 0.137095,0.06084 0.100963,0.07116 0.122331,0.07677 0.259191,0.06806 0.147494,-0.0094 0.171671,-0.02047 0.388494,-0.17807 0.05188,-0.03772 0.0554,-0.03569 0.120186,0.06938 0.09866,0.159981 0.253128,0.257365 0.408212,0.257365 0.24864,0 0.307723,-0.07317 0.178873,-0.221517 -0.112735,-0.129778 -0.128796,-0.175143 -0.09995,-0.282289 0.03329,-0.123645 0.127578,-0.233834 0.21686,-0.253445 0.100999,-0.02218 0.307521,0.04464 0.416152,0.134628 0.05054,0.04187 0.115441,0.12507 0.144229,0.184882 0.02877,0.05982 0.07055,0.120071 0.09282,0.133909 0.09251,0.05748 0.496354,-0.146825 0.535784,-0.27106 0.01651,-0.05206 0.224266,-0.194321 0.283774,-0.194321 0.06335,0 0.06785,-0.03744 0.0178,-0.147803 -0.05756,-0.126849 -0.06414,-0.369223 -0.01333,-0.490839 0.02444,-0.05851 0.06214,-0.09548 0.123469,-0.121108 0.07958,-0.03325 0.09966,-0.03316 0.203695,9.22e-4 0.06348,0.02075 0.130912,0.03777 0.14985,0.03777 0.01895,0 0.180709,-0.07596 0.359485,-0.168793 0.30991,-0.160927 0.325795,-0.172778 0.341109,-0.254414 0.0089,-0.04709 0.0093,-0.116622 9.22e-4,-0.154517 -0.01628,-0.0741 0.121764,-0.518253 0.207859,-0.668827 0.08041,-0.1406277 0.381361,-0.452562 0.497646,-0.515814 0.178799,-0.09725 0.467935,-0.184706 0.610624,-0.184706 0.07129,0 0.188368,0.01729 0.260178,0.03846 0.184918,0.0545 0.616785,0.2826753 0.735846,0.3887793 0.119015,0.106062 0.283004,0.3862157 0.330098,0.5639357 0.01844,0.06961 0.04655,0.159017 0.06244,0.198678 0.03454,0.08611 0.07597,0.327216 0.07646,0.4447 4.61e-4,0.114999 -0.15697,0.463172 -0.284618,0.629378 -0.199771,0.260118 -0.391131,0.373595 -0.819447,0.485938 -0.209934,0.05506 -0.28061,0.06295 -0.480754,0.05366 -0.261239,-0.01213 -0.313705,-0.02748 -0.511475,-0.149546 l -0.137211,-0.08469 -0.308747,0.131493 c -0.325634,0.138682 -0.342294,0.153691 -0.345209,0.311039 -0.0018,0.109184 -0.08852,0.209238 -0.180879,0.209238 -0.06269,0 -0.08153,0.03265 -0.03532,0.06124 0.03071,0.019 0.193684,-0.0373 0.397895,-0.13746 0.264748,-0.129838 0.453978,-0.09146 0.519185,0.105301 0.04113,0.124139 0.118826,0.159806 0.352558,0.161867 0.201962,0.0018 0.43243,-0.107159 0.655436,-0.309826 0.08807,-0.08005 0.169416,-0.145534 0.180755,-0.145534 0.01134,0 0.08531,0.04856 0.164375,0.107916 0.07952,0.0597 0.17061,0.108142 0.203852,0.108414 0.03306,2.58e-4 0.127998,-0.02333 0.210991,-0.0525 0.149375,-0.05246 0.151348,-0.05252 0.194897,-0.0063 0.110493,0.117406 0.19966,0.493016 0.163886,0.69038 -0.0196,0.10816 -0.01674,0.151095 0.01559,0.23181 0.05387,0.134628 0.04997,0.186099 -0.01937,0.255428 -0.06696,0.06696 -0.152276,0.07496 -0.292535,0.02744 -0.15512,-0.05257 -0.224113,-0.0074 -0.177217,0.115911 0.03209,0.0844 -0.0068,0.169914 -0.0991,0.217617 -0.06559,0.03394 -0.09166,0.03546 -0.175308,0.01051 -0.170522,-0.05094 -0.280951,-0.120195 -0.429893,-0.269598 -0.335585,-0.336627 -0.72637,-0.33546 -0.76907,0.0023 -0.01,0.07885 -0.03638,0.129271 -0.10532,0.201109 -0.124567,0.129782 -0.211756,0.162392 -0.434214,0.162392 -0.200891,0 -0.279356,-0.03375 -0.451054,-0.194145 -0.09216,-0.08607 -0.315277,-0.189926 -0.408644,-0.190207 -0.08597,-2.54e-4 -0.333408,0.112882 -0.4855,0.221987 -0.05998,0.04302 -0.230915,0.219572 -0.379852,0.392317 -0.2446329,0.283736 -0.2840549,0.319159 -0.407971,0.366576 -0.156163,0.05976 -0.339966,0.06655 -0.477154,0.01761 z m 0.458363,-0.223062 c 0.09482,-0.03435 0.314475,-0.234941 0.2871811,-0.262234 -0.0065,-0.0065 -0.06422,0.01508 -0.128376,0.04779 -0.3644971,0.185932 -0.4452621,0.208601 -0.5718161,0.160483 -0.08744,-0.03325 -0.08372,0.03431 0.0046,0.08077 0.07757,0.04086 0.253708,0.02933 0.408566,-0.02679 z m 2.405018,-0.575183 c 0.0546,-0.03445 0.148822,-0.167709 0.148997,-0.210713 0,-0.01222 -0.02426,3.7e-5 -0.05399,0.02725 -0.08086,0.07393 -0.185491,0.120518 -0.313922,0.139779 -0.124691,0.01868 -0.12631,0.03246 -0.0089,0.07549 0.0831,0.03043 0.142274,0.02218 0.227784,-0.03177 z M 8.145126,13.396297 c 0.02928,-0.02052 0.06459,-0.05849 0.07846,-0.08441 0.05172,-0.09664 -0.09859,-0.286946 -0.226636,-0.286946 -0.05815,0 -0.157906,0.102046 -0.181331,0.185481 -0.02988,0.106496 0.03777,0.192721 0.161401,0.205692 0.04923,0.0052 0.09522,0.01121 0.102189,0.01342 0.007,0.0023 0.03666,-0.01273 0.06592,-0.03325 z M 7.93913,13.356687 c -0.0615,-0.0615 -0.02011,-0.211534 0.05838,-0.211534 0.04427,0 0.10508,0.06953 0.10508,0.120191 0,0.05066 -0.06079,0.120186 -0.10508,0.120186 -0.01623,0 -0.04252,-0.013 -0.05838,-0.02887 z m -0.407441,-0.06224 c 0.09588,-0.08332 0.01471,-0.273749 -0.128906,-0.302476 -0.08658,-0.01729 -0.127283,0.0078 -0.181119,0.111955 -0.05056,0.09776 -0.02402,0.181123 0.07048,0.221499 0.08544,0.03652 0.175244,0.0249 0.239543,-0.03099 z m -0.221255,-0.0398 c -0.03836,-0.04622 -0.02324,-0.134287 0.02864,-0.166801 0.03302,-0.0207 0.05272,-0.01517 0.09446,0.02656 0.04533,0.04533 0.04881,0.06132 0.0249,0.113846 -0.0308,0.06761 -0.10306,0.08049 -0.147968,0.02638 z m 6.106107,-0.0142 c 0.06884,-0.03684 0.05805,-0.135523 -0.02379,-0.217345 -0.09278,-0.09278 -0.175535,-0.09181 -0.242941,0.0028 -0.09155,0.128565 -0.02402,0.233871 0.152534,0.237846 0.03721,9.22e-4 0.0886,-0.0097 0.114178,-0.02338 z m -0.177859,-0.06326 c -0.02716,-0.02716 -0.01775,-0.09684 0.01697,-0.125669 0.06769,-0.05618 0.164864,0.04099 0.108686,0.108686 -0.02882,0.03472 -0.09851,0.04418 -0.125673,0.01697 z m -0.940187,0.01393 c 0.0089,-0.01439 0.0037,-0.03864 -0.01162,-0.05389 -0.02098,-0.02098 -0.03297,-0.01928 -0.04921,0.007 -0.02292,0.03707 -0.01134,0.07306 0.02347,0.07306 0.01167,0 0.02845,-0.01176 0.03735,-0.02614 z m 1.728878,-0.0018 c 0.121929,-0.05555 0.100999,-0.203751 -0.03684,-0.260847 -0.134264,-0.05561 -0.248581,0.02264 -0.203755,0.139443 0.01273,0.03311 0.02568,0.02675 0.07589,-0.03744 0.0727,-0.0929 0.120744,-0.0982 0.15756,-0.01738 0.0374,0.08212 -0.03362,0.166275 -0.121652,0.144174 -0.05172,-0.013 -0.05533,-0.01005 -0.02818,0.02269 0.03726,0.04491 0.07421,0.04711 0.156947,0.0094 z m -2.492175,-0.04876 c 0.04021,-0.04021 0.03611,-0.115382 -0.0064,-0.115382 -0.03505,0 -0.08498,0.06972 -0.08498,0.11861 0,0.03449 0.0556,0.03251 0.09134,-0.0032 z M 9.349973,12.992173 c 0.02094,-0.02522 0.01692,-0.04579 -0.0172,-0.08796 -0.05122,-0.06326 -0.100404,-0.04652 -0.100404,0.03417 0,0.08922 0.06393,0.118448 0.117604,0.05378 z m 2.56813,-0.366184 c -0.008,-0.008 -0.02873,-0.0089 -0.04607,-0.0018 -0.01918,0.0077 -0.01346,0.01337 0.01453,0.01452 0.02531,9.23e-4 0.03952,-0.0047 0.03154,-0.01263 z m -0.711531,-0.255904 c 0.07284,-0.06025 0.120504,-0.164103 0.105882,-0.230689 -0.0113,-0.05141 -1.93e-4,-0.07833 0.05251,-0.126282 0.108778,-0.09914 0.201809,-0.148167 0.342722,-0.180612 0.07304,-0.01683 0.212042,-0.04926 0.308905,-0.0721 0.168115,-0.03961 0.179426,-0.03956 0.248889,0.0014 0.102148,0.06034 0.298626,0.108875 0.440361,0.108778 0.148232,-1.29e-4 0.113343,-0.02813 -0.107695,-0.08644 -0.0862,-0.02273 -0.186924,-0.0622 -0.223837,-0.08766 -0.0565,-0.03896 -0.100192,-0.04496 -0.276432,-0.03795 -0.191268,0.0077 -0.226954,0.01734 -0.413648,0.112527 -0.164149,0.08368 -0.422298,0.196235 -0.450219,0.196295 -0.0032,9e-6 -0.02661,-0.04127 -0.05233,-0.09174 -0.02573,-0.05046 -0.06382,-0.105873 -0.08462,-0.123133 -0.0208,-0.01725 -0.03781,-0.04616 -0.03781,-0.06423 0,-0.03329 0.283192,-0.186412 0.51051,-0.276013 0.144999,-0.05716 0.466529,-0.291455 0.483701,-0.352475 0.0065,-0.02306 0.01918,-0.07976 0.02822,-0.126029 0.009,-0.04627 0.05994,-0.168355 0.113094,-0.271295 0.122059,-0.236361 0.296819,-0.398805 0.525626,-0.488576 0.14274,-0.056 0.186966,-0.06233 0.3688,-0.05279 0.225547,0.01185 0.295864,0.04395 0.202127,0.09223 -0.03117,0.01605 -0.08641,0.05694 -0.122769,0.09085 -0.05554,0.0518 -0.06611,0.0814 -0.06611,0.185177 0,0.139558 0.04677,0.200827 0.18988,0.24876 0.265177,0.08882 0.459105,-0.05091 0.426034,-0.306967 -0.0196,-0.151866 0.0053,-0.186099 0.09971,-0.137253 0.182632,0.09444 0.273371,0.481124 0.181174,0.772063 -0.09018,0.284598 -0.254266,0.510317 -0.457587,0.62947 -0.13865,0.08126 -0.370699,0.151759 -0.499481,0.151759 -0.05723,0 -0.122082,0.0069 -0.144105,0.01536 -0.07578,0.0291 0.01711,0.056 0.194602,0.05638 0.266883,4.61e-4 0.602735,-0.137723 0.768826,-0.316591 0.09794,-0.105472 0.216279,-0.299595 0.24639,-0.404177 0.01333,-0.04627 0.04774,-0.148872 0.07648,-0.227996 0.06965,-0.191775 0.05041,-0.381743 -0.06561,-0.647592 -0.105463,-0.24165 -0.115543,-0.254008 -0.207974,-0.254991 -0.04436,-4.47e-4 -0.114607,-0.02974 -0.17133,-0.07143 -0.05288,-0.03883 -0.119088,-0.08749 -0.147125,-0.108096 -0.08492,-0.06243 -0.295822,-0.125904 -0.562054,-0.169176 l -0.252459,-0.04104 -0.233751,0.10923 c -0.416922,0.194832 -0.532538,0.335419 -0.68913,0.83797 -0.127255,0.40841 -0.288094,0.591622 -0.684713,0.779957 -0.166847,0.07923 -0.208965,0.08945 -0.352637,0.08559 -0.224307,-0.006 -0.243024,0.01549 -0.234032,0.269096 l 0.0069,0.195667 0.09919,-0.0073 c 0.09067,-0.0067 0.106671,0.0014 0.186389,0.09458 0.08184,0.09562 0.134647,0.219005 0.134956,0.315351 1.89e-4,0.03154 0.02001,0.04205 0.07967,0.04205 0.04376,0 0.09588,-0.01351 0.115861,-0.03007 z M 11.03521,12.183193 c 0,-0.07735 -0.153903,-0.361495 -0.262377,-0.484429 -0.104365,-0.118278 -0.09735,-0.166797 0.01526,-0.105647 0.204945,0.111277 0.362583,0.379017 0.328894,0.558605 -0.01628,0.08679 -0.0818,0.111992 -0.0818,0.03149 z m 0.216339,-0.742809 c 0,-0.03269 0.257448,-0.153138 0.287583,-0.134513 0.03943,0.02439 0.0048,0.06117 -0.104255,0.110683 -0.108077,0.04908 -0.183328,0.05886 -0.183328,0.02384 z m 0.624984,-0.482525 c 0,-0.01323 0.01148,-0.02402 0.02545,-0.02402 0.01402,0 0.01877,0.01084 0.01061,0.02402 -0.0082,0.01323 -0.01964,0.02402 -0.02545,0.02402 -0.0058,0 -0.01061,-0.01084 -0.01061,-0.02402 z m 1.449854,-0.289989 c -0.06181,-0.02329 -0.109857,-0.103088 -0.09923,-0.164786 0.007,-0.04072 0.01678,-0.03961 0.145737,0.01632 0.07602,0.03297 0.138216,0.06913 0.138216,0.08033 0,0.04021 -0.130806,0.08846 -0.184725,0.06814 z m -1.257548,-0.206006 c 0,-0.174829 0.175797,-0.413597 0.371672,-0.5048057 0.100672,-0.04688 0.16041,-0.05644 0.354052,-0.05663 0.139314,-1.29e-4 0.239322,0.01005 0.248798,0.02541 0.02619,0.04233 -0.0032,0.05276 -0.198817,0.06996 -0.102728,0.009 -0.212655,0.03029 -0.244283,0.04723 -0.05917,0.03168 -0.256313,0.208795 -0.409613,0.367983 -0.09542,0.0991 -0.121809,0.110111 -0.121809,0.05087 z m -3.10089,1.84212 c 0.01711,-0.03196 0.05034,-0.04808 0.099,-0.04808 0.09047,0 0.08271,-0.05663 -0.0093,-0.06756 -0.0681,-0.0081 -0.161853,0.06585 -0.161853,0.127657 0,0.05151 0.04187,0.04454 0.07211,-0.01204 z m 1.682655,-0.04431 c 0,-0.03283 -0.154199,-0.106177 -0.203276,-0.09667 -0.0796,0.01545 -0.06499,0.05933 0.02845,0.08547 0.117226,0.03279 0.17482,0.03647 0.17482,0.01121 z m 1.057667,-0.700884 c 0,-0.01323 -0.01084,-0.02402 -0.02403,-0.02402 -0.01323,0 -0.02402,0.01084 -0.02402,0.02402 0,0.01323 0.01084,0.02402 0.02402,0.02402 0.01323,0 0.02403,-0.01084 0.02403,-0.02402 z m 0.853344,-0.299553 c 0,-0.02684 -0.02905,-0.06307 -0.06746,-0.08413 -0.06245,-0.03421 -0.06997,-0.03362 -0.10123,0.0084 -0.0528,0.07097 -0.0041,0.139632 0.09217,0.130294 0.05748,-0.0056 0.07652,-0.01914 0.07652,-0.05457 z m 0.925459,-0.04703 c 0,-0.03837 -0.03472,-0.0861 -0.06267,-0.0861 -0.03454,0 -0.04584,0.05177 -0.01748,0.08013 0.01752,0.01752 0.08012,0.02218 0.08012,0.006 z m -0.745175,-0.589478 c 0,-0.03246 -0.04381,-0.05496 -0.07251,-0.03721 -0.01342,0.0083 -0.01821,0.02518 -0.0106,0.03749 0.01803,0.02919 0.08311,0.029 0.08311,-2.54e-4 z m -2.12539,3.942752 c -0.148172,-0.03103 -0.19878,-0.129653 -0.111402,-0.217031 0.07318,-0.07318 0.228061,-0.102271 0.497668,-0.09347 0.214859,0.007 0.254354,0.01489 0.299073,0.05965 0.04252,0.04256 0.04757,0.06356 0.02887,0.120191 -0.01245,0.03772 -0.0526,0.0832 -0.08923,0.101045 -0.07875,0.03836 -0.490235,0.05786 -0.625002,0.0296 z M 3.068577,14.387623 c -0.04058,-0.0297 -0.04076,-0.03422 -0.0028,-0.07212 0.0565,-0.0565 0.296505,-0.05718 0.318099,-9.22e-4 0.0093,0.02421 -0.0023,0.05217 -0.02937,0.07211 -0.05691,0.04159 -0.229417,0.04215 -0.285835,9.23e-4 z m 1.549017,-0.01536 c -0.259947,-0.08973 -0.294439,-0.272489 -0.07277,-0.385574 0.137156,-0.06997 0.188409,-0.06154 0.280601,0.04617 0.0544,0.06355 0.120223,0.107436 0.201781,0.134527 0.11594,0.0385 0.128865,0.03809 0.30618,-0.0096 0.191401,-0.05152 0.316167,-0.04738 0.269418,0.0089 -0.04717,0.05683 -0.308305,0.157058 -0.532561,0.204387 -0.274321,0.0579 -0.288186,0.05794 -0.45265,0.0014 z m 3.39485,0.03113 c -0.09835,-0.0397 0.06469,-0.17624 0.21033,-0.176162 0.04627,1.9e-5 0.12536,0.01148 0.175742,0.0255 0.105846,0.02937 0.112772,0.08681 0.01637,0.135592 -0.05782,0.02924 -0.341007,0.03989 -0.402424,0.01508 z m 4.857005,-0.239958 c -0.02195,-0.05718 0.05643,-0.104692 0.172713,-0.104692 0.125512,0 0.171458,0.03975 0.116345,0.10063 -0.05337,0.05898 -0.266836,0.06198 -0.289058,0.0041 z M 6.365848,13.852733 c -0.05584,-0.05682 0.04155,-0.130521 0.172464,-0.130521 0.08123,0 0.143265,0.06046 0.103166,0.100562 -0.03195,0.03195 -0.250328,0.05571 -0.27563,0.02997 z M 3.475294,13.528127 C 3.28914,13.450647 3.229033,13.378295 3.301129,13.318465 c 0.05333,-0.04427 0.425037,-0.08145 0.63736,-0.06377 0.180044,0.01499 0.204359,0.02283 0.2273,0.07318 0.0362,0.07947 -0.0028,0.117134 -0.18366,0.177315 -0.227977,0.07587 -0.364782,0.08206 -0.506835,0.02292 z M 6.159359,13.38061 c -0.138346,-0.167013 -0.427897,-0.457251 -0.50163,-0.502819 -0.06324,-0.0391 -0.121791,-0.04841 -0.312828,-0.04983 -0.142726,-9.22e-4 -0.259592,-0.01411 -0.297566,-0.03329 -0.07127,-0.03592 -0.213899,-0.190175 -0.213899,-0.231302 0,-0.01508 -0.04307,-0.114741 -0.09573,-0.221518 -0.157149,-0.318675 -0.184724,-0.699689 -0.07494,-1.035459 0.02596,-0.07933 0.06408,-0.217671 0.08475,-0.307433 0.07709,-0.334644 0.133287,-0.381042 0.339537,-0.280333 0.124456,0.06077 0.173229,0.07044 0.37591,0.07455 0.163181,0.0032 0.24431,-0.0048 0.271009,-0.02688 0.02098,-0.01738 0.03472,-0.035 0.03062,-0.03915 -0.0041,-0.0041 -0.08123,0.0028 -0.171339,0.01572 -0.218566,0.03094 -0.291566,0.0078 -0.566251,-0.179163 C 4.799126,10.408554 4.784518,10.392512 4.53235,10.020383 L 4.426467,9.8641383 4.415817,9.503569 C 4.409917,9.305255 4.391927,8.85635 4.375697,8.505996 4.339497,7.724568 4.340877,7.826185 4.349277,6.554411 4.354877,5.702312 4.362367,5.499101 4.389027,5.47699 4.426237,5.4461 4.653203,5.4172 4.797386,5.42499 c 0.05289,0.0028 0.163997,0.0047 0.246916,0.0042 0.134154,-9.22e-4 0.157472,0.006 0.211663,0.06453 0.05201,0.05612 0.06768,0.06148 0.107321,0.03675 0.06308,-0.03938 0.169891,-0.03647 0.230975,0.0063 0.02771,0.01941 0.06213,0.0816 0.07649,0.138216 0.0202,0.07963 0.07847,0.158699 0.257416,0.349322 0.267048,0.284469 0.310698,0.301042 0.407542,0.154701 l 0.06068,-0.09169 -0.0457,-0.132757 C 6.325559,5.881542 6.285909,5.784888 6.262569,5.739768 6.191489,5.602377 6.155557,5.430139 6.139671,5.150664 6.122011,4.839684 6.158211,4.684176 6.322842,4.363619 6.413682,4.186761 6.421062,4.156655 6.443623,3.870843 6.471243,3.520706 6.508483,3.346831 6.611084,3.088544 6.776847,2.671258 6.860679,2.627189 7.085249,2.839286 c 0.07349,0.06941 0.165044,0.171785 0.203446,0.227498 0.03841,0.05571 0.131613,0.15163 0.20714,0.213152 L 7.633156,3.391795 7.80176,3.376305 c 0.511595,-0.04699 0.758128,-0.05614 0.923186,-0.03426 0.09773,0.01296 0.201182,0.01766 0.229914,0.01047 0.02873,-0.0072 0.124157,-0.06755 0.212065,-0.134103 0.08791,-0.06655 0.269787,-0.193948 0.404181,-0.283105 0.134393,-0.08916 0.2727021,-0.180985 0.3073551,-0.20405 0.08441,-0.05619 0.1698719,-0.05176 0.2460069,0.01277 0.156311,0.132438 0.212609,0.323356 0.214181,0.726282 0.0014,0.330361 0.03952,0.571471 0.131507,0.829306 0.140338,0.393377 0.152843,0.449542 0.169158,0.75965 0.01512,0.287563 0.01162,0.328308 -0.04815,0.562068 -0.0624,0.243965 -0.06312,0.254303 -0.0225,0.323084 0.0231,0.03906 0.05011,0.109553 0.06007,0.156615 0.01,0.04706 0.03412,0.128827 0.05367,0.181709 0.03394,0.09169 0.04118,0.09673 0.156762,0.108709 0.08344,0.0087 0.141273,0.03112 0.185688,0.07211 l 0.06451,0.05956 -0.01517,0.444699 c -0.0083,0.244583 -0.02619,0.52042 -0.0397,0.612967 -0.01351,0.09254 -0.03454,0.454914 -0.04674,0.805268 -0.01222,0.35035 -0.03869,0.755993 -0.05888,0.901421 -0.03675,0.264932 -0.0794,0.802086 -0.107202,1.350413 -0.01222,0.240552 -0.02342,0.304072 -0.06292,0.356289 -0.06015,0.0795 -0.429114,0.227982 -0.7812299,0.314382 -0.13882,0.03408 -0.4416981,0.136095 -0.6730601,0.226738 -0.516796,0.202468 -0.748984,0.289062 -1.105743,0.412384 -0.152041,0.05255 -0.352158,0.131613 -0.444704,0.175691 -0.194173,0.09247 -0.299775,0.122363 -0.514919,0.145733 -0.129653,0.01406 -0.167216,0.02928 -0.234784,0.09488 -0.09381,0.09111 -0.310242,0.180662 -0.436303,0.180533 C 6.44839,12.544389 6.336956,12.470928 6.25115,12.335631 6.17743,12.219382 6.16594,12.170559 6.19978,12.11724 6.2149,12.0934 6.25775,12.10285 6.390398,12.15929 c 0.0941,0.04002 0.197128,0.07282 0.228932,0.07282 0.09014,0 0.209224,-0.04922 0.209224,-0.08649 0,-0.04395 -0.07293,-0.04293 -0.159506,0.0023 -0.112569,0.0587 -0.172925,0.04464 -0.28293,-0.06596 -0.05589,-0.05619 -0.1189,-0.112974 -0.140014,-0.126199 -0.03172,-0.01987 -0.04233,-0.107284 -0.06123,-0.504793 -0.01254,-0.264415 -0.02236,-0.524026 -0.02177,-0.576912 9.23e-4,-0.09985 -0.108769,-0.372585 -0.15008,-0.372585 -0.05011,0 -0.0521,0.05652 -0.0062,0.175618 0.100773,0.26145 0.137492,1.116907 0.0655,1.525888 -0.01928,0.10952 -0.06346,0.262423 -0.09817,0.339776 -0.06095,0.135805 -0.06174,0.143312 -0.02315,0.217981 0.022,0.04252 0.119809,0.170001 0.217363,0.283257 0.192269,0.22321 0.238219,0.329267 0.165644,0.382337 -0.06664,0.04873 -0.104993,0.03878 -0.174691,-0.04537 z m 1.123717,-1.294327 c 0.07149,-0.02716 0.16231,-0.06612 0.201814,-0.08655 0.09665,-0.04998 0.0481,-0.07951 -0.131539,-0.08 -0.07495,-1.94e-4 -0.166893,-0.01605 -0.204322,-0.03518 -0.03744,-0.01914 -0.08541,-0.03984 -0.106621,-0.04597 -0.04288,-0.0124 -0.07862,-0.355911 -0.107787,-1.036335 -0.0085,-0.197973 -0.02384,-0.381863 -0.03412,-0.408645 -0.04233,-0.110373 -0.05008,0.08785 -0.02352,0.601707 0.03804,0.735726 0.05214,0.862557 0.101867,0.917504 0.0231,0.02555 0.04201,0.06209 0.04201,0.08124 0,0.04792 0.06852,0.141679 0.103521,0.141666 0.01577,-10e-6 0.08718,-0.02223 0.158671,-0.04942 z M 5.141169,11.549244 c 0.175631,-0.09082 0.199494,-0.24716 0.05283,-0.346191 -0.09689,-0.06542 -0.211129,-0.05994 -0.31193,0.01494 -0.118055,0.08772 -0.07607,0.262137 0.07937,0.329751 0.09644,0.04196 0.101377,0.04201 0.179722,0.0014 z M 4.95537,11.423354 c -0.05712,-0.07262 -0.06258,-0.113099 -0.01978,-0.146591 0.101207,-0.07919 0.234369,-0.0279 0.234369,0.09026 0,0.124184 -0.133632,0.159266 -0.214596,0.05633 z m 0.952581,0.09932 c 0.02836,-0.01987 0.06397,-0.07365 0.0791,-0.119504 0.03657,-0.110803 -0.0064,-0.200873 -0.126273,-0.265029 l -0.08987,-0.04807 -0.08941,0.04807 c -0.161586,0.08689 -0.189382,0.214596 -0.07763,0.356663 0.04026,0.05118 0.07059,0.064 0.151418,0.064 0.05559,0 0.124291,-0.01628 0.152663,-0.03615 z m -0.185116,-0.08406 c -0.02656,-0.02656 -0.04808,-0.08012 -0.04808,-0.11973 0,-0.05637 0.01282,-0.07487 0.06004,-0.08673 0.08072,-0.02024 0.127232,9.22e-4 0.159916,0.07259 0.02195,0.04815 0.01946,0.07168 -0.01277,0.120864 -0.0482,0.07357 -0.09474,0.07737 -0.159105,0.013 z m 2.338589,-0.230122 c 0.01171,-0.382444 -0.0055,-0.659277 -0.04109,-0.659277 -0.04016,0 -0.254262,0.2375 -0.254262,0.28203 0,0.04118 0.03555,0.03841 0.07211,-0.0056 0.04321,-0.05207 0.08833,-0.04431 0.105043,0.01803 0.008,0.02974 0.01466,0.168567 0.0148,0.30849 1.94e-4,0.139917 0.0078,0.261865 0.01692,0.270995 0.04155,0.04155 0.08167,-0.05811 0.08646,-0.21467 z m 0.865232,-0.09107 c 0.104088,-0.04404 0.140581,-0.09305 0.219848,-0.295108 0.0594,-0.151418 0.06403,-0.18158 0.03933,-0.256383 -0.03629,-0.110004 -0.208473,-0.305173 -0.269202,-0.305173 -0.223685,0 -0.368731,0.360024 -0.27498,0.682517 0.03352,0.115289 0.05283,0.143579 0.117106,0.171532 0.09525,0.04141 0.07688,0.04113 0.167889,0.0028 z M 8.791082,10.927809 c -0.01858,-0.02974 -0.0409,-0.08487 -0.04967,-0.122492 -0.01748,-0.07521 0.0356,-0.28814 0.09064,-0.363321 0.02974,-0.04067 0.04307,-0.04321 0.09726,-0.01854 0.15858,0.07225 0.213149,0.345946 0.09659,0.484462 -0.07727,0.09184 -0.184268,0.100889 -0.234825,0.01987 z m 1.643178,-0.04853 c 0.07272,-0.02988 0.144667,-0.06226 0.159894,-0.07196 0.03735,-0.02384 0.06679,-0.291981 0.03772,-0.343899 -0.01997,-0.03569 -0.03145,-0.02877 -0.08629,0.05193 -0.03481,0.0512 -0.06326,0.107455 -0.06326,0.125009 0,0.01757 -0.05565,0.09076 -0.123677,0.162684 -0.136012,0.143814 -0.122372,0.157569 0.0756,0.07623 z m -0.5962099,-0.04762 c 0.0733,-0.05802 0.10936,-0.8833947 0.0386,-0.8833947 -0.07571,0 -0.3077471,0.2620267 -0.3077471,0.3475227 0,0.05193 0.05642,0.04619 0.10817,-0.01097 0.09305,-0.102816 0.1055691,-0.06735 0.09336,0.26442 -0.0063,0.171869 -0.0023,0.312492 0.0091,0.312492 0.0113,0 0.03767,-0.01351 0.05854,-0.03007 z M 6.192951,9.8785283 C 6.183151,9.6722973 6.168001,9.263782 6.159341,8.970712 6.150641,8.677643 6.137071,8.431409 6.129181,8.423529 c -0.01688,-0.01683 -0.0014,1.727212 0.01591,1.808162 0.0071,0.03288 0.02273,0.04836 0.03878,0.03841 0.01923,-0.0119 0.02186,-0.123409 0.0091,-0.3915967 z m 1.715796,0.1314147 c 0.05003,-0.05161 0.0746,-0.09666 0.06557,-0.1201907 -0.02094,-0.05461 -0.0716,-0.04625 -0.136146,0.02246 -0.06932,0.07378 -0.112583,0.07561 -0.184743,0.0078 -0.04127,-0.03878 -0.05563,-0.07871 -0.05563,-0.154683 0,-0.1843103 0.07284,-0.2978513 0.191079,-0.2978513 0.07259,0 0.135315,-0.0542 0.110046,-0.0951 -0.02398,-0.03878 -0.235503,-0.02988 -0.295915,0.0124 -0.08061,0.05646 -0.125733,0.163015 -0.141771,0.3347963 -0.01651,0.176927 0.01434,0.24687 0.143879,0.3258417 0.117959,0.07193 0.209915,0.06117 0.303638,-0.03551 z M 8.43304,9.918213 C 8.44614,9.901703 8.46398,9.848693 8.4727,9.800438 8.49174,9.694671 8.51916,9.66937 8.63904,9.646964 c 0.07941,-0.01485 0.100787,-0.0085 0.159086,0.04738 0.06209,0.05949 0.07039,0.06149 0.106298,0.02559 0.03578,-0.03578 0.03583,-0.04615 4.51e-4,-0.1276563 C 8.883715,9.543488 8.834245,9.426177 8.794944,9.331579 8.755654,9.236979 8.698284,9.135893 8.667463,9.106944 8.616853,9.059394 8.604933,9.057434 8.544243,9.086654 8.483003,9.116114 8.471213,9.144524 8.41103,9.407441 8.37474,9.56609 8.33789,9.7526863 8.32919,9.8220943 c -0.01443,0.115312 -0.01167,0.1262 0.03209,0.1262 0.02633,0 0.05863,-0.01351 0.07174,-0.03007 z M 8.538319,9.507235 c -0.02983,-0.03592 0.02089,-0.207997 0.06129,-0.207997 0.03177,0 0.127961,0.124774 0.127961,0.165966 0,0.01448 -0.0028,0.02633 -0.0062,0.02633 -0.0032,0 -0.04067,0.0099 -0.08288,0.022 -0.05358,0.01536 -0.08379,0.01347 -0.100206,-0.0063 z M 10.658111,8.92064 c 0.0073,-0.459424 0.01259,-0.862359 0.01171,-0.895413 -9.22e-4,-0.03306 0.01116,-0.146627 0.02674,-0.252394 0.01619,-0.110286 0.02527,-0.379197 0.02121,-0.630498 l -0.0071,-0.438194 -0.125743,0.08767 -0.125747,0.08767 0.09777,0.04965 0.09777,0.04965 -0.01868,0.132604 c -0.01028,0.07293 -0.02011,0.413851 -0.02181,0.757593 -0.0018,0.343741 -0.0056,0.862963 -0.0087,1.153819 -0.0074,0.6998883 -0.0065,0.7331583 0.01812,0.7331583 0.01162,0 0.02711,-0.3758963 0.03445,-0.8353193 z M 4.699277,8.502155 c -0.03634,-0.915171 -0.06288,-1.125677 -0.09493,-0.75336 -0.01333,0.154545 -0.0056,0.357101 0.02702,0.709115 0.02513,0.271028 0.04687,0.611764 0.04835,0.757196 0.0032,0.322309 0.0094,0.36476 0.03431,0.240378 0.01061,-0.05291 0.0041,-0.481677 -0.01476,-0.953329 z M 9.436041,9.305246 C 9.428541,9.176345 9.417601,9.040227 9.411691,9.002761 9.402191,8.942001 9.411373,8.930581 9.496961,8.896952 9.587531,8.861402 9.619181,8.813512 9.571581,8.784097 9.542671,8.766207 9.10834,8.889505 9.067738,8.9271 c -0.05421,0.05021 0.0028,0.126001 0.08574,0.113837 0.109585,-0.01609 0.159354,0.06121 0.176807,0.274597 0.01369,0.167308 0.03855,0.222476 0.100856,0.223712 0.01019,1.94e-4 0.01236,-0.105098 0.0049,-0.234 z m 0.668311,0.07207 c 0.105251,-0.1163 0.09249,-0.254165 -0.02573,-0.277807 -0.1191209,-0.02384 -0.1665049,-0.0971 -0.1506479,-0.232953 0.0071,-0.06061 0.0985,-0.120191 0.1844349,-0.120191 0.115395,0 0.114583,-0.08149 -0.0014,-0.119702 -0.1515509,-0.05002 -0.3019459,0.07307 -0.3019459,0.247128 0,0.07624 0.01706,0.109576 0.09615,0.187883 0.1040749,0.103038 0.1134539,0.132595 0.06369,0.200657 -0.0314,0.04298 -0.06347,0.04316 -0.165851,9.22e-4 -0.03177,-0.0131 -0.04205,-0.0056 -0.04205,0.03043 0,0.05885 0.09177,0.09915 0.2787189,0.122404 0.01448,0.0018 0.04348,-0.01568 0.06443,-0.03883 z M 6.95119,9.293226 C 6.95259,9.290026 6.96193,9.135777 6.97208,8.950683 6.98222,8.765594 7.00468,8.470459 7.02194,8.294828 l 0.0314,-0.319331 0.09195,-0.05168 c 0.05057,-0.0284 0.09194,-0.0605 0.09194,-0.07128 0,-0.02702 -0.0049,-0.02592 -0.123571,0.02794 -0.05764,0.02614 -0.126615,0.04779 -0.153295,0.04808 -0.0267,3.23e-4 -0.08888,0.02794 -0.138216,0.06149 -0.09447,0.06419 -0.113782,0.135919 -0.06892,0.255977 0.0285,0.07631 0.05866,0.408889 0.05314,0.586185 -0.0028,0.0868 0.01139,0.189073 0.03486,0.252398 0.02167,0.05856 0.04519,0.130806 0.05224,0.160553 0.01037,0.04376 0.04716,0.07436 0.05775,0.04808 z M 7.48074,8.949992 C 7.617918,8.903252 7.74202,8.791643 7.74202,8.715014 7.74202,8.683054 7.71569,8.618134 7.68353,8.57073 7.63324,8.49663 7.62695,8.465995 7.63866,8.352403 7.65129,8.230059 7.64716,8.215132 7.58282,8.150797 7.53726,8.105237 7.476772,8.075477 7.407138,8.064337 7.23467,8.036767 7.23057,8.048887 7.261429,8.495922 c 0.03076,0.445839 0.03813,0.490821 0.08013,0.490821 0.01725,0 0.07985,-0.01655 0.139171,-0.03675 z M 7.39747,8.874562 C 7.368,8.845102 7.38101,8.672693 7.41813,8.600938 c 0.04293,-0.08302 0.101654,-0.09037 0.175133,-0.0219 0.06324,0.05892 0.06649,0.112453 0.01167,0.192029 C 7.532953,8.875501 7.443214,8.920281 7.397503,8.87457 Z M 7.35984,8.403818 C 7.34859,8.374078 7.33171,8.303783 7.32226,8.247623 7.30188,8.12627 7.33923,8.098045 7.456017,8.14643 7.546137,8.18378 7.581856,8.265192 7.547617,8.355253 7.504407,8.468947 7.39511,8.497209 7.35983,8.403813 Z m 0.805162,0.256701 c 0.111157,-0.03232 0.129897,-0.04618 0.129897,-0.09615 0,-0.05178 -0.01056,-0.05839 -0.09321,-0.05839 -0.05127,0 -0.10443,-0.01351 -0.118143,-0.03007 -0.0137,-0.01651 -0.03177,-0.111176 -0.04012,-0.210331 -0.0231,-0.274284 -0.03624,-0.33653 -0.0712,-0.33653 -0.07334,0 -0.09148,0.06482 -0.06539,0.233594 0.01388,0.08967 0.03205,0.246861 0.04039,0.349322 0.0172,0.210584 0.01333,0.207956 0.217737,0.148531 z M 8.633417,8.487954 c 0.0088,-0.04279 0.02947,-0.09412 0.04597,-0.114035 0.03394,-0.0409 0.133813,-0.04866 0.156366,-0.01217 0.01891,0.03062 0.100843,0.03131 0.119555,9.22e-4 0.0078,-0.01264 -0.02038,-0.08432 -0.06267,-0.159262 C 8.850358,8.128479 8.793198,8.023181 8.76565,7.969423 8.73812,7.915663 8.68529,7.849615 8.648299,7.822649 c -0.05807,-0.04233 -0.07052,-0.04418 -0.09113,-0.01342 -0.01314,0.0196 -0.019,0.07645 -0.01305,0.12637 0.0059,0.04992 9.22e-4,0.20495 -0.01125,0.344512 -0.01213,0.139563 -0.01554,0.264277 -0.0076,0.277143 0.02924,0.04729 0.09257,0.0066 0.108115,-0.0694 z m 0.0067,-0.2825 c -0.01729,-0.0451 0.0091,-0.156195 0.03707,-0.156195 0.01144,0 0.0397,0.02887 0.06281,0.0641 0.04012,0.06125 0.04007,0.06553 -0.0018,0.09615 -0.05671,0.04145 -0.08099,0.04049 -0.09808,-0.0041 z m -2.080302,0.20364 c 0.10301,-0.0628 0.09416,-0.125831 -0.02029,-0.144432 -0.04632,-0.0075 -0.151049,-0.04708 -0.232718,-0.08789 -0.08167,-0.04081 -0.154531,-0.06817 -0.161909,-0.0608 -0.0074,0.0074 -0.01305,0.05758 -0.01263,0.111569 4.61e-4,0.08677 0.0046,0.09328 0.03269,0.05609 0.01757,-0.02315 0.04697,-0.04182 0.06534,-0.04155 0.04524,9.22e-4 0.126545,0.06933 0.177398,0.149702 0.04995,0.07894 0.05084,0.07904 0.152114,0.01729 z M 9.50836,8.204767 C 9.650957,8.113547 9.661494,8.096164 9.6034,8.047954 c -0.03117,-0.02587 -0.04934,-0.0243 -0.105869,0.0091 -0.03753,0.02218 -0.09648,0.0403 -0.130986,0.0403 -0.120527,0 -0.201841,-0.238464 -0.132908,-0.389762 0.02638,-0.05786 0.146092,-0.139069 0.205023,-0.139069 0.05939,0 0.03689,-0.04242 -0.03601,-0.06782 -0.05766,-0.02011 -0.08854,-0.01457 -0.173897,0.03108 -0.08512,0.04551 -0.107423,0.07219 -0.124037,0.148287 -0.02435,0.111642 -0.0083,0.334109 0.03025,0.417614 0.02107,0.04565 0.196962,0.188976 0.235185,0.1916 0.0032,1.93e-4 0.06524,-0.03781 0.138216,-0.08449 z m 0.519383,-0.234853 c 0.02181,-0.134929 0.05513,-0.157039 0.140987,-0.09356 0.08771,0.06485 0.12133,0.0667 0.12133,0.0067 0,-0.02532 -0.04325,-0.08033 -0.09615,-0.122211 -0.05288,-0.04187 -0.09615,-0.08995 -0.09615,-0.106805 0,-0.01688 0.03246,-0.09147 0.07211,-0.165791 0.03966,-0.07433 0.07212,-0.15157 0.07212,-0.171652 0,-0.06084 -0.06508,-0.04104 -0.127578,0.03883 -0.05775,0.07379 -0.112804,0.0774 -0.112804,0.0074 0,-0.03795 -0.08506,-0.04798 -0.1069249,-0.01259 -0.0075,0.01213 -0.0064,0.180312 0.0023,0.373765 0.01535,0.3382 0.01789,0.351457 0.06596,0.344549 0.0373,-0.0053 0.05372,-0.03034 0.06474,-0.09855 z M 6.944431,7.751043 C 6.980401,7.732463 7.066586,7.710923 7.135989,7.703183 7.274095,7.687833 7.496087,7.619853 8.403083,7.31534 8.733605,7.204371 9.074345,7.096326 9.160279,7.075239 9.246209,7.054169 9.451739,6.984159 9.617,6.91968 9.7822611,6.85521 9.9931911,6.783885 10.085738,6.761184 c 0.194888,-0.04781 0.453147,-0.169167 0.43218,-0.203087 -0.0079,-0.01277 -0.04547,-0.02324 -0.08352,-0.02324 -0.129137,0 -0.6596969,0.140194 -1.033744,0.273154 C 8.972675,6.960143 8.49489,7.092153 8.116361,7.162847 7.971887,7.189827 7.636423,7.28035 7.370891,7.364002 6.856798,7.525951 6.678155,7.569744 6.721855,7.523106 6.735875,7.508166 6.849438,7.469856 6.97425,7.437976 7.099066,7.406116 7.30052,7.341936 7.421923,7.295375 7.756069,7.167229 8.21291,7.025582 8.47562,6.968666 8.700563,6.919936 8.989114,6.826812 9.59296,6.608094 9.7450001,6.553024 9.9990591,6.468042 10.157537,6.419246 c 0.158482,-0.04879 0.285922,-0.09953 0.283197,-0.112748 -0.0097,-0.04708 -0.13551,-0.03887 -0.363787,0.0237 C 9.351218,6.529125 9.199505,6.5746 8.99201,6.655398 8.483122,6.853555 8.367012,6.8953 8.090589,6.979492 7.931941,7.027812 7.67233,7.099779 7.513682,7.139413 7.355029,7.179073 7.123772,7.243538 6.999773,7.282719 6.780146,7.352109 6.735952,7.356749 6.766589,7.307209 6.809939,7.237069 8.641904,6.606048 9.460752,6.3792 10.046453,6.216941 10.312519,6.132805 10.380216,6.08845 10.474856,6.02644 10.412446,6.00167 10.264904,6.04266 10.192804,6.06272 10.032269,6.10596 9.9081631,6.13878 9.7840571,6.17161 9.508224,6.257122 9.295196,6.328826 8.428991,6.620392 7.11835,7.03967 7.073146,7.03967 c -0.07306,0 -0.26371,0.08825 -0.366484,0.169651 -0.06601,0.05228 -0.09357,0.09391 -0.09895,0.149518 C 6.596322,7.476512 6.522972,7.477098 6.504195,7.359761 6.449065,7.015009 6.380988,6.871048 6.146094,6.602473 6.045593,6.487566 5.892339,6.271343 5.805524,6.121981 5.599648,5.767763 5.546887,5.701043 5.457005,5.681302 c -0.04076,-0.0089 -0.07944,-0.01093 -0.08596,-0.0046 -0.02177,0.02177 0.163213,0.362487 0.335202,0.617431 0.215195,0.318975 0.504068,0.88969 0.450334,0.88969 -0.03311,0 -0.104402,-0.110489 -0.217192,-0.33653 C 5.883319,6.734913 5.684975,6.413106 5.498632,6.132164 5.19515,5.674623 5.152981,5.621359 5.094211,5.621359 c -0.03611,0 -0.07172,0.0099 -0.07919,0.02195 -0.01831,0.02965 0.418928,0.748107 0.536813,0.88203 C 5.653668,6.64103 5.731694,6.78471 5.716855,6.829222 5.705095,6.864542 5.56202,6.669675 5.350675,6.330466 5.260065,6.185033 5.099406,5.949248 4.993648,5.806495 4.843789,5.604211 4.790373,5.548521 4.751551,5.554096 c -0.07061,0.01014 -0.07421,0.07423 -0.0097,0.17174 0.05873,0.08872 0.336512,0.476208 0.526945,0.735044 0.0625,0.08495 0.165519,0.247206 0.228933,0.360568 0.06341,0.113362 0.164652,0.254792 0.224975,0.314285 0.06032,0.05949 0.139715,0.159792 0.17642,0.222887 0.03671,0.0631 0.106865,0.140047 0.15591,0.171007 0.04904,0.03094 0.103853,0.07398 0.121805,0.09561 0.01794,0.02163 0.06106,0.03979 0.0958,0.04039 0.03472,4.61e-4 0.111836,0.02716 0.171329,0.05901 0.127809,0.06843 0.392091,0.08232 0.500436,0.02628 z M 6.684378,7.664653 c 0,-0.01323 0.01143,-0.02402 0.02545,-0.02402 0.01402,0 0.01877,0.01084 0.01061,0.02402 -0.0082,0.01323 -0.01964,0.02403 -0.02545,0.02403 -0.0058,0 -0.0106,-0.01084 -0.0106,-0.02403 z M 8.601927,7.471329 C 8.792725,7.417889 9.01534,7.342192 9.096621,7.303126 9.2405,7.233976 9.24187,7.232446 9.148261,7.245326 8.983304,7.268016 8.143471,7.563651 8.232905,7.567543 8.245075,7.568004 8.411132,7.524753 8.60193,7.471333 Z M 5.121914,6.774323 c 0,-0.02693 -0.04404,-0.09456 -0.09786,-0.150238 -0.102899,-0.106445 -0.09775,-0.07492 0.0178,0.109101 0.06445,0.102641 0.08004,0.11065 0.08004,0.04113 z M 4.650497,6.321327 4.716917,6.252007 4.652167,6.124235 c -0.0603,-0.118996 -0.06703,-0.12465 -0.09797,-0.08233 -0.04881,0.06676 -0.03818,0.348746 0.01314,0.348746 0.0092,0 0.04662,-0.03117 0.08315,-0.06932 z M 7.372659,5.574419 C 7.501007,5.517649 7.684556,5.349512 7.742777,5.235385 7.803747,5.115867 7.826237,4.9256 7.791737,4.821064 7.729837,4.633494 7.344557,4.371463 7.130666,4.371463 c -0.160921,0 -0.348385,0.08004 -0.463956,0.198083 -0.124769,0.12744 -0.174367,0.244011 -0.190677,0.448153 -0.01231,0.154028 -0.0097,0.163647 0.08287,0.305548 0.116266,0.178223 0.198235,0.239492 0.381659,0.285258 0.16071,0.04012 0.286882,0.03016 0.432102,-0.03408 z M 6.996713,5.431458 C 6.805615,5.370948 6.708411,5.262033 6.708411,5.108415 c 0,-0.177383 0.16937,-0.42133 0.329129,-0.474059 0.109419,-0.0361 0.285784,0.02412 0.392275,0.134006 0.06872,0.0709 0.08226,0.104103 0.09084,0.222652 0.0093,0.128584 0.0037,0.147517 -0.07092,0.245514 C 7.323919,5.40149 7.145078,5.478441 6.996708,5.431458 Z M 9.60775,5.560986 C 9.66353,5.528296 9.7600761,5.441967 9.8222911,5.369142 9.9522531,5.217019 9.9828991,5.089238 9.9235111,4.947106 9.8753711,4.831896 9.655587,4.572525 9.567494,4.526971 9.446635,4.464471 9.181643,4.390963 9.126816,4.404723 8.929982,4.454123 8.63735,4.795522 8.613958,5.00304 8.589608,5.219057 8.765426,5.489979 9.002461,5.601708 9.142295,5.667618 9.462562,5.646068 9.60775,5.560988 Z M 9.07203,5.454588 C 8.962754,5.387958 8.867818,5.21469 8.867818,5.081887 c 0,-0.312436 0.375343,-0.538085 0.63161,-0.379704 0.168291,0.10401 0.2457591,0.344479 0.17144,0.532169 C 9.619188,5.364877 9.549031,5.418583 9.369438,5.465124 9.190303,5.511544 9.163913,5.510594 9.07203,5.454564 Z m -4.607761,7.564749 c -0.08189,-0.06134 -0.03998,-0.12317 0.109115,-0.160964 0.112453,-0.0285 0.142795,-0.02905 0.174096,-0.0032 0.02084,0.01729 0.0379,0.04468 0.0379,0.06084 0,0.09288 -0.234346,0.16818 -0.321115,0.103185 z M 6.72444,12.912928 c -0.0374,-0.03744 -0.01536,-0.225031 0.03205,-0.272429 0.06276,-0.06275 0.08728,-0.06077 0.198161,0.01609 0.118019,0.08178 0.119108,0.164205 0.0023,0.164205 -0.04579,0 -0.09905,0.02153 -0.133757,0.05408 -0.06205,0.0582 -0.07391,0.06278 -0.09863,0.03804 z M 6.245686,12.770977 c -0.03638,-0.01974 -0.06611,-0.04733 -0.06611,-0.06135 0,-0.01402 -0.02163,-0.05299 -0.04808,-0.08661 -0.02642,-0.03362 -0.04808,-0.07047 -0.04808,-0.08191 0,-0.04002 0.114308,-0.02033 0.179501,0.03094 0.0362,0.02845 0.10525,0.06528 0.153479,0.08182 0.11391,0.03906 0.124622,0.09342 0.02522,0.128067 -0.09727,0.03389 -0.115068,0.03292 -0.195953,-0.01097 z M 4.372022,12.434858 c -0.0125,-0.106833 -3.83e-4,-0.130889 0.06566,-0.130889 0.05267,0 0.242018,0.16177 0.21775,0.186034 -0.0055,0.0055 -0.06954,0.01287 -0.142214,0.01623 l -0.132139,0.0062 z m 3.013009,-0.05743 c 0.01204,-0.03611 0.510423,-0.232206 0.638006,-0.251015 0.05539,-0.0082 0.106952,-0.0048 0.114584,0.0076 0.03703,0.05989 -0.36221,0.229592 -0.59663,0.253616 -0.118286,0.01213 -0.162434,0.0092 -0.15596,-0.01019 z m 0.929365,-0.08603 c -0.0069,-0.0069 1.24e-4,-0.07452 0.01563,-0.150238 0.02661,-0.130105 0.03186,-0.137395 0.09564,-0.132738 0.07759,0.0057 0.22943,0.101174 0.229674,0.144464 2.54e-4,0.04985 -0.08651,0.08138 -0.153696,0.05584 -0.04607,-0.01752 -0.06983,-0.01416 -0.09773,0.01374 -0.02029,0.02029 -0.03689,0.04691 -0.03689,0.05919 0,0.02416 -0.03228,0.03011 -0.05263,0.0098 z m -7.2969538,-0.02628 c -0.045051,-0.01983 -0.036198,-0.07636 0.016462,-0.104522 0.1109962,-0.05941 0.2911927,4.61e-4 0.2083433,0.06924 -0.03938,0.03269 -0.1804179,0.05481 -0.2247915,0.03528 z m 13.3696608,-0.09188 c -0.04473,-0.03316 -0.04487,-0.03638 -0.0042,-0.07792 0.062,-0.06289 0.336844,-0.0633 0.349303,-4.61e-4 0.0047,0.02379 -0.0046,0.05893 -0.02038,0.07812 -0.03836,0.04623 -0.262732,0.04645 -0.324965,3.23e-4 z m 0.729501,-0.198724 c -0.02116,-0.0237 -0.08602,-0.149279 -0.144118,-0.27902 -0.143985,-0.321516 -0.209874,-0.40111 -0.332039,-0.40111 -0.121335,0 -0.178583,-0.07429 -0.154826,-0.200919 0.02951,-0.157302 -0.05577,-0.539234 -0.214181,-0.959286 C 14.19082,9.9204133 14.123245,9.8361523 13.920071,9.6960683 13.762299,9.587286 13.751513,9.574121 13.751513,9.490266 c 0,-0.120274 0.08987,-0.551117 0.123382,-0.591493 0.03592,-0.0433 0.104061,-0.04072 0.142353,0.0054 0.07236,0.08719 0.16971,0.112467 0.416797,0.108206 0.238441,-0.0041 0.242213,-0.0051 0.346108,-0.09022 0.0911,-0.07465 0.109599,-0.08151 0.139424,-0.05168 0.139055,0.139055 0.204622,1.517744 0.09013,1.895051 -0.02209,0.07271 -0.04441,0.218746 -0.04969,0.324514 -0.01074,0.215536 0.02218,0.311316 0.210441,0.612967 0.06878,0.110189 0.09545,0.177499 0.09047,0.22836 -0.0084,0.08646 -0.08521,0.109392 -0.144331,0.04312 z M 14.326678,9.6685863 c 0.02739,-0.03481 0.04982,-0.08183 0.04982,-0.1044443 0,-0.07854 -0.106791,-0.135154 -0.232654,-0.123336 -0.03362,0.0032 -0.103881,0.06966 -0.103881,0.0983 0,0.0385 0.15655,0.1915683 0.196571,0.1921903 0.02218,3.23e-4 0.06274,-0.02785 0.09014,-0.06271 z m -0.136469,-4.61e-4 c -0.04482,-0.01808 -0.03754,-0.1509803 0.0093,-0.1689413 0.09213,-0.03537 0.169784,0.09555 0.0909,0.1532263 -0.04597,0.03362 -0.05306,0.03472 -0.100178,0.01572 z m 0.533927,0.04145 c 0.0077,-0.0124 -0.0037,-0.03237 -0.02509,-0.04441 -0.04827,-0.02702 -0.03684,-0.09914 0.0214,-0.1347853 0.03458,-0.02116 0.05022,-0.01752 0.07647,0.0178 0.01817,0.02444 0.02716,0.05958 0.02006,0.07812 -0.01812,0.04721 0.03311,0.04228 0.05998,-0.0058 0.02997,-0.05352 0.0084,-0.1242723 -0.04284,-0.1405313 -0.0231,-0.0073 -0.08414,4.48e-4 -0.135625,0.01725 -0.07566,0.02472 -0.0951,0.04353 -0.101358,0.09812 -0.01153,0.1004693 0.08299,0.1854443 0.12702,0.1142053 z M 8.717,11.969963 c -0.0214,-0.03463 0.0046,-0.07442 0.0483,-0.07442 0.01918,0 0.124004,-0.04766 0.232949,-0.10591 0.206291,-0.110295 0.354329,-0.15756 0.354329,-0.113122 0,0.02877 -0.216404,0.195285 -0.324827,0.249964 -0.09981,0.05034 -0.290063,0.07696 -0.310753,0.04348 z m 1.0923011,-0.06359 c 0,-0.02047 0.01702,-0.07014 0.03781,-0.110341 0.0208,-0.04021 0.03219,-0.08767 0.02536,-0.105481 -0.02158,-0.05619 -0.1779741,-0.08472 -0.2941481,-0.05364 -0.0572,0.01531 -0.111559,0.02024 -0.120795,0.01102 -0.0279,-0.02785 0.0023,-0.04122 0.145059,-0.06448 0.10212,-0.0166 0.1613921,-0.04362 0.2359691,-0.107441 0.121062,-0.103627 0.14872,-0.105776 0.1865229,-0.01453 0.04782,0.11546 -0.01485,0.414893 -0.09593,0.458284 -0.06561,0.03514 -0.119845,0.02905 -0.119845,-0.01337 z M 0.84393983,11.597124 c -0.028912,-0.07602 0.00369,-0.189793 0.095152,-0.334354 0.085132,-0.134237 0.14445047,-0.269331 0.14445047,-0.328972 0,-0.02333 -0.032048,-0.111264 -0.071188,-0.195377 -0.10424077,-0.223947 -0.14440887,-0.406011 -0.16102767,-0.729847 -0.017523,-0.3416347 0.0172,-0.682162 0.100455,-0.984759 0.080152,-0.291326 0.08871,-0.297579 0.26036217,-0.190207 0.1507863,0.09431 0.1106965,0.09097 0.5204202,0.04348 0.1205,-0.01397 0.141873,-0.02605 0.241314,-0.136533 L 2.082979,8.61935 2.128539,8.68889 c 0.03366,0.0514 0.04745,0.12287 0.05279,0.273956 0.0041,0.112425 0.01282,0.228065 0.01969,0.256968 0.0069,0.02891 3.82e-4,0.110032 -0.01439,0.180284 -0.02398,0.113948 -0.04667,0.146788 -0.210405,0.3043903 -0.100948,0.09716 -0.243038,0.234134 -0.315752,0.3043847 -0.20061,0.193805 -0.2873471,0.355441 -0.3388681,0.631495 -0.023978,0.128468 -0.044083,0.26763 -0.044683,0.309246 -4.611e-4,0.04468 -0.041362,0.141969 -0.099399,0.237523 -0.05408,0.08902 -0.1139842,0.206231 -0.1331207,0.260468 -0.071469,0.202566 -0.15624597,0.265804 -0.20045347,0.149527 z M 1.3509413,9.54916 c 0.0577,-0.05222 0.06084,-0.216496 0.0053,-0.277857 -0.1142241,-0.126218 -0.3521528,0.05105 -0.3074703,0.229089 0.00885,0.03523 0.0338,0.07499 0.055473,0.0883 0.053255,0.03274 0.1912726,0.01061 0.2466854,-0.03952 z M 1.1322874,9.50457 c -0.03606,-0.04344 -0.00461,-0.153899 0.054846,-0.191273 0.049511,-0.03122 0.1206013,0.0061 0.1331484,0.07 0.022779,0.115838 -0.1174427,0.206277 -0.187994,0.12127 z m 0.8425076,-0.035 c 0.08605,-0.08605 0.08955,-0.16765 0.01042,-0.242001 -0.05145,-0.04834 -0.06832,-0.05237 -0.120187,-0.02873 -0.07686,0.035 -0.0784,0.07338 -0.0023,0.05885 0.08459,-0.01619 0.128053,0.0712 0.07539,0.15157 -0.03892,0.05939 -0.118333,0.07821 -0.145382,0.03445 -0.02472,-0.03998 -0.06009,-0.02702 -0.06009,0.02204 0,0.09582 0.147909,0.09817 0.242226,0.0037 z m 8.102632,2.030851 c 0.0046,-0.02204 0.01914,-0.03952 0.03233,-0.03883 0.03569,0.0018 0.02914,0.05566 -0.0083,0.06814 -0.02024,0.0067 -0.02923,-0.0042 -0.02402,-0.02933 z m 0.621272,-0.359235 c 0,-0.01614 0.04868,-0.05296 0.108169,-0.08186 0.09798,-0.0476 0.10817,-0.06059 0.10817,-0.137774 0,-0.09295 0.05713,-0.251938 0.09053,-0.251938 0.01148,0 0.04007,0.08149 0.06356,0.181087 0.03947,0.167363 0.03975,0.185578 0.0037,0.240377 -0.02135,0.0326 -0.05212,0.05966 -0.06834,0.06011 -0.01623,4.48e-4 -0.09169,0.005 -0.167714,0.01005 -0.09774,0.0065 -0.138216,4.61e-4 -0.138216,-0.02006 z m 0.528831,-0.470947 c 0,-0.01443 0.02707,-0.07962 0.0601,-0.144847 0.06932,-0.13681 0.07292,-0.172957 0.02591,-0.260708 -0.01881,-0.03509 -0.04035,-0.08341 -0.04789,-0.107363 -0.01263,-0.04012 -0.01794,-0.04058 -0.06733,-0.006 -0.06782,0.0475 -0.13906,0.04841 -0.13906,0.0018 0,-0.0231 0.03385,-0.04118 0.09571,-0.05108 0.07484,-0.01194 0.114745,-0.03855 0.182973,-0.1217957 0.06194,-0.07559 0.102175,-0.104356 0.138654,-0.09915 0.04542,0.0065 0.05223,0.02508 0.0586,0.1596257 0.0087,0.183346 -0.03832,0.323812 -0.167682,0.500983 -0.09598,0.131475 -0.140001,0.171897 -0.140001,0.12857 z m -6.586013,-0.05471 c 1.94e-4,-0.02974 0.01056,-0.07022 0.02306,-0.08994 0.03495,-0.0553 0.08238,0.0062 0.06332,0.08217 -0.01927,0.07684 -0.08687,0.08292 -0.08635,0.0078 z m 6.385698,-0.9234527 c -0.02375,-0.02375 -0.01904,-0.6058063 0.0074,-0.9094353 0.01268,-0.145428 0.02873,-0.458732 0.03569,-0.696222 0.01277,-0.436026 0.03205,-0.550859 0.111264,-0.663912 0.05685,-0.0811 0.183009,-0.537966 0.219272,-0.794021 0.04542,-0.32076 0.02559,-0.747743 -0.05517,-1.187112 -0.06197,-0.337143 -0.08548,-0.414856 -0.190567,-0.629697 -0.100353,-0.205184 -0.119872,-0.267006 -0.119872,-0.37969 0,-0.110858 0.01042,-0.145004 0.059,-0.193602 0.113883,-0.113883 0.35817,-0.06079 0.581228,0.126324 0.05232,0.0439 0.278111,0.404135 0.382854,0.610837 0.07508,0.148162 0.154079,0.437976 0.178504,0.654846 0.01065,0.09435 0.03726,0.219318 0.05915,0.277695 0.03034,0.08087 0.04215,0.215394 0.04959,0.564891 0.01121,0.52612 -0.0065,0.674568 -0.121681,1.019619 -0.04561,0.136612 -0.08291,0.274279 -0.08291,0.305935 0,0.165939 -0.211257,0.572001 -0.649552,1.248524 -0.128477,0.198314 -0.2579,0.409244 -0.2876,0.468738 -0.08067,0.1615863 -0.136035,0.2168463 -0.176605,0.1762823 z m 0.310444,-0.0048 c -0.0071,-0.01148 0.0023,-0.07874 0.02047,-0.1494813 0.02559,-0.09863 0.05875,-0.152594 0.142288,-0.231524 0.191374,-0.180815 0.211649,-0.126831 0.05204,0.138553 -0.05927,0.09856 -0.107953,0.1981203 -0.108174,0.2212543 -3.83e-4,0.04362 -0.08265,0.05997 -0.106611,0.02121 z M 4.230807,9.485794 c -0.02877,-0.106579 -0.01347,-0.379769 0.02513,-0.448776 0.01738,-0.03108 0.02633,-0.0249 0.04914,0.03412 0.01535,0.03966 0.03966,0.134454 0.05407,0.210649 0.02209,0.116908 0.01997,0.151616 -0.01379,0.222348 -0.022,0.04611 -0.05054,0.08382 -0.06347,0.08382 -0.01291,0 -0.03592,-0.04597 -0.05109,-0.102161 z m 7.525558,-0.08718 c 0,-0.02675 0.01891,-0.05932 0.04205,-0.07238 0.03371,-0.019 0.03611,-0.02979 0.01204,-0.05408 -0.107257,-0.108313 0.103332,-0.309315 0.337295,-0.321936 l 0.118992,-0.0064 -0.128989,0.131424 c -0.07094,0.07228 -0.156836,0.148121 -0.190876,0.168526 -0.03403,0.02043 -0.0719,0.07103 -0.08414,0.112485 -0.02573,0.08715 -0.106371,0.119283 -0.106371,0.04238 z M 3.667687,9.323664 c -0.01725,-0.0279 0.02748,-0.09627 0.06297,-0.09627 0.0332,0 0.02462,0.0633 -0.01282,0.09438 -0.02421,0.0201 -0.03855,0.02066 -0.05014,0.0018 z m 9.819405,-0.04657 c 0,-0.04233 -0.01494,-0.04565 -0.167779,-0.03758 -0.09641,0.0051 -0.174123,-0.0014 -0.182691,-0.01526 -0.0219,-0.03541 -4.61e-4,-0.04781 0.09528,-0.05541 0.08932,-0.0071 0.280075,-0.141683 0.328179,-0.231565 0.01425,-0.02661 0.05015,-0.04644 0.08411,-0.04644 0.04611,0 0.05925,0.0125 0.05925,0.05627 0,0.0872 -0.0642,0.279739 -0.110231,0.330605 -0.05341,0.05902 -0.106113,0.0587 -0.106113,-4.61e-4 z M 2.875169,9.229934 c -0.0089,-0.02799 -0.04427,-0.05037 -0.09176,-0.05806 -0.04251,-0.0069 -0.122358,-0.02015 -0.177416,-0.02947 -0.09277,-0.01572 -0.100704,-0.01277 -0.108169,0.04003 -0.0046,0.03136 -0.01886,0.05157 -0.03209,0.04496 -0.01323,-0.0066 -0.02518,-0.109373 -0.02661,-0.228361 -0.0014,-0.118987 -0.0068,-0.243383 -0.01203,-0.276432 -0.0074,-0.04722 9.22e-4,-0.0601 0.0386,-0.0601 0.03288,0 0.07969,0.04938 0.148125,0.156246 0.05503,0.08594 0.155084,0.216648 0.222343,0.290469 0.06726,0.07382 0.115082,0.14143 0.10627,0.150238 -0.02804,0.02804 -0.05241,0.01738 -0.06729,-0.02951 z M 3.179024,9.194104 C 3.037221,9.121964 3.017365,9.101184 2.884705,8.885975 2.806465,8.759051 2.696411,8.607606 2.640141,8.549435 2.457108,8.36021 2.295555,8.160716 2.204502,8.011474 2.109542,7.855846 1.961095,7.750545 1.923168,7.811915 c -0.04878,0.07892 -0.05536,0.652434 -0.0089,0.773557 0.01074,0.02799 0.0037,0.04099 -0.02246,0.04099 -0.02098,0 -0.04316,-0.02435 -0.0493,-0.05408 C 1.836408,8.542642 1.813138,8.431758 1.790858,8.325991 1.760148,8.180204 1.753458,8.063918 1.763238,7.845237 1.781778,7.430312 1.827008,7.262386 1.992958,6.992271 2.069168,6.868234 2.141803,6.763315 2.154374,6.759119 c 0.01393,-0.0047 0.01978,0.112126 0.01494,0.298861 -0.0092,0.357336 0.04505,0.660467 0.163587,0.913779 C 2.434739,8.189384 2.486703,8.2539 2.64881,8.363988 2.73693,8.423828 2.846612,8.53231 2.933948,8.646013 3.012008,8.74764 3.10708,8.867494 3.145224,8.912356 l 0.06935,0.08157 0.05222,-0.05605 C 3.394705,8.800582 3.301794,8.539187 3.019823,8.243198 2.841213,8.055702 2.77453,7.961048 2.801819,7.933759 2.816159,7.919419 2.9991,8.102026 3.277363,8.40856 c 0.134066,0.147688 0.337609,0.551154 0.338873,0.671733 4.61e-4,0.0595 -0.01688,0.09648 -0.06539,0.138216 -0.08914,0.07667 -0.185642,0.07035 -0.37187,-0.02439 z m 9.440978,0.0075 c -0.04441,-0.04441 -0.04799,-0.06722 -0.03306,-0.210335 0.0092,-0.08829 0.03873,-0.241654 0.06565,-0.340809 0.07507,-0.276668 0.07975,-0.407815 0.01738,-0.487123 -0.03011,-0.03827 -0.0753,-0.06575 -0.108137,-0.06575 -0.0468,0 -0.06346,0.02153 -0.0977,0.126199 -0.09487,0.28999 -0.246912,0.509515 -0.468,0.675712 -0.133412,0.100289 -0.263793,0.145267 -0.263793,0.09101 0,-0.0113 0.08459,-0.103572 0.187975,-0.205079 0.288652,-0.28339 0.506416,-0.677012 0.508339,-0.918851 0.0014,-0.176212 0.02974,-0.321857 0.06262,-0.321857 0.04408,0 0.237661,0.29626 0.310108,0.474557 0.07872,0.19374 0.07658,0.272411 -0.0143,0.523556 -0.05528,0.152769 -0.07167,0.232469 -0.06226,0.302674 0.01974,0.147125 0.05355,0.173511 0.200306,0.15626 0.110877,-0.01305 0.123507,-0.01001 0.113482,0.02735 -0.01605,0.05986 -0.05714,0.10804 -0.144146,0.169088 -0.09577,0.0672 -0.209252,0.0686 -0.274454,0.0032 z M 4.068345,9.019494 c 0.0047,-0.02416 0.02827,-0.04778 0.05244,-0.05244 0.03177,-0.0061 0.04164,0.0037 0.03551,0.03551 -0.0047,0.02416 -0.02827,0.04779 -0.05244,0.05244 -0.03177,0.0061 -0.04164,-0.0037 -0.03551,-0.03551 z M 14.304381,8.854782 c 0,-0.01983 0.0213,-0.03606 0.04732,-0.03606 0.03219,0 0.04289,0.01153 0.03348,0.03606 -0.0076,0.01983 -0.02891,0.03606 -0.04733,0.03606 -0.0184,0 -0.03348,-0.01623 -0.03348,-0.03606 z M 3.834774,8.752169 C 3.672612,8.600078 3.528636,8.331084 3.464508,8.060379 3.413818,7.846428 3.314824,7.623573 3.208167,7.483356 3.145027,7.400346 3.030613,7.152857 3.030613,7.099298 c 0,-0.06487 0.06177,-0.03643 0.119573,0.05504 0.07275,0.115123 0.312967,0.308374 0.472053,0.379755 0.199541,0.08953 0.584516,0.491352 0.470753,0.491352 -0.01061,0 -0.0566,-0.03878 -0.102161,-0.08618 C 3.898251,7.842945 3.823324,7.798504 3.713785,7.77494 3.645555,7.76028 3.636585,7.76614 3.599137,7.85017 c -0.03209,0.07205 -0.03551,0.108746 -0.01614,0.175124 0.01346,0.04619 0.02453,0.117392 0.02453,0.158233 0,0.05704 0.02112,0.09123 0.09105,0.147429 0.05315,0.0427 0.125264,0.140573 0.173234,0.235084 0.04519,0.08905 0.106989,0.178168 0.137312,0.198033 0.0303,0.01987 0.05513,0.0511 0.05513,0.06941 0,0.06911 -0.111037,0.02974 -0.229467,-0.08131 z m 10.661913,0.0691 c 0,-0.01098 0.03306,-0.09288 0.07347,-0.182 0.122515,-0.270207 0.06585,-0.372589 -0.127523,-0.230385 -0.122764,0.09028 -0.367134,0.161365 -0.546897,0.159091 -0.152935,-0.0018 -0.18057,-0.05085 -0.06009,-0.106385 0.08687,-0.04002 0.315725,-0.256226 0.359919,-0.339993 0.01743,-0.03306 0.0773,-0.195307 0.133028,-0.360568 0.09732,-0.288624 0.100704,-0.308531 0.08573,-0.504793 C 14.390944,6.950053 14.379144,6.907399 14.288101,6.801055 14.162953,6.654843 14.13097,6.665339 13.846611,6.945949 13.45802,7.329407 13.365861,7.378765 13.1993,7.292633 13.15012,7.267223 13.11586,7.218503 13.080308,7.123466 c -0.08072,-0.215717 -0.06785,-0.327612 0.07939,-0.690389 0.214043,-0.527374 0.238685,-0.620308 0.250236,-0.943627 0.0089,-0.249632 0.0014,-0.32728 -0.05434,-0.576912 -0.06701,-0.298995 -0.116935,-0.409728 -0.22201,-0.492379 -0.08965,-0.07052 -0.129889,-0.05935 -0.218069,0.06053 -0.133609,0.181626 -0.29946,0.257554 -0.394493,0.180603 -0.04847,-0.03924 -0.05503,-0.07238 -0.06979,-0.352753 -0.01586,-0.301074 -0.04934,-0.532211 -0.143131,-0.988042 -0.04339,-0.210944 -0.136344,-0.441333 -0.191886,-0.475659 -0.07606,-0.04701 -0.174119,0.125969 -0.286831,0.505941 -0.02366,0.07971 -0.09301,0.237449 -0.154152,0.350525 -0.06114,0.113081 -0.111167,0.226885 -0.111167,0.252901 0,0.05903 -0.04417,0.104993 -0.100958,0.104993 -0.02979,0 -0.04325,-0.01821 -0.04325,-0.0585 0,-0.04533 -0.01434,-0.06021 -0.06364,-0.0661 -0.08283,-0.0099 -0.249064,-0.203908 -0.255871,-0.298626 -0.005,-0.06954 -0.005,-0.06955 0.139231,-0.06955 0.147249,0 0.21846,-0.03209 0.368675,-0.166188 0.16895,-0.150809 0.339615,-0.88465 0.274578,-1.180656 -0.01443,-0.0657 -0.03385,-0.143805 -0.04311,-0.173552 -0.0302,-0.09704 0.03186,-0.05886 0.163208,0.100395 0.281344,0.34109 0.401977,0.578729 0.497065,0.979188 0.02619,0.11024 0.06459,0.259929 0.08536,0.332643 0.02522,0.08835 0.03707,0.223906 0.03574,0.408645 -9.22e-4,0.15204 -0.0014,0.295089 -9.22e-4,0.317882 9.22e-4,0.02278 0.0326,0.05763 0.07084,0.07739 0.06867,0.03551 0.07083,0.03454 0.17868,-0.08077 0.0764,-0.08167 0.113564,-0.144603 0.123801,-0.209602 0.008,-0.05109 0.01932,-0.12264 0.02504,-0.159004 0.0057,-0.03634 0.0014,-0.09044 -0.0095,-0.120186 -0.04547,-0.12346 -0.0523,-0.186283 -0.0202,-0.186283 0.01743,0 0.07443,0.089 0.126656,0.197779 0.05324,0.110885 0.148314,0.256382 0.216413,0.331162 0.0668,0.07336 0.144671,0.181769 0.173044,0.240913 0.08422,0.175548 0.16942,0.506452 0.198817,0.772205 0.04487,0.405703 -0.0037,0.677999 -0.170444,0.954376 -0.05091,0.08442 -0.126135,0.261519 -0.167152,0.393552 l -0.07458,0.240059 0.06448,0.09305 c 0.09869,0.142417 0.113597,0.149639 0.211968,0.102729 0.06643,-0.03168 0.115925,-0.09126 0.215333,-0.259233 0.175438,-0.296435 0.185149,-0.33107 0.145687,-0.519498 -0.0374,-0.178665 -0.04367,-0.383684 -0.01171,-0.383684 0.04468,0 0.240802,0.245929 0.321152,0.402673 0.04574,0.08922 0.122289,0.219784 0.170112,0.290146 0.04782,0.07036 0.09905,0.173123 0.113841,0.228361 0.0148,0.05524 0.05286,0.1623 0.08459,0.237924 0.112015,0.266915 0.07064,0.546353 -0.148509,1.003051 -0.10075,0.209958 -0.12856,0.291082 -0.117313,0.342267 0.0081,0.03689 0.02287,0.07212 0.03283,0.07828 0.02988,0.01849 0.264928,-0.151953 0.389135,-0.282178 0.09523,-0.09985 0.118891,-0.114372 0.131737,-0.08089 0.0086,0.02246 0.0037,0.08867 -0.01111,0.147167 -0.04164,0.165362 -0.03708,0.181215 0.05225,0.181215 0.0528,0 0.106657,-0.02361 0.162254,-0.07114 0.09475,-0.08098 0.142708,-0.0924 0.13035,-0.03103 -0.05011,0.248797 -0.144151,0.625214 -0.162089,0.648759 -0.03583,0.04701 -0.06123,0.01393 -0.07868,-0.102456 -0.01236,-0.08231 -0.02647,-0.107612 -0.06006,-0.107612 -0.02416,0 -0.05074,0.01102 -0.05907,0.02448 -0.0083,0.01347 -0.06807,0.05132 -0.132761,0.0841 -0.0647,0.03279 -0.128533,0.07998 -0.141859,0.104887 -0.02564,0.04789 -0.09768,0.08735 -0.09768,0.05351 z M 4.212874,8.586863 c 0.0041,-0.05098 0.01844,-0.08998 0.03163,-0.08667 0.03578,0.0089 0.0291,0.15656 -0.0076,0.168798 -0.02333,0.0078 -0.02965,-0.01383 -0.02402,-0.08213 z m 9.274218,-0.0326 c 0,-0.01323 0.01688,-0.02402 0.03749,-0.02402 0.02061,0 0.0308,0.01084 0.02264,0.02402 -0.0082,0.01323 -0.02504,0.02403 -0.03749,0.02403 -0.01245,0 -0.0226,-0.01084 -0.0226,-0.02403 z m -0.09615,-0.424364 c 0,-0.0092 0.07709,-0.0962 0.17132,-0.193375 0.161706,-0.166774 0.170527,-0.181529 0.15727,-0.263208 -0.0077,-0.04759 -0.02057,-0.09304 -0.0285,-0.100999 -0.008,-0.008 -0.05439,0.0092 -0.10319,0.03823 -0.166017,0.09866 -0.296459,0.154286 -0.330844,0.141089 -0.06256,-0.02402 -0.03574,-0.05623 0.0919,-0.110304 0.09101,-0.03855 0.183176,-0.11197 0.330522,-0.263222 0.204027,-0.209445 0.317131,-0.301558 0.340975,-0.277709 0.03196,0.032 -0.159644,0.657594 -0.231058,0.754365 -0.02739,0.03712 -0.08227,0.09465 -0.121938,0.127817 -0.08248,0.06898 -0.276437,0.172326 -0.276437,0.147305 z M 3.311055,8.105549 c -0.0088,-0.0088 -0.01605,-0.03675 -0.01605,-0.0621 0,-0.06234 0.05805,-0.04012 0.06778,0.02592 0.0074,0.05054 -0.01895,0.06898 -0.05175,0.0362 z M 2.600488,7.703987 C 2.554468,7.648517 2.461686,7.354297 2.403654,7.07969 2.352824,6.839166 2.350884,6.803014 2.378564,6.611483 2.414074,6.365877 2.566235,5.945358 2.665321,5.818988 2.799945,5.647295 2.826275,5.515719 2.826275,5.014666 c 0,-0.247894 0.0084,-0.450718 0.01863,-0.450708 0.03569,1.8e-5 0.06317,0.118789 0.114883,0.49682 0.03163,0.231118 0.06991,0.416262 0.0975,0.471453 0.02499,0.04999 0.04542,0.111472 0.04542,0.136639 0,0.06613 0.186509,0.589635 0.267924,0.752023 0.03814,0.07602 0.08435,0.138216 0.102747,0.138216 0.05646,0 0.182235,-0.214725 0.181926,-0.310601 C 3.65518,6.201198 3.623905,6.059305 3.585895,5.933198 3.401221,5.320743 3.443113,4.909595 3.73752,4.445168 3.946693,4.115195 4.019384,3.937618 4.032171,3.725374 4.042411,3.555437 4.035371,3.520143 3.933841,3.231556 3.873691,3.060614 3.828789,2.91644 3.834061,2.911169 c 0.04911,-0.04911 0.311786,0.242568 0.447125,0.496493 0.04436,0.08325 0.149186,0.255779 0.232921,0.383403 0.08374,0.127629 0.163886,0.275316 0.178112,0.328198 0.04756,0.176811 0.06478,0.204322 0.127878,0.204322 0.06476,0 0.230758,-0.06923 0.259366,-0.10817 C 5.123913,4.154895 5.094543,3.968901 5.011073,3.782732 4.819528,3.355454 4.804555,3.291815 4.816697,2.956502 4.830577,2.572823 4.872257,2.257937 4.927873,2.116346 c 0.06611,-0.168295 0.09788,-0.155956 0.09788,0.038 0,0.270572 0.04155,0.365512 0.259329,0.592341 0.147042,0.153161 0.203207,0.231718 0.243878,0.341082 0.05974,0.160668 0.111996,0.250259 0.145967,0.250259 0.01268,0 0.04914,-0.05144 0.081,-0.114307 0.04734,-0.09342 0.0646,-0.186768 0.09443,-0.510806 0.02181,-0.237067 0.05648,-0.459792 0.08618,-0.553911 0.07703,-0.244127 0.357811,-0.685322 0.405675,-0.637453 0.0064,0.0064 -0.01729,0.04597 -0.05263,0.08795 -0.173372,0.206038 -0.215569,0.409825 -0.137174,0.662468 0.04661,0.150219 0.06097,0.170605 0.163892,0.232672 0.107445,0.0648 0.155079,0.07017 0.253883,0.02864 0.07738,-0.03251 0.04639,0.05384 -0.04408,0.122842 -0.0845,0.06445 -0.08894,0.06513 -0.231694,0.03565 -0.08005,-0.01656 -0.171426,-0.04702 -0.203054,-0.06774 -0.03163,-0.02075 -0.06396,-0.03122 -0.07184,-0.02338 -0.0079,0.0079 -0.03011,0.136445 -0.04944,0.285705 C 5.920215,3.271647 5.822554,3.649143 5.755359,3.716337 5.669229,3.802467 5.552531,3.790057 5.460256,3.684977 5.385806,3.600187 5.385056,3.596717 5.391646,3.369082 5.397546,3.164741 5.393046,3.135935 5.352866,3.112275 5.327876,3.097615 5.259626,3.045065 5.201185,2.995487 5.04048,2.859162 5.033213,2.863598 4.988254,3.125394 4.967044,3.248891 5.070164,3.534518 5.217375,3.76002 5.40002,4.0398 5.42801,4.273205 5.299755,4.447038 c -0.03172,0.04302 -0.05769,0.09068 -0.05769,0.105966 0,0.01526 -0.03251,0.07267 -0.07226,0.127536 C 5.100405,4.77635 5.092385,4.7803 4.967354,4.7803 4.844309,4.7803 4.832463,4.7748 4.751278,4.679955 4.642214,4.552534 4.569007,4.401895 4.569007,4.304876 c 0,-0.08157 -0.08553,-0.332463 -0.120759,-0.354237 -0.02651,-0.01637 -0.265171,0.05718 -0.3045,0.09385 C 4.098008,4.087139 3.970095,4.359734 3.866794,4.634676 3.702982,5.070693 3.662896,5.460898 3.74932,5.77836 3.77445,5.87064 3.80811,6.027268 3.82414,6.126423 3.84019,6.225583 3.88009,6.363918 3.91286,6.433838 3.94565,6.503758 3.97313,6.607044 3.97398,6.663356 3.97628,6.809577 3.870989,6.967751 3.77152,6.967751 3.68092,6.967751 3.499123,6.822885 3.391152,6.664652 3.331662,6.577462 3.247241,6.457687 3.203554,6.398493 3.159884,6.339303 3.107134,6.255214 3.086351,6.211638 3.052781,6.141248 3.034921,6.130788 2.926366,6.117938 2.754838,6.097598 2.713771,6.131588 2.65004,6.346621 2.545333,6.699881 2.52989,6.822087 2.55143,7.127002 2.56397,7.304428 2.59021,7.466188 2.6208,7.554438 c 0.02707,0.07809 0.04922,0.151104 0.04922,0.162254 0,0.03117 -0.03906,0.02407 -0.06956,-0.01268 z M 4.208469,7.558103 c 0,-0.08982 0.03421,-0.13231 0.05756,-0.07149 0.01803,0.04695 -0.0071,0.154199 -0.03611,0.154199 -0.0118,0 -0.02144,-0.03721 -0.02144,-0.08271 z m 8.647569,-0.09156 c -0.0055,-0.01651 1.94e-4,-0.06791 0.01263,-0.114183 0.0125,-0.04627 0.02965,-0.142772 0.03814,-0.214449 0.01918,-0.162079 0.06474,-0.185444 0.0881,-0.04519 0.0095,0.05686 0.03836,0.1451 0.06421,0.196082 l 0.04698,0.0927 -0.05406,0.05754 c -0.05787,0.0616 -0.178846,0.07857 -0.195976,0.02748 z M 3.920015,7.23501 c 0,-0.01323 0.01084,-0.03071 0.02402,-0.03892 0.01323,-0.0082 0.02402,-0.0041 0.02402,0.0092 0,0.01323 -0.01084,0.03071 -0.02402,0.03892 -0.01323,0.0082 -0.02402,0.0042 -0.02402,-0.0092 z M 4.200224,7.094045 c -0.03149,-0.05095 -0.06717,-0.377643 -0.05783,-0.52955 0.0054,-0.0889 0.0296,-0.251389 0.05367,-0.361099 0.06701,-0.305584 0.09373,-0.219926 0.07482,0.239944 -0.0089,0.215712 -0.01568,0.440882 -0.01512,0.500375 9.22e-4,0.110162 -0.02942,0.192596 -0.05556,0.15033 z m -0.238487,-0.0445 c -0.02688,-0.02688 0.01134,-0.08178 0.057,-0.08178 0.05212,0 0.05843,0.02555 0.01665,0.0673 -0.032,0.03205 -0.05216,0.03597 -0.07366,0.01448 z m 7.240047,-0.32817 c -0.01517,-0.05619 -0.02914,-0.150842 -0.03099,-0.210335 -0.0028,-0.09153 -0.01144,-0.109313 -0.05571,-0.115621 -0.07736,-0.01102 -0.119319,-0.07051 -0.08664,-0.122847 0.0166,-0.02656 0.01817,-0.05486 0.0041,-0.07617 -0.01217,-0.01863 -0.02084,-0.115036 -0.01928,-0.21419 0.0023,-0.155218 -0.0063,-0.196433 -0.06297,-0.296431 -0.0362,-0.06388 -0.08113,-0.122022 -0.09987,-0.129211 -0.04524,-0.01738 -0.09464,0.05326 -0.127398,0.182175 -0.01471,0.0578 -0.03311,0.09868 -0.04095,0.09083 -0.01337,-0.01337 0.0075,-0.114805 0.06995,-0.34014 0.01466,-0.05289 0.03297,-0.177172 0.04062,-0.276193 0.02366,-0.304348 0.08211,-0.256133 0.279591,0.230611 0.06977,0.171975 0.07748,0.212807 0.06576,0.348547 -0.0073,0.08456 -0.02615,0.17903 -0.04187,0.209925 -0.04039,0.07939 0.01001,0.276949 0.07371,0.28885 0.08772,0.01637 0.122797,0.0742 0.138599,0.228425 0.01522,0.148412 -0.01476,0.303938 -0.05852,0.303938 -0.01144,0 -0.0332,-0.04597 -0.04836,-0.102161 z m 1.299759,0.01683 c 0,-0.04256 0.07894,-0.155056 0.108787,-0.155056 0.04431,0 0.04418,0.0095 -0.0014,0.09735 -0.03085,0.05965 -0.107552,0.100805 -0.107552,0.05771 z m 0.33653,-0.203133 c 0,-0.01323 0.01144,-0.02402 0.02545,-0.02402 0.01402,0 0.01877,0.01084 0.01061,0.02402 -0.0082,0.01324 -0.01964,0.02403 -0.02545,0.02403 -0.0059,0 -0.01061,-0.01079 -0.01061,-0.02403 z m -0.09615,-0.106966 c 0,-0.0082 0.02568,-0.06584 0.0571,-0.1282 0.120602,-0.239446 0.127472,-0.546543 0.01489,-0.66636 l -0.05683,-0.06049 -0.06768,0.06485 c -0.126775,0.121454 -0.05747,-0.01923 0.150132,-0.304718 0.06249,-0.08594 0.130432,-0.19681 0.150994,-0.24639 0.08195,-0.197604 0.122773,-0.06558 0.08735,0.282445 -0.01347,0.132208 -0.02988,0.299871 -0.03647,0.37259 -0.0148,0.162858 -0.123096,0.5098 -0.189908,0.60836 -0.04565,0.06733 -0.10959,0.112795 -0.10959,0.07792 z m -1.899,-0.22956 c 0,-0.05089 0.05796,-0.06392 0.117259,-0.02638 0.04666,0.02956 0.01134,0.07443 -0.05858,0.07443 -0.04265,0 -0.05868,-0.01314 -0.05868,-0.04808 z M 11.238306,6.0958 c -0.01914,-0.04985 -0.0055,-0.114792 0.02527,-0.120874 0.03352,-0.0066 0.04565,0.103429 0.01485,0.134264 -0.01766,0.01766 -0.02974,0.01365 -0.04012,-0.01337 z M 4.032147,5.953996 c -0.01692,-0.06475 0.0067,-0.108686 0.03472,-0.0645 0.02707,0.04275 0.02721,0.116746 1.89e-4,0.116746 -0.01167,0 -0.02739,-0.02352 -0.03491,-0.05225 z M 5.903382,5.76626 c -0.01775,-0.02868 0.0047,-0.07251 0.03721,-0.07251 0.02923,0 0.02947,0.06506 2.58e-4,0.0831 C 5.92854,5.78445 5.91166,5.77965 5.90336,5.76624 Z M 3.999933,5.414587 C 4.016763,5.182284 4.023263,5.155617 4.13708,4.852426 4.17927,4.740051 4.21913,4.607539 4.22567,4.557964 4.2389,4.457537 4.27305,4.439009 4.2921,4.521904 c 0.0068,0.02974 0.03403,0.148864 0.0604,0.264706 0.02716,0.119237 0.07533,0.251956 0.111019,0.305889 0.07527,0.113735 0.06481,0.186795 -0.02034,0.141997 -0.02993,-0.01577 -0.0851,-0.05415 -0.122584,-0.08533 -0.03749,-0.03117 -0.07819,-0.05047 -0.09048,-0.04288 -0.04806,0.0297 -0.130792,0.221863 -0.153756,0.357133 -0.0142,0.08364 -0.03813,0.146899 -0.05803,0.153516 -0.02822,0.0094 -0.03126,-0.02453 -0.0184,-0.202358 z m 1.915226,-0.01208 c 0,-0.09439 0.007,-0.120025 0.02716,-0.09984 0.03786,0.03786 0.04007,0.20334 0.0028,0.216334 -0.02158,0.0076 -0.03006,-0.02532 -0.03006,-0.116493 z m 6.645178,0.02476 c -0.01964,-0.03177 0.0072,-0.05915 0.07942,-0.08095 0.06929,-0.02093 0.07546,0.04588 0.0076,0.0822 -0.05828,0.03117 -0.06703,0.03108 -0.08701,-0.0014 z M 5.037776,5.333477 c -0.02642,-0.01153 -0.08323,-0.02167 -0.126199,-0.02259 -0.112716,-0.0023 -0.103609,-0.06757 0.01203,-0.08597 0.04958,-0.0079 0.134859,-0.02564 0.189511,-0.03947 0.109129,-0.02762 0.201104,0.0014 0.201104,0.06367 0,0.0648 -0.18893,0.122478 -0.276432,0.0844 z m 0.40888,-0.231759 c -0.06045,-0.144681 -0.0014,-0.28216 0.286568,-0.667545 0.116128,-0.155398 0.15726,-0.18876 0.158528,-0.128579 0.01098,0.523035 0.0086,0.829002 -0.0064,0.819738 -0.01042,-0.0065 -0.04007,-0.05155 -0.06588,-0.100234 -0.02578,-0.04868 -0.06837,-0.115552 -0.0946,-0.148605 -0.04724,-0.05953 -0.04804,-0.05964 -0.08507,-0.01203 -0.02057,0.02642 -0.05532,0.110277 -0.07726,0.186297 -0.02195,0.07602 -0.04877,0.138216 -0.05965,0.138216 -0.01088,0 -0.0362,-0.03929 -0.05624,-0.08727 z m 7.024837,-0.179076 c -0.04113,-0.02398 -0.05973,-0.116664 -0.02402,-0.119896 0.22949,-0.0208 0.273629,0.0059 0.159013,0.09604 -0.0719,0.05656 -0.07722,0.05749 -0.134975,0.02384 z m -7.4217,-0.03108 c 0,-0.03693 0.201546,-0.231417 0.239842,-0.231417 0.03883,0 0.02924,0.03237 -0.03601,0.121528 C 5.157105,4.913581 5.049791,4.971438 5.049791,4.891562 Z M 12.16501,4.674163 c 0,-0.02093 0.01711,-0.03804 0.03804,-0.03804 0.04247,0 0.03505,0.05175 -0.0095,0.0666 -0.01572,0.0052 -0.02854,-0.0076 -0.02854,-0.02854 z M 12.10523,4.309066 c -0.04242,-0.111074 -0.166059,-0.27391 -0.207979,-0.27391 -0.01231,0 -0.04325,0.04868 -0.06877,0.10817 -0.05336,0.124488 -0.110097,0.147853 -0.08776,0.03615 0.0079,-0.03961 0.05321,-0.161369 0.100635,-0.270567 0.147406,-0.339398 0.227498,-0.393552 0.227498,-0.153821 0,0.07303 0.0309,0.224621 0.07373,0.361629 0.06944,0.222126 0.0765,0.303048 0.02642,0.303048 -0.01185,0 -0.04053,-0.04981 -0.0638,-0.110696 z m -1.293027,-0.17862 c -0.01702,-0.126735 -0.02711,-0.135251 -0.11943,-0.100414 -0.04191,0.01582 -0.08466,0.02029 -0.09499,0.01 -0.02393,-0.02393 0.313654,-0.322728 0.350124,-0.309872 0.03629,0.01277 0.02435,0.339449 -0.0154,0.4224 -0.04939,0.103046 -0.104896,0.09286 -0.120316,-0.02209 z M 5.716997,3.901098 c -0.02435,-0.02435 0.0082,-0.08228 0.04625,-0.08228 0.01997,0 0.03186,0.01734 0.02748,0.04007 -0.0083,0.04302 -0.0494,0.06653 -0.07372,0.04219 z m 4.885549,-0.451146 c 0,-0.0178 0.02269,-0.05287 0.05044,-0.07798 0.02776,-0.02513 0.09305,-0.116022 0.145114,-0.202035 0.132388,-0.218691 0.301564,-0.427721 0.377367,-0.46628 0.109221,-0.05555 0.440707,-0.113311 0.477071,-0.08313 0.06575,0.05457 0.02614,0.127763 -0.208782,0.38582 -0.132277,0.145294 -0.247026,0.290182 -0.255004,0.321981 -0.008,0.03182 -0.02564,0.05781 -0.03929,0.05781 -0.0243,0 -0.01273,-0.167626 0.01932,-0.27913 0.02273,-0.07923 -0.04983,-0.08935 -0.156744,-0.02186 -0.05129,0.03237 -0.133149,0.118983 -0.181921,0.192463 -0.112412,0.169351 -0.227549,0.256562 -0.227549,0.172353 z M 6.235776,3.200242 C 6.215166,3.150892 6.177846,3.084528 6.152866,3.052776 6.099456,2.984876 6.093756,2.909123 6.140696,2.891112 c 0.0403,-0.01545 0.255216,0.131304 0.255216,0.174294 0,0.01683 -0.02232,0.04251 -0.04962,0.05714 -0.03947,0.02112 -0.04645,0.04099 -0.03412,0.097 0.0226,0.102834 -0.03099,0.0893 -0.07637,-0.01928 z m 1.722601,-0.01337 c 0,-0.0201 0.03786,-0.08186 0.08413,-0.137247 0.04627,-0.05538 0.08414,-0.114704 0.08414,-0.131821 0,-0.01711 0.01983,-0.05563 0.04408,-0.08558 l 0.04408,-0.05446 0.03993,0.05698 c 0.02195,0.03136 0.04663,0.09278 0.05483,0.136524 0.0082,0.04376 0.03647,0.09464 0.06282,0.113085 0.08179,0.05729 0.02882,0.08461 -0.134509,0.06936 -0.120656,-0.01125 -0.164569,-0.0056 -0.215527,0.02781 -0.05491,0.03597 -0.064,0.03675 -0.064,0.0054 z M 7.564203,2.981473 c -0.01775,-0.02873 -0.0023,-0.0397 0.08584,-0.06073 C 7.806658,2.883343 7.941619,2.684004 8.040446,2.344062 8.084576,2.192252 8.081666,2.160144 7.989216,1.775611 7.944446,1.589374 7.911386,1.504311 7.863132,1.451103 7.779202,1.358533 7.686039,1.222742 7.706467,1.222742 c 0.06004,0 0.327455,0.155458 0.398574,0.231704 0.165574,0.177517 0.42933,0.688853 0.429957,0.833553 4.61e-4,0.117784 0.03947,0.160677 0.145894,0.160677 0.08799,0 0.1017,-0.0092 0.167419,-0.112877 0.06177,-0.0974 0.07166,-0.136128 0.07212,-0.282446 l 4.61e-4,-0.169567 0.04597,0.05986 c 0.05613,0.07305 0.09499,0.271936 0.113929,0.583109 0.01997,0.32811 0.075,0.359388 0.2302,0.130843 0.08329,-0.122663 0.128367,-0.295301 0.144105,-0.551966 0.0032,-0.04985 0.01637,-0.09312 0.0296,-0.09615 0.04026,-0.0092 0.156075,0.265149 0.178472,0.422889 0.02776,0.195423 -0.0053,0.239985 -0.111582,0.150542 l -0.0726,-0.06109 -0.06926,0.109834 C 9.335766,2.748934 9.058076,3.00154 9.003101,3.00154 c -0.04233,0 -0.0635,-0.116958 -0.05439,-0.300475 0.0067,-0.134762 0.0037,-0.144741 -0.04825,-0.152082 -0.038,-0.0054 -0.08791,0.02213 -0.158787,0.08744 C 8.620648,2.747982 8.54324,2.793426 8.501513,2.777416 8.463053,2.762656 8.366935,2.512474 8.366935,2.427084 c 0,-0.03597 -0.01351,-0.08388 -0.03007,-0.106486 -0.02693,-0.03684 -0.03532,-0.0374 -0.08109,-0.0053 -0.02808,0.01964 -0.06304,0.08347 -0.07773,0.141794 C 8.151205,2.563722 7.997088,2.79021 7.870229,2.909479 7.796759,2.978549 7.592035,3.026732 7.564101,2.981529 Z M 7.362038,2.927633 c 0.0047,-0.0142 0.01891,-0.02582 0.03145,-0.02582 0.01254,0 0.0267,0.01162 0.03145,0.02582 0.0048,0.0142 -0.0094,0.02582 -0.03145,0.02582 -0.02204,0 -0.0362,-0.01162 -0.03145,-0.02582 z M 7.279368,2.764198 c -0.08365,-0.0771 -0.124784,-0.141209 -0.166727,-0.25979 -0.03062,-0.08659 -0.069,-0.162674 -0.08529,-0.169079 -0.01628,-0.0064 -0.0752,0.0219 -0.130935,0.06287 -0.09413,0.06922 -0.16397,0.09466 -0.16397,0.05973 0,-0.0081 0.08384,-0.103416 0.186298,-0.211742 0.10246,-0.108322 0.22415,-0.252832 0.270423,-0.321124 0.04627,-0.0683 0.09225,-0.124452 0.102162,-0.124793 0.0291,-9.22e-4 0.01909,0.07863 -0.01803,0.143607 -0.07199,0.125922 -0.03214,0.54207 0.07167,0.748771 0.03417,0.06807 0.0584,0.135044 0.0538,0.148831 -0.0046,0.01379 -0.05833,-0.02098 -0.119403,-0.07729 z M 9.7371841,2.556251 c 0,-0.007 0.03841,-0.08892 0.08539,-0.182184 0.07119,-0.141361 0.09118,-0.164762 0.120191,-0.140683 0.03864,0.03205 0.04765,0.229905 0.01296,0.284654 -0.01379,0.02177 -0.04233,0.02799 -0.0823,0.01794 -0.03366,-0.0084 -0.06791,-0.0046 -0.07611,0.0088 -0.01549,0.02504 -0.06015,0.03362 -0.06015,0.01153 z"
       id="path1" /></g></svg>
