<?xml version="1.0" encoding="UTF-8" standalone="no"?>
<!-- Created with Inkscape (http://www.inkscape.org/) -->

<svg
   width="16"
   height="16"
   viewBox="0 0 16 16"
   version="1.1"
   id="svg1"
   xml:space="preserve"
   inkscape:export-filename="bitmap2.svg"
   inkscape:export-xdpi="96"
   inkscape:export-ydpi="96"
   xmlns:inkscape="http://www.inkscape.org/namespaces/inkscape"
   xmlns:sodipodi="http://sodipodi.sourceforge.net/DTD/sodipodi-0.dtd"
   xmlns="http://www.w3.org/2000/svg"
   xmlns:svg="http://www.w3.org/2000/svg"><sodipodi:namedview
     id="namedview1"
     pagecolor="#505050"
     bordercolor="#eeeeee"
     borderopacity="1"
     inkscape:showpageshadow="0"
     inkscape:pageopacity="0"
     inkscape:pagecheckerboard="0"
     inkscape:deskcolor="#505050"
     inkscape:document-units="px"><inkscape:page
       x="0"
       y="0"
       width="16"
       height="16"
       id="page2"
       margin="0"
       bleed="0" /></sodipodi:namedview><defs
     id="defs1" /><g
     inkscape:label="Capa 1"
     inkscape:groupmode="layer"
     id="layer1"><path
       style="fill:#0c0c0c;stroke-width:0.0200169"
       d="m 8.6548725,14.552563 c -0.026487,-0.01541 -0.058503,-0.05517 -0.071119,-0.08835 -0.02012,-0.0529 -0.067443,-0.06919 -0.384925,-0.132548 C 7.7948832,14.251071 7.5246229,14.170376 7.457218,14.110242 7.4325566,14.088252 7.2747537,14.036453 7.1065303,13.995133 6.5021744,13.846705 6.1804647,13.728165 6.3820044,13.728165 c 0.1072707,0 1.0042009,0.19724 1.560414,0.343141 0.2715592,0.07123 0.5964056,0.154769 0.7218729,0.185627 l 0.2281239,0.05612 0.5058296,-0.06492 c 0.2782061,-0.0357 0.5268444,-0.06521 0.5525332,-0.06558 0.170541,-0.0026 -0.1273309,0.15647 -0.5728317,0.305546 -0.2225588,0.07447 -0.3224097,0.09397 -0.4780988,0.09331 -0.108234,-4.24e-4 -0.2184715,-0.01341 -0.2449751,-0.02886 z m 3.0633465,-0.291776 c -0.02759,-0.04462 0.08009,-0.143384 0.133812,-0.122767 0.07267,0.02789 0.04015,0.135755 -0.04383,0.145476 -0.03897,0.0045 -0.07947,-0.0057 -0.08998,-0.0227 z m -0.430002,-0.09225 c -0.02224,-0.05793 0.0046,-0.110738 0.08213,-0.161525 0.09319,-0.06107 0.201793,-0.03298 0.201793,0.05221 0,0.114631 -0.245602,0.209192 -0.283926,0.109321 z m -0.965906,-0.05732 c 0.0052,-0.02687 0.03137,-0.05306 0.05822,-0.05823 0.03527,-0.0069 0.04621,0.0043 0.03943,0.03943 -0.0052,0.02687 -0.03137,0.05306 -0.05822,0.05823 -0.03527,0.0069 -0.04621,-0.0043 -0.03943,-0.03943 z m 2.557606,-0.01328 c -0.05137,-0.0138 -0.15947,-0.03362 -0.240204,-0.04397 -0.168937,-0.0217 -0.195495,-0.0756 -0.06672,-0.135383 0.09604,-0.04459 0.200168,-0.135425 0.200168,-0.174616 0,-0.02437 -0.07693,-0.195181 -0.16937,-0.376092 -0.01499,-0.02938 -0.04365,-0.08577 -0.06366,-0.125374 -0.05623,-0.111295 -0.09365,-0.3866 -0.06087,-0.447868 0.102144,-0.190865 0.430818,-0.279314 1.041189,-0.280206 0.462355,-8.49e-4 0.513164,0.008 0.627192,0.108608 0.04403,0.0388 0.129499,0.09204 0.189909,0.118302 0.210224,0.09138 0.310253,0.359033 0.211757,0.566595 -0.07062,0.148826 -0.227453,0.314999 -0.346181,0.366805 -0.05988,0.02615 -0.189183,0.125331 -0.287353,0.220458 -0.175504,0.170065 -0.181888,0.173466 -0.38141,0.203145 -0.237522,0.03531 -0.522223,0.03514 -0.654456,-4e-4 z m 1.02835,-0.274429 c 0.03608,-0.02365 0.08371,-0.08479 0.105803,-0.135889 0.13804,-0.319174 0.124903,-0.298694 0.149454,-0.233004 0.02746,0.07341 0.0357,0.07378 0.144946,0.0062 0.209864,-0.129699 0.23146,-0.510616 0.03489,-0.615806 -0.04846,-0.02593 -0.06418,-0.02148 -0.102197,0.0289 l -0.04494,0.05956 -0.148249,-0.144739 c -0.196291,-0.191643 -0.284651,-0.216758 -0.683376,-0.194232 -0.260909,0.01473 -0.511393,0.05094 -0.511393,0.07393 0,0.0034 -0.01124,0.045 -0.02496,0.0929 -0.0363,0.126596 0.044,0.208094 0.263002,0.266907 0.09422,0.0253 0.176886,0.06281 0.183704,0.08336 0.01282,0.03854 0.01901,0.0388 -0.310199,-0.01354 -0.07589,-0.01206 -0.113442,-0.0047 -0.146792,0.0286 -0.06614,0.06614 -0.05657,0.116745 0.06871,0.363549 0.09375,0.18471 0.132828,0.234288 0.224422,0.284816 0.202865,0.111906 0.658086,0.139568 0.797166,0.04844 z m -0.761459,-0.14871 c 0,-0.01469 0.01799,-0.02671 0.04002,-0.02671 0.02203,0 0.04002,0.01202 0.04002,0.02671 0,0.01469 -0.01799,0.0267 -0.04002,0.0267 -0.02203,0 -0.04002,-0.01202 -0.04002,-0.0267 z m -0.15068,-0.190568 c -0.01574,-0.01996 -0.03621,-0.07629 -0.04549,-0.125175 -0.02246,-0.118327 0.03825,-0.101082 0.06958,0.01978 0.0273,0.105299 0.01574,0.155869 -0.02407,0.105406 z m 1.191559,-0.139894 c 0,-0.02203 0.01202,-0.04746 0.0267,-0.05653 0.03493,-0.02161 0.03459,-0.21882 -4.24e-4,-0.240471 -0.03939,-0.02432 -0.0048,-0.06646 0.05445,-0.06646 0.112274,0 0.145159,0.222445 0.04607,0.311649 -0.09165,0.08251 -0.126775,0.09685 -0.126775,0.05181 z m -0.360302,-0.28339 c 0.0091,-0.01469 0.03451,-0.02671 0.05653,-0.02671 0.02203,0 0.0326,0.01202 0.02355,0.02671 -0.0091,0.01469 -0.03451,0.0267 -0.05652,0.0267 -0.02204,0 -0.0326,-0.01202 -0.02352,-0.0267 z m -0.780662,-0.134992 c -0.0908,-0.02793 -0.116956,-0.101983 -0.05338,-0.151181 0.06853,-0.05304 0.306855,-0.100631 0.504293,-0.100728 0.163283,-8.1e-5 0.21526,0.01009 0.260218,0.05074 0.07304,0.06609 0.07146,0.139211 -0.0039,0.179836 -0.07621,0.04109 -0.592327,0.05666 -0.707263,0.02131 z m -3.5696769,1.102634 c -0.088076,-0.0054 -0.1715469,-0.02114 -0.1854904,-0.03498 -0.013921,-0.01388 -0.073994,-0.02563 -0.1334473,-0.02619 -0.059451,-4.32e-4 -0.2281917,-0.02306 -0.3749841,-0.0501 C 8.4609647,13.858017 7.1064964,13.516867 6.8747392,13.436665 6.7836449,13.405127 6.5723044,13.355958 6.4050868,13.327369 6.2378736,13.298803 5.9538945,13.24004 5.7740194,13.19683 5.5941443,13.153619 5.2728295,13.080408 5.059982,13.034138 4.8471389,12.987867 4.5588941,12.908848 4.4194449,12.858546 4.2799915,12.808239 3.9921966,12.718159 3.7798968,12.658364 3.3643636,12.541327 3.3246804,12.525418 3.2097102,12.429777 c -0.041512,-0.03451 -0.098467,-0.06276 -0.1266049,-0.06276 -0.085572,0 -0.1978298,-0.191208 -0.2769965,-0.4718 C 2.6227531,11.245328 2.5437647,10.980076 2.4840596,10.813729 2.3849047,10.537454 2.2973506,10.184721 2.1921346,9.6376206 2.1055354,9.1873452 1.9989908,8.8253624 1.894492,8.6264162 1.8372654,8.517469 1.8486036,8.3857749 1.9239927,8.2835767 1.9846186,8.2013965 1.9907691,8.1686277 1.9912999,7.9247563 1.9921487,7.625938 2.0248747,7.522199 2.1909422,7.2959938 2.3174112,7.1237123 2.3953852,7.0965594 2.7647027,7.0962028 3.1188542,7.095859 3.215513,7.131051 3.3895008,7.3236264 3.5147516,7.4622647 3.6453973,7.7332254 3.6454227,7.8544183 3.6454355,7.9046233 3.6075607,8.0278839 3.5612687,8.1283247 3.5149727,8.2287662 3.4850737,8.3189218 3.4948227,8.328676 3.5172347,8.351088 3.6601302,8.2156285 3.7253703,8.1100941 3.7597523,8.0544901 3.7769223,7.968875 3.7815823,7.8298589 3.7873623,7.6584052 3.7781823,7.6101351 3.7183503,7.4933779 3.6117713,7.2856792 3.5240812,7.197552 3.3241503,7.097213 3.1257092,6.997621 3.0595523,6.9813004 2.7814266,6.9633032 2.6805315,6.9567684 2.5924128,6.945858 2.5856044,6.939066 2.5664187,6.9198803 2.5259036,6.5949575 2.4986827,6.2418629 2.4850997,6.0657146 2.4493301,5.7114317 2.4191803,5.4545675 2.3890433,5.1977073 2.364369,4.8313951 2.3643733,4.6405477 2.3643818,4.3925248 2.3483714,4.2153579 2.3082509,4.0194042 2.223248,3.6042659 2.266993,3.5231338 2.5254022,3.6167577 2.7429528,3.6955815 3.3975864,3.9032836 3.565377,3.9467233 3.7977963,4.006895 3.881038,3.9966742 4.1268917,3.8777824 4.6550308,3.6223825 5.3103266,3.3660785 5.5851797,3.3074134 5.6482376,3.2939581 5.7209147,3.2297998 5.8683267,3.0574764 6.2194731,2.6469902 6.7102254,2.1566113 6.740044,2.1864299 c 0.014984,0.014984 0.038753,0.088043 0.052867,0.1623575 0.027377,0.1443261 0.099019,0.3103508 0.2633756,0.6103068 0.056305,0.1027547 0.184158,0.336952 0.2841234,0.5204393 0.1969173,0.3614479 0.2367702,0.4236361 0.4037458,0.6300443 0.1147834,0.1418856 0.4825644,0.8449505 0.5575629,1.0658543 0.023728,0.06988 0.073997,0.1582571 0.1117231,0.1964036 0.037735,0.038159 0.1003642,0.1198177 0.1391988,0.1814966 0.038838,0.061679 0.1786398,0.2100755 0.3106777,0.3297702 0.2168841,0.1966117 0.2864538,0.2401701 0.7204723,0.4511329 0.4781074,0.2323939 0.5247644,0.2502808 0.8807414,0.3376821 0.102754,0.025213 0.231935,0.068177 0.287069,0.09544 0.05513,0.027251 0.193249,0.065864 0.306925,0.08578 0.113677,0.019907 0.248719,0.060766 0.300093,0.090776 0.05137,0.030009 0.163902,0.072723 0.250055,0.094915 0.144419,0.037183 0.175057,0.036419 0.392552,-0.010064 0.12975,-0.027717 0.269438,-0.067311 0.31042,-0.087966 0.04096,-0.020671 0.105481,-0.04495 0.143328,-0.054 0.07299,-0.017445 0.117402,-0.089727 0.144772,-0.2356113 0.01974,-0.1052332 -0.0483,-0.4571815 -0.105181,-0.543976 -0.05636,-0.086018 -0.534983,-0.3686006 -0.766948,-0.4528057 -0.116566,-0.042319 -0.297896,-0.080987 -0.449065,-0.095763 -0.13945,-0.013625 -0.361639,-0.046534 -0.493749,-0.073118 -0.23323,-0.046937 -0.241639,-0.051229 -0.28974,-0.1477432 -0.05825,-0.1168846 -0.04463,-0.2777098 0.03455,-0.4079309 0.02763,-0.045422 0.15038,-0.1486983 0.272798,-0.2295033 0.21998,-0.145205 0.225884,-0.1472593 0.506025,-0.1759913 0.398092,-0.040834 0.643152,-0.00768 1.074764,0.1453152 0.404653,0.1434518 0.561145,0.2181616 0.751433,0.3587356 0.295011,0.2179367 0.474305,0.5219037 0.562394,0.9534519 0.02322,0.1136545 0.05316,0.2606887 0.06659,0.3267438 0.01341,0.066055 0.03052,0.3963346 0.03799,0.7339532 0.01452,0.6563696 0.03986,0.9119096 0.117734,1.1876667 0.02695,0.095416 0.06368,0.2455396 0.08163,0.3336159 0.05501,0.2698953 0.107955,0.419591 0.212419,0.6005061 0.0551,0.095415 0.157647,0.2815722 0.227891,0.4136823 0.07025,0.1321106 0.166763,0.2882452 0.214486,0.346961 0.04772,0.058711 0.123434,0.1692765 0.168245,0.2456885 0.04482,0.07642 0.193903,0.280583 0.331319,0.453714 0.283333,0.356982 0.51352,0.689864 0.569214,0.823157 0.100395,0.240276 4.25e-4,0.588677 -0.201098,0.702034 -0.295143,0.16588 -0.681923,0.209651 -1.082234,0.122475 -0.373338,-0.08131 -1.211768,-0.185109 -1.303941,-0.161445 -0.04955,0.01274 -0.479347,-0.04827 -0.561039,-0.07961 -0.02381,-0.0091 -0.04329,-0.03099 -0.04329,-0.04855 0,-0.04054 0.135663,-0.167859 0.303831,-0.285129 0.185249,-0.129186 0.470158,-0.529142 0.470158,-0.660008 0,-0.02853 -0.145464,0.121804 -0.326396,0.337348 -0.112514,0.134032 -0.224857,0.239362 -0.283599,0.265904 -0.05351,0.02415 -0.151321,0.08166 -0.217376,0.127747 -0.06606,0.04609 -0.201353,0.128739 -0.300656,0.183661 -0.09931,0.05492 -0.309493,0.177307 -0.46707,0.271962 -0.157578,0.09465 -0.316084,0.179537 -0.352233,0.188623 -0.110623,0.0278 -0.347096,-0.03893 -0.536207,-0.151253 -0.341159,-0.202677 -0.43019,-0.50521 -0.334108,-1.135292 0.02462,-0.16147 0.06348,-0.359636 0.08634,-0.440373 0.02288,-0.08073 0.05828,-0.210488 0.0787,-0.288342 0.02041,-0.07785 0.127883,-0.340382 0.238808,-0.5833914 0.110925,-0.2430099 0.195754,-0.4477628 0.188513,-0.4550042 -0.0169,-0.016894 -0.324834,0.4007444 -0.393479,0.5336316 -0.173907,0.33665 -0.352398,0.956845 -0.347317,1.206788 0.0057,0.279743 -0.07571,0.416417 -0.216179,0.363006 -0.03472,-0.0132 -0.1465936,-0.0323 -0.2486216,-0.04247 -0.1020326,-0.01019 -0.2455652,-0.036 -0.3189589,-0.05739 -0.073398,-0.0214 -0.2175171,-0.04909 -0.320271,-0.06151 -0.1027547,-0.01243 -0.207843,-0.03111 -0.2335316,-0.04156 -0.02776,-0.01129 -0.046704,-0.007 -0.046704,0.01062 0,0.01625 0.018379,0.02955 0.040834,0.02955 0.022453,0 0.115539,0.03196 0.2068412,0.07101 0.12978,0.0555 0.2031269,0.06984 0.3361413,0.06569 0.1745442,-0.0055 0.4074941,0.05222 0.4858456,0.120289 0.02317,0.02012 0.05321,0.0368 0.06673,0.03701 0.01354,2.26e-4 0.04037,0.01041 0.05967,0.02266 0.02767,0.01753 0.0205,0.04838 -0.03392,0.145855 l -0.06901,0.123607 0.123668,0.03116 c 0.09934,0.025 0.130548,0.04743 0.158655,0.113957 0.01923,0.04555 0.101965,0.170914 0.183823,0.278588 0.214436,0.282064 0.200896,0.310949 -0.06311,0.134648 -0.20719,-0.138355 -0.253028,-0.205442 -0.234538,-0.343281 0.01787,-0.133158 -0.02933,-0.183436 -0.129373,-0.137849 -0.089655,0.04084 -0.1180558,0.03858 -0.1180558,-0.0094 0,-0.05073 -0.077633,-0.05028 -0.1452216,8.49e-4 -0.028481,0.02157 -0.065935,0.03917 -0.083205,0.03917 -0.017278,0 -0.1123428,0.05428 -0.2112772,0.12062 -0.1626378,0.109062 -0.1930373,0.119938 -0.317134,0.11343 -0.1366603,-0.0072 -0.1372884,-0.0069 -0.145523,0.07831 -0.012734,0.131812 0.033194,0.187239 0.1983602,0.239304 0.1534227,0.04836 0.2176782,0.122178 0.1641705,0.188597 -0.020157,0.02504 -0.044541,0.0138 -0.1010487,-0.0467 -0.08682,-0.09294 -0.1972696,-0.105922 -0.2389264,-0.0281 -0.015196,0.0284 -0.027633,0.201068 -0.027633,0.383725 0,0.26264 0.00836,0.339052 0.040027,0.365326 0.031368,0.02602 0.048465,0.02623 0.078899,8.5e-4 0.044118,-0.03663 0.094583,-0.01587 0.094583,0.03884 0,0.05896 0.089816,0.07134 0.2848363,0.03926 0.4474197,-0.07357 0.9102287,-0.274208 0.7641627,-0.331268 -0.04284,-0.01673 -0.0393,-0.02606 0.03192,-0.08442 0.0743,-0.06088 0.0767,-0.06816 0.03336,-0.100974 -0.06071,-0.04597 -0.0592,-0.06952 0.0045,-0.06952 0.110497,0 0.137782,0.0281 0.119881,0.123523 -0.01511,0.08047 -0.01142,0.08859 0.03273,0.07237 0.02738,-0.01009 0.107454,-0.07625 0.17799,-0.147115 0.133516,-0.134135 0.178675,-0.15658 0.178675,-0.08882 0,0.04971 0.07237,0.05121 0.190236,0.0039 0.0495,-0.01987 0.112237,-0.04396 0.139415,-0.05358 0.046,-0.0163 0.04508,-0.02101 -0.01333,-0.06868 -0.04933,-0.04023 -0.05419,-0.05369 -0.0227,-0.06288 0.173206,-0.05056 0.203666,-0.0678 0.234924,-0.133018 0.03905,-0.08151 0.08879,-0.09291 0.139372,-0.03196 0.02814,0.03387 0.023,0.05242 -0.0301,0.109227 -0.03518,0.03765 -0.1,0.08519 -0.144038,0.105695 -0.06804,0.03172 -0.07004,0.0351 -0.01333,0.02283 0.129145,-0.02797 0.5078,-0.232827 0.693117,-0.37501 0.177248,-0.135986 0.242093,-0.169404 0.240158,-0.123761 -0.0039,0.09073 -0.349249,0.324745 -0.833143,0.564461 -0.894965,0.443356 -1.699383,0.807762 -1.8619101,0.84346 -0.050045,0.01099 -0.1454975,0.04335 -0.2121215,0.07191 -0.1046634,0.04486 -0.114592,0.05558 -0.073032,0.07884 0.112636,0.06304 0.6851196,-0.121311 1.0208956,-0.328734 0.118365,-0.07312 0.328739,-0.163452 0.892587,-0.383278 0.528559,-0.206064 0.767579,-0.337308 0.94217,-0.517336 0.173271,-0.178661 0.257521,-0.383825 0.188805,-0.459757 -0.05477,-0.06053 -0.01561,-0.07679 0.09674,-0.04015 0.07943,0.02589 0.09471,0.04409 0.102091,0.121442 0.02339,0.245218 -0.196064,0.488601 -0.806448,0.894384 -0.474838,0.31567 -1.8957182,0.960761 -2.0804869,0.944558 -0.031668,-0.003 -0.1296143,-0.0094 -0.2176868,-0.01482 z M 8.9520312,13.339841 c 0.01388,-0.01159 -0.072044,-0.469356 -0.1700954,-0.906098 -0.049433,-0.220182 -0.097708,-0.454381 -0.1072707,-0.52044 -0.00955,-0.06605 -0.057481,-0.252212 -0.1064768,-0.413679 C 8.5191969,11.338154 8.4426407,11.058946 8.3980677,10.879169 8.2708176,10.365912 7.9607214,9.5552747 7.8533787,9.4552709 7.824685,9.4285722 7.7339261,9.3941227 7.6516438,9.3787486 7.5693657,9.363383 7.3879499,9.3191709 7.2484964,9.2805193 7.0847596,9.2351355 6.8810508,9.202766 6.6733947,9.1891407 6.32401,9.1662196 6.2227711,9.1489439 6.1408963,9.0982204 6.0584697,9.0471702 5.8123187,8.9849226 5.6204569,8.9666112 5.5250416,8.9574853 5.3747517,8.9274331 5.2864718,8.8997496 5.198196,8.8720748 5.0000266,8.828911 4.8461033,8.803808 4.6921757,8.7787224 4.5396318,8.7414584 4.5071222,8.7210374 c -0.032514,-0.020417 -0.1193338,-0.03714 -0.1929358,-0.03714 -0.073602,0 -0.2091418,-0.023006 -0.301191,-0.051156 C 3.8440799,8.5811134 3.4442052,8.4878034 3.2718092,8.4597888 3.0609144,8.4255349 2.4755788,8.3937424 2.4046424,8.4127161 c -0.1650996,0.044153 -0.170694,-0.00611 0.1757025,1.57895 0.2087598,0.9552439 0.4086484,1.6862159 0.5064236,1.8519309 0.03557,0.06031 0.099583,0.104698 0.2305773,0.159901 0.1926726,0.0812 0.4246379,0.192354 0.621691,0.297906 0.066055,0.0354 0.1981693,0.08914 0.2935804,0.119473 0.095415,0.03031 0.3055928,0.101576 0.467063,0.158343 0.2107208,0.07408 0.37644,0.112253 0.5871609,0.135272 0.4051931,0.04427 1.2736674,0.19448 1.7871754,0.309115 0.407065,0.09088 1.2373375,0.317286 1.2650167,0.34497 0.012818,0.01282 0.5959473,-0.01456 0.612998,-0.02873 z M 8.4984491,12.968444 c -0.025977,-0.05706 -0.024322,-0.077 0.00925,-0.110565 0.036801,-0.0368 0.045528,-0.03638 0.086222,0.0043 0.055762,0.05577 0.045459,0.155048 -0.017318,0.167014 -0.029203,0.0056 -0.058164,-0.01694 -0.078131,-0.06076 z m -0.6607459,-0.02513 c -0.026062,-0.03142 -0.021096,-0.04471 0.02602,-0.06993 0.046976,-0.02513 0.066326,-0.02305 0.1002204,0.01086 0.046989,0.04698 0.042823,0.05587 -0.037777,0.08059 -0.034806,0.01073 -0.068556,0.0026 -0.088463,-0.02152 z m -1.216403,-0.206447 c -0.4733154,-0.06017 -1.7634986,-0.366392 -2.052567,-0.487175 -0.052752,-0.02203 -0.095911,-0.0587 -0.095911,-0.08147 0,-0.09143 0.3033346,-0.04118 1.5212826,0.252021 0.8539322,0.205569 1.146948,0.285329 1.1863342,0.322924 0.03158,0.03014 -0.302108,0.02636 -0.5591388,-0.0063 z m 1.832941,-0.249733 c -0.01562,-0.05872 -0.053945,-0.208844 -0.085198,-0.333616 -0.031241,-0.124771 -0.098021,-0.369156 -0.1483713,-0.543081 -0.1202166,-0.415286 -0.251567,-0.98667 -0.251567,-1.094365 0,-0.04709 -0.040494,-0.181607 -0.089952,-0.29892 -0.118192,-0.2802402 -0.1417158,-0.3855914 -0.086098,-0.3855914 0.059709,0 0.1528071,0.2013484 0.2776589,0.6005064 0.2698232,0.862642 0.492794,1.947392 0.4329106,2.106138 -0.018167,0.04822 -0.024831,0.04135 -0.049382,-0.05107 z M 6.8481591,12.084697 c 0,-0.08187 0.2099357,-0.545028 0.2470466,-0.545028 0.055528,0 -0.058628,0.437252 -0.1417499,0.542923 -0.070376,0.08947 -0.1052965,0.09017 -0.1052965,0.0021 z M 3.8440545,11.92751 c -0.049997,-0.03782 -0.04948,-0.03917 0.014899,-0.0391 0.036716,5.9e-5 0.096748,0.01727 0.1334472,0.03824 l 0.066722,0.03816 -0.081637,8.49e-4 c -0.044905,4.24e-4 -0.1049543,-0.01668 -0.1334482,-0.03825 z m 1.0176223,-0.170643 c -0.2510279,-0.06755 -0.2687535,-0.09473 -0.2687535,-0.412015 0,-0.144623 0.011418,-0.261724 0.025849,-0.265497 0.01422,-0.0039 0.040876,0.08333 0.059191,0.193424 0.033787,0.202982 0.092075,0.293579 0.1888822,0.293579 0.022666,0 0.103421,0.02946 0.1795015,0.06544 0.1102714,0.05217 0.1770396,0.06473 0.3291462,0.0619 0.1814413,-0.0034 0.2476492,0.01231 0.2102284,0.04971 -0.021987,0.02198 -0.1216683,0.0365 -0.3522795,0.05128 -0.1308409,0.0084 -0.2422543,-0.003 -0.3717878,-0.03782 z m 0.9820225,-0.150278 c -0.0084,-0.0219 0.017828,-0.130581 0.058262,-0.241493 0.082902,-0.227314 0.1349243,-0.233367 0.1282943,-0.01495 -0.00632,0.207952 -0.1364949,0.386889 -0.1865562,0.256422 z M 3.145319,11.524119 C 3.030336,11.316226 2.7668374,10.421937 2.6859345,9.9650056 2.6372737,9.6901862 2.6240987,9.5278416 2.6371979,9.3644994 2.6397454,9.3351265 2.633381,9.2570761 2.6230636,9.191021 2.60634,9.0820993 2.6082919,9.0756263 2.6437351,9.1214893 c 0.062673,0.08106 0.169705,0.4354829 0.2144349,0.7100722 0.022709,0.1394494 0.081997,0.4216885 0.1317323,0.6271965 0.1134337,0.468736 0.2113534,0.999728 0.1970489,1.068545 -0.010611,0.05101 -0.011715,0.05093 -0.04164,-0.003 z m 2.0125318,-0.08873 c -0.1627905,-0.01413 -0.1907244,-0.02517 -0.2602176,-0.102981 -0.062847,-0.07036 -0.077825,-0.111514 -0.077703,-0.213513 2.165e-4,-0.183096 0.041809,-0.30558 0.1335916,-0.393525 0.068127,-0.06528 0.1074403,-0.07902 0.2523862,-0.08825 0.2294991,-0.0146 0.3887367,0.05932 0.4976414,0.231048 0.106158,0.167392 0.1028684,0.418246 -0.00705,0.536209 -0.055202,0.05926 -0.1500648,0.06472 -0.5386658,0.03103 z m 1.0356959,-0.71211 c 0.059595,-0.142633 0.2054915,-0.358243 0.2315239,-0.342152 0.096404,0.05958 -0.095789,0.437936 -0.2224615,0.437936 -0.045969,0 -0.046547,-0.006 -0.00909,-0.09578 z m -2.048628,-0.08824 c -0.1056699,-0.116965 -0.1179585,-0.169658 -0.067274,-0.288456 0.057527,-0.134845 0.1021689,-0.168067 0.2258318,-0.168067 0.1339991,0 0.1614746,0.06045 0.045112,0.09924 -0.091196,0.0304 -0.1524716,0.211613 -0.1113963,0.329439 0.045932,0.131763 0.011121,0.142272 -0.092274,0.02784 z m 0.3532515,0.06229 c -0.019016,-0.02292 -0.03973,-0.104107 -0.04608,-0.180439 -0.021096,-0.254424 0.150048,-0.344762 0.2874893,-0.151746 0.086417,0.121363 0.0984,0.24888 0.02984,0.317457 -0.067358,0.06736 -0.2206533,0.07569 -0.2712366,0.01473 z m 1.2916265,-0.05293 c -0.024195,-0.06308 0.00623,-0.204091 0.075237,-0.348642 0.050231,-0.105213 0.077074,-0.132283 0.1381035,-0.13927 0.044815,-0.0052 0.096595,0.01019 0.1267747,0.03748 0.095696,0.08661 0.044003,0.357351 -0.085547,0.448093 -0.079982,0.05602 -0.2334255,0.05742 -0.2545681,0.0021 z m -0.846313,-0.20093 c -0.062439,-0.04911 -0.070312,-0.0738 -0.070223,-0.220186 1.571e-4,-0.2767681 0.1213033,-0.4081479 0.2673147,-0.2899138 0.1190663,0.096415 0.1074361,0.4399828 -0.017997,0.5316998 -0.063704,0.04659 -0.097614,0.04249 -0.1790941,-0.02161 z m 0.439248,-0.06769 c -0.043163,-0.05488 -0.053729,-0.09452 -0.041427,-0.155477 0.023685,-0.117487 0.1246651,-0.3143327 0.177515,-0.3460575 0.1090193,-0.065439 0.2388542,0.1978605 0.1822053,0.3695085 -0.034637,0.104902 -0.094791,0.164374 -0.1904696,0.188246 -0.056004,0.01397 -0.081379,0.003 -0.1278146,-0.05622 z M 3.2530013,10.265258 C 3.2258354,10.137121 3.225623,9.5212709 3.2527339,9.4234574 c 0.047913,-0.1729138 0.072452,-0.020587 0.072452,0.4497107 0,0.4780319 -0.025085,0.6142289 -0.072185,0.3920899 z m 0.1918916,-0.199549 c -0.021775,-0.1160014 -0.0076,-0.5687684 0.018634,-0.5949323 0.010021,-0.010021 0.032769,-0.00925 0.050494,0.0017 0.023557,0.01456 0.028142,0.097652 0.017021,0.3085508 -0.017063,0.3230255 -0.055274,0.4493255 -0.086166,0.2846545 z m 2.63126,-0.097423 C 5.9911919,9.944563 5.9764969,9.894124 6.0479259,9.871453 c 0.037013,-0.01176 0.074684,-0.00172 0.1082255,0.028562 0.091638,0.082928 0.062239,0.108013 -0.079998,0.068271 z M 4.6990266,9.858987 C 4.7250036,9.6522773 4.824549,9.5552194 4.9958286,9.5696088 5.1389621,9.5816215 5.1335459,9.6224459 4.9794448,9.6931443 4.8805698,9.7385084 4.8333188,9.7799562 4.7992514,9.8512189 4.731392,9.9931597 4.6817002,9.9970094 4.6990395,9.8589441 Z M 5.3699341,9.7589565 C 5.3356374,9.7246653 5.3569879,9.697434 5.4592587,9.6452724 5.5889324,9.5791201 5.6511674,9.5774216 5.724103,9.6380515 5.804284,9.7047092 5.7622193,9.7662901 5.6663636,9.7226091 5.6104536,9.6971374 5.5765851,9.699176 5.4916543,9.7332312 5.43371,9.7564068 5.3789337,9.7680375 5.369935,9.7590355 Z M 7.1561077,9.5286766 c -0.101332,-0.074094 0.032599,-0.139135 0.1686735,-0.081913 0.0987,0.041512 0.107453,0.078662 0.023813,0.1010777 C 7.25635,9.5725461 7.2097987,9.5679185 7.156121,9.5286563 Z M 6.4022854,9.3814737 C 6.2818268,9.356303 6.1747345,9.3271677 6.1643055,9.3167387 c -0.01044,-0.01044 0.052922,-0.018974 0.1407777,-0.018974 0.1644245,0 0.4216326,0.061404 0.450093,0.1074488 0.023091,0.037352 -0.1003052,0.029034 -0.3528908,-0.02377 z M 5.4603236,9.2957023 C 4.8818346,9.2409041 4.2147346,9.1299067 4.0191076,9.0559014 3.9090144,9.0142618 3.7318644,8.9664838 3.6254386,8.949743 3.1345079,8.8725162 3.6791627,8.8400318 4.2597531,8.9119236 c 0.4334243,0.053661 1.0583115,0.1801892 1.2939824,0.2620131 0.2583667,0.089702 0.2802351,0.099592 0.2802351,0.1267109 0,0.026614 -0.046976,0.02602 -0.373647,-0.00492 z M 2.4267187,8.8022333 c -0.00883,-0.023006 -0.00254,-0.055519 0.014389,-0.072252 0.037565,-0.037566 0.1265496,0.039179 0.098348,0.084829 -0.026656,0.043104 -0.094253,0.03557 -0.1127206,-0.012564 z m 7.0083947,3.1863397 c 0.2141892,-0.07707 0.2552853,-0.101457 0.2760796,-0.163852 0.038842,-0.116455 0.011545,-0.142581 -0.1704223,-0.163168 -0.092207,-0.01041 -0.2394138,-0.04813 -0.3271293,-0.08377 -0.1862,-0.07565 -0.2303484,-0.08011 -0.2303484,-0.02322 0,0.04865 0.049141,0.396806 0.068932,0.488397 0.016215,0.0751 0.027463,0.0735 0.3828876,-0.0544 z M 9.0366735,9.7593353 c 0,-0.010408 -0.1231964,-0.1394743 -0.2737748,-0.2869075 C 8.4067989,9.1237563 8.2347,8.891549 8.1629742,8.662971 8.0556994,8.321112 8.0574482,8.2995323 8.2141093,8.0333383 L 8.353533,7.7964323 8.6083641,7.676984 C 8.8618241,7.5581807 8.8641332,7.5576799 9.0375692,7.5835424 9.2590927,7.616566 9.6684842,7.812825 9.8531004,7.9744822 10.093274,8.184787 10.44614,8.3565505 10.490513,8.2847567 10.520098,8.23689 9.8244653,7.7488626 9.5615148,7.6330095 9.2870735,7.5120882 8.9298064,7.456789 8.7680177,7.5101823 8.643115,7.5513978 8.6042001,7.527543 8.5263237,7.3618493 8.484514,7.2729113 8.4361208,7.2292977 8.2803341,7.1401645 8.1736664,7.0791304 8.0725421,7.0291969 8.055623,7.0291969 c -0.016936,0 -0.073144,0.028737 -0.1249367,0.063902 -0.097237,0.065987 -0.5158976,0.1463677 -0.5743123,0.1102672 -0.044649,-0.027591 -0.00497,-0.067414 0.067146,-0.067414 0.035825,0 0.1476328,-0.042065 0.2484854,-0.09345 C 7.8389088,6.9574436 7.8567999,6.9402915 7.8712062,6.8515062 7.8799077,6.797858 7.88097,6.7441423 7.873749,6.7321385 7.8509984,6.6953376 7.5926308,6.6288581 7.472461,6.6288581 c -0.062435,0 -0.2002578,-0.018252 -0.3062847,-0.040537 C 7.0211455,6.5578024 6.9364438,6.5540675 6.8241476,6.5731251 6.7420514,6.5870895 6.5908113,6.612133 6.4880614,6.6288398 6.1870571,6.677751 5.8652497,6.8749652 5.9260118,6.9732838 c 0.02984,0.048295 0.2440243,0.1305183 0.3766651,0.144602 0.074187,0.0079 0.1869253,0.035146 0.2505269,0.060597 0.1062225,0.042501 0.111668,0.049178 0.066853,0.081947 -0.098055,0.071699 -0.4675979,0.029883 -0.5609629,-0.063491 -0.032938,-0.032895 -0.054655,-0.036759 -0.087639,-0.015536 -0.073951,0.047633 -0.043729,0.4136571 0.06566,0.7952544 0.1234809,0.4307416 0.1222075,0.4284537 0.283126,0.5097215 0.077622,0.039221 0.1891707,0.1041763 0.2478868,0.1443941 0.073484,0.050329 0.158359,0.079094 0.2723276,0.092296 0.1945784,0.022539 0.3079399,-0.00751 0.5016568,-0.1330694 0.073398,-0.047566 0.1769292,-0.1003556 0.2300722,-0.117309 0.093679,-0.029883 0.099706,-0.039943 0.1976091,-0.3301565 0.091752,-0.2719709 0.1007,-0.3236282 0.09789,-0.5652712 -0.0034,-0.2881643 0.00527,-0.3068364 0.1416604,-0.3073628 0.1452814,-4.244e-4 0.3869923,0.1941923 0.3869923,0.3118111 0,0.099656 -0.043813,0.1602309 -0.1689197,0.2335487 -0.1593054,0.093361 -0.2196303,0.165995 -0.2719709,0.3274822 -0.036886,0.1137776 -0.039941,0.1628201 -0.016554,0.2668901 0.015747,0.070121 0.036419,0.1995574 0.04591,0.2876337 0.011885,0.1100423 0.035867,0.1810042 0.076659,0.2268547 0.032684,0.036716 0.087248,0.1087604 0.1212947,0.1601375 0.092851,0.1401028 0.2145666,0.2647976 0.3316845,0.3398173 0.057626,0.036886 0.1808896,0.1316772 0.2739236,0.210602 0.1517618,0.1287428 0.2485055,0.177272 0.2485055,0.1246506 z M 7.2543074,8.4129108 c 0.00658,-0.019738 0.033363,-0.040069 0.059527,-0.045133 0.030434,-0.0059 0.043257,0.00382 0.035613,0.026698 -0.00658,0.019738 -0.033363,0.040069 -0.059523,0.045133 -0.030434,0.0059 -0.043261,-0.00382 -0.035613,-0.026698 z m 0.327164,-0.2294057 c 0.025807,-0.065448 0.070304,-0.5344806 0.061407,-0.6472139 -0.00611,-0.077609 0.00212,-0.094774 0.049038,-0.1014639 0.047243,-0.00675 0.059217,0.00951 0.073666,0.099855 0.02916,0.1823794 -0.097452,0.6955264 -0.1716192,0.6955264 -0.018634,0 -0.023599,-0.018507 -0.012479,-0.046704 z M 6.2614058,7.8521135 c 4.244e-4,-0.2019939 0.025128,-0.2828118 0.076675,-0.250943 0.057387,0.035485 0.019313,0.4145908 -0.043719,0.4355635 -0.024705,0.00824 -0.033278,-0.039772 -0.032938,-0.1846205 z M 6.1143334,7.7192479 c -0.030816,-0.079413 -0.0034,-0.2496782 0.0399,-0.2496782 0.055312,0 0.067048,0.1714834 0.016427,0.2401999 -0.034934,0.047447 -0.041215,0.048499 -0.056348,0.00946 z M 6.93045,7.2327868 c 0.03124,-0.027887 0.2646702,-0.044102 0.2646702,-0.018421 0,0.016299 -0.058453,0.028312 -0.1378956,0.028312 -0.075843,0 -0.1328911,-0.00445 -0.1267746,-0.00994 z M 6.3900608,6.9832021 C 6.2398897,6.9673268 6.2228475,6.8473608 6.3630226,6.7926857 c 0.1934791,-0.075477 0.335076,-0.093849 0.715056,-0.092771 0.3408488,8.489e-4 0.419226,0.009 0.5056383,0.051785 C 7.8902096,6.9034663 7.5684361,7.0073581 6.8214903,6.9977991 6.638003,6.9952563 6.4438703,6.988883 6.3900821,6.9831975 Z M 4.0697292,6.4778609 C 4.2817786,6.4195692 4.5191982,6.2993143 4.6926978,6.1623272 4.8861472,6.0095881 4.9882859,5.8158543 5.0482923,5.4878711 5.106601,5.169154 5.0758825,5.0111727 4.9124512,4.789157 4.8111062,4.6514905 4.7762619,4.62424 4.6558457,4.5884789 4.5792131,4.5657277 4.4395093,4.547094 4.345393,4.547094 4.188439,4.547094 4.1446342,4.561696 3.816112,4.7234205 3.4858876,4.8859944 3.4463276,4.9135761 3.3089626,5.0770541 3.112041,5.3114048 3.057646,5.4417492 3.0392582,5.7233257 3.0203272,6.0134638 3.0493654,6.1017014 3.2261115,6.291025 3.3429961,6.4162206 3.3929385,6.4484077 3.5386994,6.4924968 3.7235662,6.5484111 3.823018,6.5456697 4.0697292,6.4778532 Z M 3.7593356,6.1766868 C 3.6439706,6.1482051 3.440037,5.9913277 3.4099553,5.9079332 3.3733662,5.806516 3.4187844,5.5483827 3.4965841,5.4156443 3.6157608,5.2122879 3.9779601,4.9509965 4.2590103,4.8656326 4.4244834,4.8153675 4.4480029,4.8140605 4.5346699,4.8502671 4.7607394,4.9447231 4.8523853,5.2698539 4.7383743,5.5729381 4.6553153,5.7937398 4.3664379,6.0784999 4.1691259,6.1340792 3.9739489,6.1890515 3.8581764,6.2010892 3.7593356,6.1766825 Z M 7.3085539,5.965291 C 7.6858598,5.8416575 7.8123033,5.7348581 7.8770935,5.4850781 7.9099892,5.3582058 7.8975955,5.2441737 7.8127025,4.8940589 7.7967007,4.8280042 7.7832446,4.7319222 7.7827776,4.6805494 7.7819287,4.6037042 7.7546777,4.558567 7.6280054,4.4260918 7.5415166,4.3356386 7.4158159,4.2376722 7.3412333,4.2025903 7.2259108,4.1483396 7.1810535,4.1419982 7.0001597,4.1543628 6.6490475,4.1783877 6.3500085,4.3640904 6.2360907,4.6289049 6.1655069,4.7929813 6.1295037,5.3224236 6.1772216,5.4945692 6.213895,5.626883 6.5612128,6.0060565 6.6613183,6.0230818 6.8678284,6.058185 7.0838678,6.0389141 7.3085366,5.9652912 Z M 6.8797648,5.6937106 C 6.7379854,5.6648046 6.6101623,5.5879045 6.5051712,5.4683245 6.4067041,5.356177 6.3696017,5.133049 6.4186188,4.9478427 6.4633485,4.7788551 6.6451338,4.4821083 6.755503,4.3979285 6.8954869,4.2911547 7.0973322,4.2925554 7.2527326,4.4013279 7.5253361,4.5922221 7.6661732,4.947978 7.5976902,5.2726801 7.5614836,5.4443121 7.4691709,5.5544349 7.2899921,5.6397225 7.1502459,5.7062399 7.0233482,5.7229259 6.8797648,5.6936587 Z M 11.719557,13.96907 c -0.04495,-0.04966 -0.0451,-0.05665 -0.0026,-0.121376 0.122688,-0.187248 0.421178,-0.258977 0.495987,-0.119197 0.09456,0.176682 -0.353409,0.395151 -0.493299,0.240573 z m -0.263061,-0.151924 c -0.03786,-0.03786 -0.0149,-0.1114 0.04753,-0.152315 0.07537,-0.04939 0.148188,-0.03201 0.148188,0.03535 0,0.08628 -0.141716,0.170939 -0.19572,0.116935 z M 1.4232183,13.343389 C 1.205167,13.253717 1.143,13.207073 1.0615751,13.072046 1.0035085,12.975753 0.96270479,12.94298 0.84687283,12.899591 0.59440599,12.805025 0.48269556,12.708218 0.37530621,12.49093 0.24659609,12.2305 0.23243593,12.114775 0.31443385,11.993386 c 0.0347215,-0.05137 0.1249495,-0.126741 0.20054221,-0.167472 0.11903241,-0.06414 0.14320989,-0.09142 0.18050323,-0.203704 0.023685,-0.0713 0.06454,-0.14908 0.0907929,-0.172838 0.15114307,-0.136783 0.64885661,-0.248604 1.16914731,-0.262666 l 0.2716144,-0.0073 0.144564,0.148027 c 0.2365451,0.242221 0.2350256,0.238052 0.2394952,0.656594 0.00424,0.378745 -0.042107,0.660602 -0.1237016,0.755547 -0.019483,0.02266 -0.047438,0.07722 -0.062167,0.121248 -0.067358,0.20142 -0.193356,0.329345 -0.4078079,0.414046 -0.051377,0.02029 -0.1294445,0.0585 -0.1734783,0.08489 -0.1077883,0.0646 -0.2360019,0.05963 -0.42072,-0.01634 z m 0.6022039,-0.22014 c 0.1614235,-0.05139 0.2349194,-0.157157 0.3122016,-0.44929 0.053024,-0.200436 0.080567,-0.689033 0.041045,-0.728533 -0.0079,-0.0079 -0.046186,0.0026 -0.085037,0.02348 -0.076963,0.04126 -0.7197379,0.04925 -0.9381287,0.01167 -0.085669,-0.01473 -0.126261,-0.0097 -0.1601332,0.02008 -0.024959,0.0219 -0.070813,0.04753 -0.101905,0.057 -0.12352324,0.03752 -0.14199159,0.09105 -0.11210509,0.324766 0.0499465,0.390583 0.19274899,0.585675 0.50686929,0.692457 0.068598,0.0233 0.1397122,0.06046 0.1580362,0.08255 0.037819,0.04558 0.1645393,0.03417 0.3791353,-0.03417 z M 1.5503537,12.927508 c -0.028863,-0.04668 0.013923,-0.08611 0.055758,-0.0514 0.020714,0.01719 0.03765,0.0418 0.03765,0.05468 0,0.03217 -0.073089,0.02962 -0.093416,-0.0034 z M 1.307361,12.778652 C 1.1849328,12.718245 1.0966401,12.51316 1.0966401,12.289187 c 0,-0.157909 0.0054,-0.175698 0.053377,-0.175698 0.03697,0 0.055872,0.02049 0.061501,0.06672 0.015026,0.123672 0.115174,0.397595 0.1805414,0.493919 0.1032,0.152077 0.077062,0.184331 -0.084698,0.104526 z m 0.9428529,-0.427917 c -0.030392,-0.03039 -0.022496,-0.192088 0.010397,-0.212402 0.033278,-0.02058 0.076051,0.03345 0.076676,0.09683 4.244e-4,0.05569 -0.062829,0.13981 -0.087066,0.115572 z M 0.92489779,12.67853 c -0.0255526,-0.06718 -0.0788098,-0.09208 -0.11645169,-0.05444 -0.0205863,0.02058 0.0178703,0.096 0.0811791,0.159314 0.0397721,0.03977 0.0480534,0.04079 0.054628,0.0067 0.004242,-0.02211 -0.004456,-0.07232 -0.0193553,-0.111523 z M 0.72593455,12.387073 c 0.001695,-0.106436 0.0121824,-0.233885 0.0234729,-0.283215 0.0380324,-0.166119 -0.11251265,-0.166382 -0.17040949,-2.97e-4 -0.0612803,0.175786 -0.0214775,0.379797 0.0890568,0.456562 0.0507234,0.03522 0.0548913,0.02275 0.0578716,-0.17305 z M 1.8702381,11.871705 c 0.2764831,-0.03914 0.2991281,-0.04706 0.3807101,-0.133057 0.047705,-0.05029 0.086739,-0.108204 0.086739,-0.128697 0,-0.04293 -0.1509564,-0.164722 -0.2515925,-0.202983 -0.076858,-0.02921 -0.7360372,0.01082 -0.9023932,0.05483 -0.068853,0.01821 -0.120535,0.05695 -0.16681,0.125047 -0.0368857,0.05427 -0.067044,0.107325 -0.067044,0.117912 0,0.01062 0.0870745,0.06129 0.1934961,0.112673 0.2248598,0.108574 0.3024263,0.114368 0.7268942,0.05428 z m -0.6401508,-0.11446 c -0.1510539,-0.02462 -0.145676,-0.101329 0.013328,-0.190364 0.1121816,-0.06281 0.1429934,-0.06705 0.467063,-0.06435 0.3658454,0.003 0.5036476,0.03341 0.4890206,0.107746 -0.01231,0.06261 -0.06142,0.08103 -0.3021972,0.113408 -0.3091751,0.04156 -0.545228,0.05344 -0.6672273,0.03353 z m 1.8933591,1.612266 c -0.04721,-0.03498 -0.048074,-0.04219 -0.00972,-0.08117 0.033066,-0.03357 0.057383,-0.03693 0.1134295,-0.01562 0.084268,0.03205 0.091111,0.06937 0.019738,0.107575 -0.06493,0.03476 -0.061619,0.03502 -0.1234256,-0.01078 z m 6.5537689,-0.03858 c 0,-0.01299 0.031071,-0.04399 0.06907,-0.06887 0.052899,-0.03463 0.065372,-0.06001 0.053282,-0.108192 -0.021138,-0.08429 0.025082,-0.107342 0.1073084,-0.05347 0.090097,0.05903 0.072248,0.120085 -0.05641,0.192953 -0.1123556,0.06364 -0.1732534,0.07685 -0.1732534,0.03761 z M 3.6081587,13.29315 c -0.065108,-0.04766 -0.0399,-0.167659 0.040579,-0.193199 0.077117,-0.02449 0.1969002,0.06721 0.1969002,0.150706 0,0.05367 -0.014856,0.06509 -0.093411,0.0717 -0.051377,0.0043 -0.1162013,-0.0088 -0.1440545,-0.02921 z m 5.8197137,-0.143477 c -0.00994,-0.01 0.00784,-0.04554 0.039345,-0.07915 l 0.057414,-0.06112 -0.1100425,-0.01762 c -0.1170288,-0.01872 -0.1889843,-0.07267 -0.1385114,-0.103861 0.032852,-0.02029 0.1995574,0.02789 0.2876844,0.08317 0.033023,0.02071 0.060047,0.061 0.060047,0.08949 0,0.07561 -0.1439734,0.141032 -0.195962,0.08904 z m -6.3869375,-0.09011 c -0.08648,-0.0554 -0.1283622,-0.149076 -0.099864,-0.223348 0.022837,-0.05954 0.1480997,-0.053 0.2934276,0.01532 0.220144,0.103486 0.22056,0.263257 8.49e-4,0.262362 -0.064251,-2.64e-4 -0.1452006,-0.02292 -0.1942432,-0.05432 z m 0.5115978,-0.122038 c -0.064947,-0.06494 -0.041512,-0.155148 0.042862,-0.164928 0.066063,-0.0077 0.1568182,0.05109 0.1568182,0.101532 0,0.03574 -0.07991,0.106758 -0.1201021,0.106758 -0.019907,0 -0.055732,-0.01953 -0.079578,-0.04336 z m 6.178059,-0.03137 c 0,-0.01176 0.015029,-0.03643 0.033363,-0.05482 0.026701,-0.02678 0.020115,-0.04347 -0.03298,-0.08358 -0.087423,-0.06605 -0.05462,-0.09368 0.064538,-0.05435 0.1069853,0.03531 0.1244564,0.09929 0.046391,0.169935 -0.051459,0.04657 -0.111329,0.05884 -0.111329,0.02279 z m 5.2221863,-0.07651 c -0.03345,-0.03344 -0.01787,-0.143991 0.02246,-0.159459 0.0649,-0.02491 0.226655,0.01565 0.226655,0.05685 0,0.07738 -0.194294,0.157417 -0.249097,0.102616 z m -4.468216,-0.104561 c -0.109707,-0.04797 -0.115798,-0.117847 -0.01028,-0.117847 0.07596,0 0.217113,0.08801 0.217113,0.135382 0,0.03561 -0.105862,0.02662 -0.206842,-0.01753 z m 0.353515,-0.09135 c -0.02118,-0.0343 0.05377,-0.06391 0.108565,-0.04289 0.05348,0.02049 0.02402,0.06977 -0.04172,0.06977 -0.02763,0 -0.0577,-0.0121 -0.06683,-0.02688 z m -1.1608617,-0.04543 c 0,-0.01383 0.027502,-0.05099 0.061121,-0.08257 0.053666,-0.05042 0.073406,-0.05403 0.1617926,-0.02962 0.1220501,0.0337 0.1152041,0.08948 -0.011673,0.0952 -0.050121,0.0021 -0.118149,0.01265 -0.1511768,0.02313 -0.033235,0.01051 -0.060047,0.0078 -0.060047,-0.0061 z M 11.777759,12.45699 c -0.02381,-0.02381 0.02509,-0.1073 0.07388,-0.126016 0.04813,-0.01846 0.120844,0.0049 0.120844,0.03893 0,0.01311 -0.02008,0.02385 -0.04461,0.02385 -0.02454,0 -0.06454,0.01804 -0.0889,0.04007 -0.02437,0.02207 -0.05191,0.03247 -0.06121,0.02318 z M 9.2768778,12.40683 c 0,-0.03505 0.090607,-0.09144 0.1483586,-0.09233 0.030219,-4.25e-4 0.078263,0.01677 0.1067568,0.03834 0.051119,0.03867 0.051102,0.03922 -0.00171,0.04032 -0.029376,4.24e-4 -0.098416,0.0086 -0.1534602,0.0177 -0.055046,0.0091 -0.1000841,0.0073 -0.1000841,-0.0039 z m 0.7572052,-0.133885 c 0.0097,-0.02538 0.003,-0.06378 -0.01486,-0.08534 -0.02734,-0.03294 -0.022032,-0.03773 0.03289,-0.02997 0.08295,0.01172 0.09514,0.136232 0.01486,0.151695 -0.03859,0.0074 -0.0464,-0.0013 -0.03289,-0.03638 z m -0.4369342,-0.06412 c 0,-0.0416 0.137161,-0.13542 0.1970952,-0.134788 0.031029,3.27e-4 0.086476,0.02475 0.1231706,0.05426 l 0.066727,0.05366 -0.098446,-0.0169 c -0.069257,-0.01189 -0.116515,-0.0043 -0.1593985,0.0258 -0.067681,0.0474 -0.1291474,0.05594 -0.1291474,0.01795 z m -7.634246,-1.632089 c -0.020459,-0.03821 -0.021648,-0.06584 -0.00382,-0.08383 0.036334,-0.03633 0.084868,-0.0026 0.084868,0.05926 0,0.07521 -0.04656,0.0893 -0.081203,0.02457 z"
       id="path1" /></g></svg>
