<?xml version="1.0" encoding="UTF-8" standalone="no"?>
<!-- Created with Inkscape (http://www.inkscape.org/) -->

<svg
   width="16"
   height="16"
   viewBox="0 0 16 16"
   version="1.1"
   id="svg1"
   xml:space="preserve"
   inkscape:export-filename="bitmap3.svg"
   inkscape:export-xdpi="96"
   inkscape:export-ydpi="96"
   sodipodi:docname="bitmap4.svg"
   xmlns:inkscape="http://www.inkscape.org/namespaces/inkscape"
   xmlns:sodipodi="http://sodipodi.sourceforge.net/DTD/sodipodi-0.dtd"
   xmlns="http://www.w3.org/2000/svg"
   xmlns:svg="http://www.w3.org/2000/svg"><sodipodi:namedview
     id="namedview1"
     pagecolor="#505050"
     bordercolor="#eeeeee"
     borderopacity="1"
     inkscape:showpageshadow="0"
     inkscape:pageopacity="0"
     inkscape:pagecheckerboard="0"
     inkscape:deskcolor="#505050"
     inkscape:document-units="px"
     showguides="false"><inkscape:page
       x="0"
       y="0"
       width="16"
       height="16"
       id="page2"
       margin="0"
       bleed="0" /></sodipodi:namedview><defs
     id="defs1" /><g
     inkscape:label="Capa 1"
     inkscape:groupmode="layer"
     id="layer1"><path
       style="fill:#000000;stroke-width:0.0211963"
       d="m 11.270334,15.803965 c -0.07274,-0.01993 -0.176893,-0.07029 -0.231458,-0.111908 -0.111575,-0.0851 -0.263982,-0.368761 -0.291427,-0.542402 -0.0098,-0.06179 -0.03169,-0.121698 -0.04871,-0.133118 -0.01703,-0.01141 -0.160759,-0.02096 -0.319406,-0.02119 -0.165354,-2.3e-4 -0.4789278,-0.03025 -0.7348052,-0.07029 C 9.399026,14.886629 9.0709872,14.836289 8.9155477,14.813182 8.4916416,14.750167 8.13835,14.743612 8.13835,14.798761 c 0,0.08501 -0.2390901,0.515211 -0.349442,0.628754 -0.1559476,0.160459 -0.3623965,0.233388 -0.5316584,0.18781 -0.2160077,-0.05817 -0.4244267,-0.31606 -0.5520867,-0.683147 -0.055094,-0.158422 -0.07456,-0.281969 -0.085937,-0.545415 -0.013853,-0.32075 0.032128,-1.122422 0.070045,-1.221231 0.011414,-0.02976 0.00618,-0.03828 -0.015352,-0.02497 -0.017976,0.01112 -0.059609,0.108838 -0.092514,0.217172 -0.039907,0.131383 -0.080027,0.208201 -0.1204912,0.2307 -0.063225,0.03516 -0.4970297,0.04116 -1.2442541,0.01721 -0.3680525,-0.0118 -0.3955253,-0.0166 -0.4451226,-0.07785 -0.029073,-0.0359 -0.05286,-0.105745 -0.05286,-0.155203 0,-0.08349 -0.00961,-0.09244 -0.1342434,-0.125167 -0.3594702,-0.09437 -0.608388,-0.182138 -0.6583929,-0.232143 -0.035412,-0.03541 -0.055216,-0.09375 -0.055216,-0.162642 0,-0.08921 0.051964,-0.186242 0.3064992,-0.572301 0.1685745,-0.255681 0.384777,-0.566029 0.4804501,-0.689663 0.1256366,-0.162354 0.17398,-0.2487 0.1740563,-0.310879 6.34e-5,-0.04735 0.026111,-0.128749 0.057898,-0.180885 0.085425,-0.140119 0.05497,-0.161133 -0.068982,-0.0476 C 4.6756029,11.184256 4.5832,11.183612 4.4522153,11.048741 4.2057878,10.795003 4.1649779,10.387469 4.3109555,9.6381106 4.3270731,9.5553708 4.3171372,9.545097 4.0471651,9.3653471 3.737514,9.15918 3.3895115,8.8770841 3.0229719,8.5351191 2.6845243,8.2193636 2.6278454,8.183823 2.4627385,8.183823 2.1082795,8.183823 1.7989856,8.060781 1.5392295,7.8164385 1.4316859,7.7152826 1.3271427,7.6447639 1.2534287,7.6236621 1.0226368,7.5575945 0.89985691,7.3675179 0.88083765,7.0468502 0.8737114,6.9266901 0.8565494,6.83538 0.84270144,6.8439387 0.80123083,6.8695686 0.62764871,6.7462277 0.56693332,6.6479878 0.4761436,6.5010874 0.47195556,6.3557216 0.55359426,6.1849858 0.59243667,6.1037518 0.65522511,6.0128981 0.69312394,5.983086 c 0.0553395,-0.04353 0.0689066,-0.080011 0.0689066,-0.1852852 0,-0.178684 0.0499171,-0.2844213 0.22438147,-0.4752978 C 1.1250129,5.1708626 1.1350712,5.1500311 1.1391733,5.0061264 1.1429521,4.873575 1.1564122,4.8388233 1.2356325,4.7570891 l 0.092068,-0.094989 -0.087526,-0.083216 C 1.1135363,4.458483 1.07291,4.3633608 1.07291,4.1872541 c 0,-0.2864298 0.2044887,-0.6670977 0.3823314,-0.7117337 0.050405,-0.012651 0.064204,-0.035996 0.064204,-0.1086148 0,-0.1193726 0.068839,-0.2509652 0.1683554,-0.3218265 C 1.8038494,2.9624448 2.0790852,2.8898568 2.2018983,2.9094951 2.3344946,2.930698 2.4521108,2.87053 2.6416922,2.6845104 2.7963859,2.5327242 3.0031111,2.4230415 3.5025893,2.2277414 3.9972936,2.0343081 4.2791872,2.0483491 4.4702601,2.2759387 l 0.088947,0.1059455 0.1153757,-0.081325 C 4.8290623,2.1916721 4.9720175,2.1705497 5.1157668,2.2353711 5.2258851,2.2850273 5.229656,2.2848779 5.2914336,2.2284048 5.4661607,2.0686704 5.7427999,2.021956 6.0263128,2.1043097 6.1864592,2.1508287 6.3861207,2.3298266 6.3861207,2.42688 c 0,0.1444565 -0.1464509,0.1778956 -0.256495,0.058565 -0.093542,-0.1014357 -0.2234366,-0.1517977 -0.391518,-0.1517977 -0.1252767,0 -0.1586434,0.014277 -0.2972569,0.1271783 C 5.2685813,2.6011412 5.1871145,2.6170204 5.0783678,2.5314796 4.9601377,2.4384796 4.8966682,2.4595436 4.7044633,2.65557 4.5532322,2.8098082 4.5254338,2.8541763 4.5141098,2.9593837 c -0.00967,0.089872 0.00246,0.1521357 0.044886,0.2301635 0.053628,0.098653 0.064834,0.1052396 0.1442405,0.084785 0.047353,-0.012198 0.1719402,-0.020857 0.276862,-0.019242 0.1390508,0.00214 0.1907669,-0.00701 0.1907669,-0.033752 0,-0.020177 0.031174,-0.07237 0.069277,-0.1159824 l 0.069277,-0.079296 0.1168784,0.065845 c 0.064284,0.036215 0.119877,0.061651 0.1235415,0.056524 0.00367,-0.00513 0.029697,-0.071433 0.057851,-0.1473465 C 5.6358432,2.9251695 5.7056103,2.816326 5.7627272,2.759209 5.8657601,2.6561766 5.8693467,2.6550799 6.2192845,2.6196429 6.4132747,2.5999979 6.6032995,2.5912279 6.6415623,2.6001539 6.7006803,2.6139439 6.7222263,2.5979339 6.784992,2.4935968 6.881433,2.333275 7.0967289,2.220601 7.3066241,2.220601 c 0.1601828,0 0.1520689,-0.00583 0.4374778,0.3145992 0.085244,0.095705 0.1726661,0.1653398 0.2192771,0.1746617 0.1521332,0.030427 0.4033538,0.1380728 0.4875295,0.208902 0.2468763,0.2077329 0.2609021,0.5667312 0.030602,0.7832848 l -0.087726,0.082491 0.1115096,0.049924 c 0.078231,0.035025 0.1178114,0.073665 0.1326237,0.1294728 0.029011,0.109301 0.029636,0.1276093 0.00663,0.1940355 -0.017276,0.049888 -0.00102,0.064713 0.1163641,0.1064213 0.1731602,0.061502 0.2644418,0.1934528 0.2486178,0.3593869 l -0.010691,0.1121175 h 0.178291 c 0.4503727,0 0.6709441,0.2649683 0.7840343,0.9418467 0.070047,0.4192571 0.051937,0.3864562 0.213374,0.3864562 0.163964,0 0.894691,0.071438 1.143259,0.1117691 0.09326,0.015132 0.296748,0.047847 0.452188,0.072698 0.155439,0.02485 0.318181,0.064527 0.361648,0.08817 0.09036,0.049146 0.07114,0.059348 0.359027,-0.1906603 0.573803,-0.4983116 1.041944,-0.732341 1.463936,-0.731841 0.311908,3.408e-4 0.604882,0.171958 0.82236,0.4816355 0.321137,0.457283 0.571584,1.4314386 0.435528,1.6940594 -0.06987,0.1348713 -0.18079,0.1718212 -0.284305,0.094712 -0.0734,-0.054676 -0.07869,-0.073985 -0.09631,-0.3516822 -0.02523,-0.3976921 -0.183871,-0.9097514 -0.362086,-1.1687786 -0.3774,-0.5485323 -0.847431,-0.4538343 -1.795424,0.3617274 -0.170984,0.1470968 -0.320418,0.2615885 -0.332076,0.2544242 -0.01166,-0.00716 -0.0212,-0.042099 -0.0212,-0.077632 0,-0.081481 -0.09,-0.1645464 -0.19096,-0.1762458 -0.04264,-0.00494 -0.119707,-0.017177 -0.17126,-0.02719 -0.07773,-0.015098 -0.107575,-0.00494 -0.174805,0.059464 -0.07869,0.075387 -0.08674,0.076945 -0.27367,0.052942 -0.191013,-0.024525 -0.192671,-0.02549 -0.201495,-0.1171285 -0.01121,-0.1164573 -0.08491,-0.1646099 -0.287851,-0.1880751 -0.14487,-0.016752 -0.165697,-0.011186 -0.30628,0.081792 -0.125251,0.08284 -0.176403,0.099766 -0.301503,0.099766 -0.172761,0 -0.24007,-0.019429 -0.24007,-0.069298 0,-0.049431 -0.09065,-0.1254712 -0.162687,-0.1364646 -0.033449,-0.0051 -0.092585,-0.043562 -0.1314158,-0.085461 -0.046729,-0.050423 -0.099541,-0.076179 -0.1561972,-0.076179 -0.09513,0 -0.087484,0.01746 -0.1548555,-0.3535571 C 9.5454346,5.6426591 9.5133727,5.5051151 9.4967955,5.4615137 9.4802191,5.4179122 9.466656,5.3471303 9.466656,5.3042199 9.466656,5.2577769 9.438381,5.1996379 9.396792,5.1605671 9.337418,5.1047891 9.299128,5.0954091 9.1417698,5.0980901 8.9266715,5.1017601 8.7539803,5.1682471 8.5717671,5.3175568 L 8.4495749,5.4176836 8.520058,5.5214081 c 0.038765,0.057049 0.070888,0.1293877 0.071382,0.1607541 4.719e-4,0.031365 0.01957,0.081715 0.042392,0.1118876 0.063083,0.083403 0.050836,0.1688506 -0.05795,0.4043044 -0.067514,0.1461244 -0.090201,0.2244799 -0.070655,0.2440253 0.015835,0.015834 0.02879,0.055473 0.02879,0.088086 0,0.090368 -0.2186883,0.5208812 -0.3373976,0.6642053 C 8.0790428,7.3366288 7.9274888,7.59123 7.4599828,8.4321824 L 7.1412371,9.0055431 7.0850926,8.9452798 c -0.039542,-0.042444 -0.08015,-0.05674 -0.1373313,-0.048347 -0.044653,0.00655 -0.081188,0.00778 -0.081188,0.00272 0,-0.00976 0.4230153,-0.7651238 0.654103,-1.1680086 L 7.6584649,7.4914237 7.5663329,7.4535266 C 7.5156604,7.4326849 7.432526,7.3840827 7.3815904,7.3455258 7.2910069,7.2769577 7.2860555,7.2763784 7.1554965,7.3190371 6.8245916,7.4271564 6.6026454,7.411037 6.3825097,7.262896 6.3024237,7.2090024 6.2347134,7.1684258 6.2320418,7.1727262 6.0545632,7.4583779 5.6453074,7.8531878 5.3440601,8.0293658 5.071107,8.1889968 4.5764174,8.3534066 4.3690615,8.3534066 4.1630693,8.3534066 4.0850452,8.2910959 4.0808029,8.1231982 4.0772559,7.9828321 4.1054224,7.9882753 3.6722956,8.0442552 3.5323089,8.0623469 3.4086072,8.0620637 3.3103213,8.0434425 3.1862343,8.019911 3.1490395,8.0229704 3.0901567,8.0615499 l -0.070853,0.046425 0.1784716,0.1818052 c 0.395705,0.403095 1.335883,1.1077081 1.538003,1.15265 0.1737735,0.03864 0.4457863,0.1356034 0.5559549,0.1981798 0.1138397,0.064662 0.1164055,0.064826 0.216358,0.013834 0.1005977,-0.051321 0.2672781,-0.1032453 0.3925165,-0.1222766 0.036073,-0.00548 0.093303,-0.042626 0.1271779,-0.082544 0.068995,-0.081306 0.3766362,-0.322767 0.5279085,-0.4143462 0.1099138,-0.06654 0.2689769,-0.082496 0.2468841,-0.024766 -0.00744,0.019431 -0.037411,0.1033933 -0.066612,0.1865852 -0.04387,0.1249815 -0.084402,0.1762241 -0.2333224,0.2949759 l -0.1802284,0.143717 0.017523,0.1854747 c 0.00963,0.1020105 0.017662,0.2427041 0.01783,0.3126521 2.299e-4,0.0756 0.022517,0.163605 0.055078,0.217004 l 0.054771,0.08983 0.1924135,-0.06156 c 0.1058281,-0.03386 0.2189733,-0.08982 0.2514353,-0.124352 0.051807,-0.05511 0.056493,-0.08275 0.038342,-0.226094 -0.046116,-0.3641885 -0.048643,-0.403532 -0.025925,-0.403532 0.013016,0 0.031534,0.024785 0.041149,0.055078 0.017864,0.056283 0.1081584,0.1012712 0.1841597,0.091755 0.089555,-0.01122 0.1188815,0.041749 0.1205394,0.2176916 0.00184,0.1945274 0.025259,0.2291824 0.2892566,0.4278984 0.3244855,0.244247 0.7341586,0.380145 1.0415336,0.345499 0.1011103,-0.01139 0.1360484,-0.0027 0.1845493,0.04577 0.079604,0.0796 0.076764,0.203632 -0.00645,0.281808 -0.091742,0.08619 -0.2935078,0.104675 -0.5697361,0.0522 C 7.8897953,11.082302 7.683628,10.997806 7.4248307,10.821586 7.239555,10.695426 7.1927864,10.674706 7.1581645,10.70344 c -0.023091,0.01916 -0.1115576,0.03761 -0.1965922,0.04098 -0.1765573,0.007 -0.4447525,0.123309 -0.493227,0.213883 -0.016778,0.03135 -0.02318,0.08618 -0.01423,0.121841 0.02302,0.09172 0.429386,0.465233 0.6123329,0.562831 0.084368,0.04501 0.1756537,0.101029 0.2028552,0.124492 0.05989,0.05166 0.066832,0.238654 0.010589,0.285329 -0.045564,0.03781 -0.048864,0.05671 -0.1624544,0.930155 -0.1158491,0.890813 -0.1260204,1.537321 -0.028517,1.81249 0.072827,0.20553 0.2183321,0.425599 0.2813958,0.425599 0.090337,0 0.2458874,-0.218296 0.3704217,-0.519845 0.068878,-0.166781 0.1475293,-0.315171 0.1747791,-0.329755 0.1237823,-0.06625 0.7078549,-0.01995 1.635919,0.129664 0.2646028,0.04266 0.6599074,0.08338 0.9138494,0.09415 l 0.447531,0.01897 0.110639,0.118611 c 0.09264,0.09932 0.11074,0.138326 0.11126,0.239818 0.0012,0.234548 0.148376,0.446217 0.310258,0.446217 0.09117,0 0.170095,-0.05267 0.376632,-0.251376 0.522885,-0.503043 0.80107,-1.067423 0.994313,-2.017256 0.02458,-0.120811 0.06879,-0.275886 0.09825,-0.34461 0.04725,-0.110226 0.06958,-0.129722 0.189493,-0.165396 0.332703,-0.09898 0.60681,-0.29921 0.644495,-0.470785 0.03139,-0.142932 -0.114152,-0.33982 -0.251204,-0.33982 -0.03029,0 -0.07885,-0.02151 -0.107906,-0.04781 -0.04649,-0.04208 -0.07232,-0.04378 -0.215354,-0.01424 -0.30375,0.06274 -0.657344,0.074 -0.774823,0.02467 -0.180702,-0.07587 -0.213751,-0.276667 -0.06191,-0.376157 0.06095,-0.03994 0.08697,-0.04174 0.17645,-0.01221 0.120886,0.0399 0.430474,0.0071 0.78203,-0.08279 0.265742,-0.06797 0.391739,-0.133148 0.559482,-0.289435 0.123318,-0.114896 0.146328,-0.125222 0.268487,-0.120482 0.07348,0.0028 0.175827,0.02421 0.227428,0.04747 l 0.09382,0.04229 -0.220996,0.225976 c -0.121547,0.124286 -0.25099,0.244331 -0.287651,0.266766 l -0.06666,0.04079 0.08419,0.09013 c 0.123291,0.131983 0.185792,0.281576 0.198944,0.476169 0.01241,0.183535 -0.01891,0.275395 -0.156539,0.459156 -0.102459,0.136803 -0.381407,0.332721 -0.573405,0.402726 l -0.166179,0.06059 -0.03104,0.159198 c -0.198567,1.018419 -0.510205,1.664829 -1.073116,2.225904 -0.377281,0.376049 -0.59575,0.474068 -0.881873,0.395665 z M 6.2074283,13.339181 c 0.072949,-0.01459 0.090606,-0.03968 0.1493561,-0.212249 0.036645,-0.107638 0.083794,-0.209952 0.1047753,-0.227365 0.021387,-0.01775 0.085892,-0.02526 0.146805,-0.01709 l 0.108656,0.01457 0.062942,-0.451359 c 0.034617,-0.248246 0.058728,-0.453965 0.053579,-0.457149 -0.095892,-0.05932 -0.3765557,-0.278453 -0.4649989,-0.36306 l -0.1164946,-0.11144 -0.072988,0.07299 c -0.083542,0.08354 -0.1238262,0.08975 -0.2064977,0.03185 -0.043709,-0.03062 -0.067545,-0.09577 -0.093186,-0.254719 -0.021489,-0.133214 -0.045481,-0.206766 -0.063759,-0.195469 -0.016118,0.01 -0.060702,0.08961 -0.099078,0.176998 -0.1278307,0.291095 -0.2652066,0.375266 -0.428265,0.262402 -0.1213815,-0.08402 -0.1610354,-0.08791 -0.2364746,-0.02325 -0.1604436,0.137536 -0.886266,1.200776 -0.8467134,1.240328 0.030302,0.0303 0.5921146,0.189487 0.6726345,0.190586 0.079719,10e-4 0.1169482,0.05055 0.1283293,0.170505 l 0.00937,0.0988 0.3503588,0.02064 c 0.1926972,0.01135 0.3569687,0.02725 0.3650477,0.03533 0.020011,0.02001 0.3741582,0.01863 0.4765963,-0.0019 z M 5.4199574,11.172506 c 0.058216,-0.115427 0.1893339,-0.344909 0.2416997,-0.423021 0.1042142,-0.155454 0.027603,-0.127264 -0.1163226,0.0428 -0.2140072,0.252877 -0.2983022,0.378738 -0.2768764,0.413406 0.032216,0.05213 0.1179425,0.03335 0.1514993,-0.03319 z M 4.8317345,10.670851 c 0.091564,-0.06218 0.2548785,-0.157417 0.3629205,-0.21164 l 0.1964404,-0.09859 -0.025946,-0.120435 C 5.3251015,10.054292 5.1812172,9.935732 4.8788007,9.8394371 4.7414819,9.7957141 4.6194306,9.7709496 4.6075759,9.7844079 c -0.038462,0.043662 -0.09102,0.5699621 -0.070796,0.7089321 0.018792,0.129131 0.081861,0.290566 0.1135177,0.290566 0.00822,0 0.089872,-0.05087 0.1814356,-0.113055 z m 1.0733641,-0.469379 c 0.1102045,-0.0441 0.1136192,-0.04948 0.1136192,-0.178991 0,-0.073442 -0.00713,-0.1406552 -0.015835,-0.1493644 -0.016078,-0.016078 -0.289141,0.047612 -0.3150005,0.073472 -0.00776,0.00776 -0.00525,0.07851 0.00558,0.1572254 0.021995,0.159922 0.037799,0.167215 0.2116397,0.09766 z M 4.6061978,8.0411211 C 4.7224651,8.0092662 4.938412,7.9247937 5.0860795,7.8534059 5.3236137,7.7385742 5.3889079,7.689048 5.6524476,7.4238094 5.8727404,7.2020966 5.9767965,7.0724801 6.0519455,6.9261763 6.2035481,6.6310282 6.205072,6.6185897 6.094523,6.5786152 6.0428509,6.5599311 5.9843645,6.5446427 5.9645531,6.5446427 c -0.019811,0 -0.2033163,0.1646822 -0.407789,0.3659613 C 5.3522914,7.1118833 5.108689,7.3339157 5.0154252,7.4040103 4.9221614,7.4741049 4.7967875,7.5701363 4.7368168,7.6174153 4.676846,7.664693 4.6028618,7.703374 4.5724074,7.703374 c -0.042269,0 -0.051182,0.013202 -0.037664,0.055794 0.012814,0.040371 -0.010093,0.083595 -0.082881,0.1563812 -0.092438,0.092438 -0.1315525,0.1834904 -0.078825,0.1834904 0.01197,0 0.1168923,-0.026064 0.2331604,-0.057918 z M 2.7497711,7.7842585 c 0.1488552,-0.029895 0.1601533,-0.037739 0.1601533,-0.111207 0,-0.043475 0.012263,-0.1112991 0.027251,-0.1507217 0.029727,-0.078186 0.02327,-0.081429 -0.3098692,-0.1556383 -0.069948,-0.01558 -0.2012654,-0.053949 -0.2918167,-0.08526 L 2.1708509,7.2245008 2.0324945,7.3628577 c -0.076096,0.076095 -0.1650965,0.1468428 -0.1977786,0.1572154 -0.054226,0.017211 -0.048937,0.026571 0.060487,0.1070424 0.236464,0.1738982 0.515575,0.2252224 0.8545682,0.157143 z m 1.2340999,-0.0506 C 4.0879777,7.7101299 4.0820414,7.7048214 3.8849551,7.6452179 3.822779,7.6264132 3.6852364,7.5608167 3.5793048,7.499444 3.4733729,7.4380712 3.370082,7.3942343 3.349769,7.4020297 3.298969,7.4215237 3.1837831,7.6663381 3.2074184,7.704581 c 0.010544,0.017059 0.046483,0.042784 0.079866,0.057168 0.064809,0.027923 0.532141,0.00908 0.6965866,-0.028091 z M 4.7840853,7.2416044 C 4.9778346,7.1077401 5.3829844,6.6981165 5.3449106,6.6745858 5.3285963,6.6645031 5.1045358,6.7395497 4.8470004,6.8413578 4.3415184,7.0411816 4.1375315,7.1018842 3.8632222,7.1341069 l -0.1760996,0.020687 0.1554398,0.080664 C 4.0721215,7.3545866 4.1156611,7.3639557 4.3884207,7.35293 4.6203673,7.34355 4.6476277,7.335884 4.7840853,7.2416044 Z M 1.5899929,7.1805315 c 0.071251,-0.054404 0.1391519,-0.098916 0.1508919,-0.098916 0.027173,0 0.179878,-0.1454336 0.179878,-0.171313 0,-0.010691 -0.051732,0.00617 -0.1149606,0.03745 -0.097683,0.048329 -0.130673,0.05217 -0.2195046,0.025555 C 1.4058887,6.9192561 1.3438821,6.7366095 1.4263781,6.5022488 1.4378372,6.4696961 1.4208819,6.4816797 1.3863961,6.5305102 1.2546375,6.7170734 1.2055415,7.041251 1.285599,7.196065 1.3436122,7.3082505 1.4283899,7.3039246 1.5899929,7.1805321 Z M 3.2485621,6.9309366 c 0.1009613,-0.084954 0.1086481,-0.086626 0.2140643,-0.046545 0.053975,0.020522 0.087216,0.019505 0.114957,-0.00352 0.022118,-0.018357 0.076065,-0.024981 0.1245149,-0.015289 0.1908311,0.038166 0.960055,-0.1943426 0.960055,-0.2901899 0,-0.025272 0.083705,-0.2237583 0.1860118,-0.4410797 0.1023065,-0.2173216 0.2044787,-0.4456388 0.2270494,-0.5073726 0.022572,-0.061733 0.067041,-0.1399212 0.098823,-0.1737522 l 0.057786,-0.061511 -0.1291394,-0.08885 C 4.9059101,5.1674449 4.6887096,5.0756633 4.563237,5.0748758 4.4371047,5.0740631 4.403971,5.0583309 4.3555359,4.9761164 4.3249834,4.9242577 4.3235772,4.9255706 4.3384928,4.9920347 4.3618041,5.0959029 4.2781003,5.1847013 4.1410578,5.2014851 3.9642467,5.2231395 3.630652,5.3975589 3.463265,5.5558667 3.2959074,5.7141468 3.1204014,6.01605 3.0927002,6.1933086 c -0.015114,0.096712 -0.00428,0.1294118 0.083631,0.2523298 0.1174693,0.1642534 0.1253897,0.2370644 0.03697,0.3398577 -0.05078,0.059035 -0.079542,0.070538 -0.1390367,0.055606 -0.07321,-0.018375 -0.2491268,-0.1848251 -0.2491268,-0.2357203 0,-0.014054 -0.022256,-0.042395 -0.049458,-0.06298 -0.042075,-0.031837 -0.044185,-0.03151 -0.014131,0.0022 0.01943,0.021788 0.035327,0.076858 0.035327,0.1223754 0,0.1215199 0.1552048,0.3768121 0.2481884,0.4082383 0.061429,0.020763 0.080534,0.016466 0.095346,-0.021445 0.010188,-0.026074 0.058856,-0.081346 0.10815,-0.1228236 z M 3.5712494,6.3072437 c -0.077875,-0.077875 -0.09609,-0.1179469 -0.09609,-0.2113918 0,-0.2530565 0.146577,-0.4436077 0.284468,-0.3698101 0.065098,0.034839 0.069862,0.1253239 0.013679,0.2597903 -0.072571,0.1736869 0.039406,0.2076962 0.3445531,0.1046465 0.1352238,-0.045666 0.1860265,-0.051647 0.2315816,-0.027267 0.058187,0.03114 0.076534,0.1264852 0.036461,0.18948 -0.045606,0.071693 -0.3175768,0.1506423 -0.5189505,0.1506423 -0.1893274,0 -0.2045628,-0.00495 -0.2957022,-0.09609 z M 4.4077393,5.9086825 C 4.3865725,5.8831796 4.3793888,5.8317676 4.3897499,5.7799571 l 0.017253,-0.086264 -0.1371714,0.074659 C 4.102794,5.8592656 4.0091592,5.8525795 3.9722188,5.747104 3.9377132,5.6485802 3.9987009,5.5760796 4.1716443,5.5100314 4.2693393,5.4727214 4.2925052,5.4516234 4.2797849,5.4115454 4.2596459,5.3480924 4.3573909,5.244602 4.437462,5.244602 c 0.081705,0 0.2133159,0.073121 0.2653675,0.147436 0.1131085,0.1614842 -0.027018,0.5591084 -0.1970362,0.5591084 -0.034548,0 -0.078672,-0.019109 -0.098055,-0.042463 z M 4.4526883,5.534427 c -0.030395,-0.030395 -0.046531,0.012175 -0.025194,0.066467 0.020016,0.05093 0.021526,0.051017 0.031425,0.00184 0.00572,-0.028419 0.00292,-0.059153 -0.00623,-0.068299 z M 7.874707,6.9822034 c 0.067284,-0.070221 0.1223339,-0.1380256 0.1223339,-0.150678 0,-0.012652 -0.054051,-0.037199 -0.1201129,-0.05455 C 7.7113838,6.7334995 7.4031764,6.6223268 7.3234309,6.5773265 7.2871421,6.5568465 7.2399942,6.4983169 7.2186604,6.447257 7.1868755,6.3711846 7.1601155,6.3512623 7.070463,6.336926 6.8147018,6.2960285 6.619028,6.0362678 6.5894978,5.6984345 6.5808308,5.5992647 6.5565288,5.5239786 6.5210816,5.4864711 6.4169903,5.3763286 6.379191,5.2701336 6.3929848,5.1265877 6.4083395,4.9667785 6.4544874,4.9068772 6.6687383,4.7686503 6.8342357,4.6618785 6.9288254,4.6502171 7.0128218,4.726231 7.1253017,4.8280252 7.0559152,4.9913613 6.8383086,5.1370327 l -0.070655,0.047298 0.1030969,-0.015486 c 0.1551142,-0.023301 0.376157,0.062022 0.5215309,0.2013147 0.06837,0.06551 0.1243088,0.1417262 0.1243088,0.1693702 0,0.033194 0.014479,0.044705 0.042638,0.033899 0.060761,-0.023316 0.1815981,0.028759 0.2032966,0.087611 0.010117,0.027435 0.04905,0.090688 0.086523,0.1405628 l 0.068131,0.090681 0.1867622,-0.070297 C 8.2066603,5.7833243 8.2957301,5.746663 8.3018733,5.7405196 8.3080131,5.7343798 8.2599206,5.6717161 8.1949911,5.6012755 8.0758667,5.4720418 7.8646356,5.3293878 7.7923981,5.3293878 c -0.062472,0 -0.1819476,-0.1423813 -0.27392,-0.3264364 C 7.3990091,4.763873 7.2995552,4.6774797 7.095363,4.6354003 6.9624887,4.6080185 6.8926091,4.6080263 6.7626248,4.6354428 6.5469471,4.680925 6.3668857,4.7752618 6.3425342,4.8555347 c -0.010688,0.035235 -0.045634,0.092688 -0.077655,0.1276726 -0.06508,0.071103 -0.072925,0.1862116 -0.024559,0.360317 0.049526,0.1782794 0.038238,0.4106892 -0.03333,0.6862349 l -0.066083,0.2544252 0.091929,0.043838 c 0.050561,0.024111 0.1011994,0.073177 0.1125294,0.1090355 0.011336,0.035859 0.043001,0.080968 0.070379,0.1002436 0.030533,0.021497 0.05755,0.091549 0.06988,0.1812004 0.022231,0.1616509 0.1003057,0.2635681 0.2260897,0.2951379 0.095496,0.023967 0.3652783,-0.034522 0.4104868,-0.088995 0.065193,-0.078552 0.233304,-0.049105 0.4117699,0.072125 0.091476,0.062138 0.178038,0.1130097 0.1923606,0.1130475 0.014322,4.14e-5 0.081091,-0.057387 0.1483741,-0.1276071 z M 2.1958454,6.8349867 c 0.090359,0.010185 0.1168962,0.00554 0.094778,-0.016574 -0.054315,-0.054315 -0.032925,-0.2031116 0.051837,-0.360603 0.1022876,-0.1900547 0.200061,-0.4774431 0.200061,-0.5880467 0,-0.1091575 -0.1384819,-0.229498 -0.2640945,-0.229498 -0.051754,0 -0.1381473,0.032782 -0.2027295,0.076924 l -0.112542,0.076925 0.1058889,0.017528 c 0.1335082,0.0221 0.2109776,0.091539 0.2470669,0.2214591 0.05828,0.2098077 0.021408,0.3073221 -0.1341318,0.3547275 -0.0498,0.015179 -0.082886,-0.00115 -0.1508347,-0.074377 -0.047873,-0.0516 -0.1113696,-0.1197026 -0.1411043,-0.1513369 -0.029735,-0.031635 -0.054063,-0.072967 -0.054063,-0.09185 0,-0.039732 -0.04594,-0.046061 -0.068569,-0.00945 C 1.7299503,6.121423 1.604718,6.1129783 1.5370174,6.045278 1.4492361,5.9574963 1.4507089,5.8876775 1.5436896,5.7290178 1.5934609,5.6440892 1.6075988,5.597108 1.5855923,5.5897725 1.5673258,5.5836798 1.4879066,5.5343523 1.4091056,5.4801462 1.26914,5.3838676 1.2644868,5.3827836 1.2076257,5.4332064 c -0.2083195,0.1847367 -0.28723991,0.437056 -0.152701,0.488208 0.083243,0.031649 0.1118925,0.1011849 0.072227,0.1753007 -0.02433,0.04546 -0.053425,0.054853 -0.14684894,0.04741 -0.10540274,-0.00839 -0.12270429,-1.148e-4 -0.18152068,0.086749 -0.0923506,0.1364106 -0.0846725,0.2444607 0.0246273,0.3465622 l 0.0896398,0.083736 0.0482588,-0.1271322 C 1.0249534,6.3663703 1.1198614,6.2152187 1.1747097,6.1941709 c 0.1223277,-0.046941 0.293865,0.036016 0.293865,0.1421181 0,0.033201 0.021046,0.026095 0.086954,-0.029362 0.047824,-0.040242 0.097868,-0.073167 0.1112071,-0.073167 0.071422,0 0.1739139,0.064118 0.2023875,0.1266103 0.023307,0.051153 0.054495,0.071222 0.1106811,0.071222 0.1048406,0 0.1670529,0.068398 0.1670529,0.183663 0,0.074792 -0.022403,0.1138153 -0.1059816,0.1846101 -0.064508,0.054641 -0.079478,0.07631 -0.038254,0.055372 0.038661,-0.019636 0.1215861,-0.028328 0.1932246,-0.020255 z M 5.5998009,6.4144227 C 5.5947831,6.3850073 5.5805269,6.2909932 5.5681175,6.2055012 5.5447721,6.0446527 5.48322,5.8738619 5.4061292,5.7560159 5.3621544,5.688794 5.3600223,5.6915208 5.2072932,6.0103724 4.9855874,6.4732239 4.9864007,6.470735 5.0642683,6.4481467 c 0.1506876,-0.04371 0.3479543,-0.046884 0.417476,-0.00671 0.088746,0.051275 0.1298055,0.041883 0.1180566,-0.027006 z m 2.4328553,-0.082887 c 0.1024968,-0.09504 0.097832,-0.1033564 -0.02855,-0.050898 -0.1494801,0.062047 -0.1591908,0.070207 -0.1160641,0.097534 0.054399,0.034469 0.05861,0.033112 0.1446141,-0.046636 z M 5.9198023,6.0006033 C 5.9472154,5.9034532 5.9707689,5.7207249 5.9721434,5.5945388 5.9743456,5.39125 5.9660954,5.3521931 5.8996236,5.2517472 5.7967294,5.0962639 5.5944331,4.9365881 5.4423592,4.8908199 5.2822194,4.8426249 4.932808,4.807266 4.888331,4.8347538 c -0.02135,0.013197 0.00821,0.039605 0.080596,0.072015 0.1349672,0.060427 0.4091323,0.2438699 0.5219527,0.3492373 0.057205,0.053426 0.077465,0.09668 0.071577,0.1528114 -0.00494,0.047124 0.017554,0.1144778 0.056507,0.169183 0.089862,0.1261987 0.2019211,0.4113916 0.2019211,0.5138918 0,0.139619 0.045648,0.09749 0.098917,-0.091289 z M 7.4728995,5.9440794 C 7.435129,5.8780187 7.4040717,5.8017117 7.4038845,5.7745092 7.4036546,5.7386019 7.380581,5.7250508 7.3197397,5.7250508 c -0.046092,0 -0.143738,-0.038009 -0.2169929,-0.084466 -0.073254,-0.046456 -0.1361805,-0.081431 -0.1398374,-0.07772 -0.018419,0.018689 0.042681,0.2534001 0.081316,0.3123621 0.036438,0.055612 0.075653,0.070535 0.2196806,0.083595 0.1037601,0.0094 0.1935862,0.034159 0.220061,0.060633 0.065916,0.065916 0.064602,0.056968 -0.011071,-0.075377 z M 3.0300368,5.5137093 C 3.14932,5.3418732 3.1535518,5.3293865 3.0924999,5.3293865 3.003711,5.3293865 2.829127,5.2150228 2.7506561,5.105456 2.7061298,5.0432855 2.6065504,4.8827291 2.5293683,4.7486648 2.3484921,4.4344854 2.2815498,4.3622194 2.1820345,4.3737093 2.0689583,4.3867652 2.0230035,4.4983733 2.0638733,4.6606828 2.1210157,4.887615 2.0185185,4.9707342 1.7794539,4.8913293 1.6330375,4.8426973 1.5467489,4.852464 1.4615091,4.9273145 1.3482832,5.0267395 1.4433512,5.1960798 1.6862548,5.3276426 l 0.1598122,0.086558 0.1418131,-0.070669 c 0.288026,-0.1435288 0.6328305,-0.05833 0.822185,0.2031574 0.047151,0.065112 0.092087,0.1186805 0.099859,0.1190404 0.00777,3.408e-4 0.061822,-0.068049 0.1201127,-0.1520201 z M 8.2090366,5.1597636 c 0.00962,-0.015572 -0.015061,-0.040694 -0.054856,-0.055825 -0.0558,-0.021214 -0.072355,-0.047227 -0.072355,-0.1136936 0,-0.09678 0.040719,-0.1209154 0.2577512,-0.1527679 C 8.5212479,4.8108125 8.7385041,4.6701992 8.7266715,4.5869395 8.7119905,4.4836517 8.5602993,4.4879973 8.3437594,4.5979056 8.1415423,4.7005461 8.0747804,4.6906815 8.0586932,4.5557838 8.0516227,4.4964609 8.0864187,4.4402141 8.2211979,4.2931252 8.3155268,4.1901825 8.3927052,4.0950764 8.3927052,4.0817814 8.3927052,3.9995504 8.073333,4.1135224 7.898185,4.258256 7.7817222,4.354496 7.7456573,4.3700323 7.6711553,4.356055 7.6043253,4.343518 7.570076,4.353265 7.5316226,4.395751 c -0.049569,0.054774 -0.048084,0.059498 0.054388,0.1729211 0.057942,0.064135 0.1418353,0.1937587 0.1864288,0.288052 0.070654,0.1493949 0.1003033,0.1811845 0.2305602,0.2471875 0.1787831,0.090592 0.1837353,0.091934 0.2060373,0.05585 z M 3.2179142,4.889383 C 3.0238244,4.6898133 2.8125993,4.5411757 2.7756258,4.5781498 c -0.00868,0.00868 0.04038,0.1081261 0.1090129,0.2210003 0.1116775,0.1836663 0.1381164,0.2092364 0.2516721,0.2433951 0.2368238,0.07124 0.2681816,0.079149 0.2794356,0.070477 0.00618,-0.00476 -0.082841,-0.1054015 -0.1978322,-0.2236392 z m 0.4988831,0.076358 c 0.043621,-0.039815 0.2987159,-0.1168045 0.3870133,-0.1168045 0.044885,0 0.1081367,0.014196 0.1405596,0.03155 0.050907,0.027244 0.05635,0.024774 0.039894,-0.018113 -0.029153,-0.075971 0.054177,-0.1768929 0.1762582,-0.2134703 L 4.5699982,4.6161035 4.52006,4.421961 C 4.492594,4.3151818 4.461167,4.1386497 4.4502221,4.0296659 4.4392772,3.9206821 4.42077,3.8315137 4.4090947,3.8315137 c -0.011674,0 -0.092323,0.075723 -0.1792159,0.1682746 C 4.142985,4.09234 4.0083623,4.2002557 3.930717,4.2396015 3.7709738,4.3205493 3.6811011,4.428687 3.5943871,4.6442841 l -0.059776,0.1486203 0.062125,0.097474 c 0.067059,0.1052167 0.079082,0.1127638 0.1200612,0.075363 z M 6.0167948,4.7865218 C 6.0388713,4.7366505 6.1119488,4.6423769 6.1791913,4.5770243 L 6.3014508,4.4582012 6.1240257,4.3589799 C 5.9351356,4.2533458 5.8940152,4.2140427 5.808719,4.0576077 5.7254488,3.9048869 5.4432949,3.5206334 5.4144237,3.5206334 c -0.047182,0 0.00804,0.4129252 0.083027,0.620796 0.040449,0.1121348 0.1117002,0.2685941 0.1583364,0.34769 0.091004,0.1543426 0.273445,0.3880792 0.3029126,0.3880792 0.00988,0 0.03602,-0.040805 0.058095,-0.090677 z M 5.3686972,4.5697336 c 0,-0.013666 -0.031195,-0.093151 -0.069322,-0.1766354 C 5.1980762,4.1712933 5.1426033,3.9304766 5.1426033,3.7125285 V 3.5206334 H 4.9749571 c -0.1555918,0 -0.1721787,0.00637 -0.2306845,0.088531 -0.060954,0.085601 -0.061904,0.097051 -0.028736,0.3461724 0.018868,0.1417032 0.054149,0.3366527 0.078406,0.433221 l 0.044104,0.1755779 0.2299979,0.00947 c 0.1264988,0.00521 0.245895,0.012059 0.265325,0.015224 0.019429,0.00316 0.035327,-0.00543 0.035327,-0.019093 z M 3.3828563,4.4302641 C 3.4576941,4.2501844 3.5955207,4.0974361 3.757008,4.0156043 3.930066,3.9279096 3.9813842,3.8683819 3.9093341,3.8389135 3.8168702,3.8010946 3.1288246,3.813424 3.0574119,3.8541789 2.9603627,3.9095646 2.8251391,4.1120968 2.8251391,4.2020675 c 0,0.068366 0.015296,0.083573 0.1095911,0.1089653 0.060275,0.01623 0.165197,0.079788 0.2331597,0.1412389 0.067962,0.061451 0.1314109,0.112251 0.1409963,0.1128878 0.00958,6.816e-4 0.042872,-0.060066 0.07397,-0.1348954 z M 1.8014724,4.4119008 C 1.8436634,4.254154 1.9114976,4.1765318 2.0479406,4.1298715 2.152953,4.0939597 2.1623363,4.0819225 2.1799617,3.9605198 2.1903976,3.8886398 2.2366349,3.7630285 2.2827119,3.6813852 L 2.3664879,3.5329409 2.3008759,3.4566629 C 2.2647889,3.4147099 2.2265889,3.3225354 2.2159859,3.2518315 2.2009629,3.1516512 2.1865289,3.1260385 2.1505859,3.135787 2.1252189,3.142657 2.0580619,3.156099 2.0013493,3.165637 1.7748149,3.203735 1.6817607,3.375853 1.8218461,3.4976558 c 0.07782,0.067663 0.092272,0.1676872 0.031514,0.2181113 -0.029541,0.024517 -0.070819,0.024011 -0.168307,-0.00206 -0.1165238,-0.031165 -0.135215,-0.029165 -0.1909594,0.020435 -0.091967,0.081831 -0.1945001,0.3214656 -0.1948141,0.4553103 -2.414e-4,0.1041786 0.014299,0.1305396 0.1265027,0.2293059 0.1006574,0.088602 0.1491574,0.1115945 0.2353939,0.1115945 0.1036632,0 0.11006,-0.0054 0.1402957,-0.1184485 z m 5.1852105,-0.082754 c 0.1360093,0.00168 0.2473002,-0.00468 0.2473128,-0.01413 1.15e-5,-0.00945 0.046091,-0.068055 0.102399,-0.1302305 0.091745,-0.101308 0.2932433,-0.3890633 0.2932433,-0.4187742 0,-0.01689 -0.1988855,0.024751 -0.2865469,0.059993 -0.04102,0.016493 -0.21907,0.1194496 -0.3956643,0.2287943 -0.1765951,0.1093447 -0.3392081,0.2095458 -0.361363,0.2226695 -0.067409,0.039929 -0.00783,0.093799 0.07734,0.069926 0.041794,-0.011716 0.1872692,-0.019927 0.3232787,-0.018246 z M 6.444401,4.0258643 C 6.6076967,3.9477398 6.8934941,3.7665405 6.894246,3.7406565 6.8975109,3.6282699 6.1653207,3.5228176 5.9500349,3.6046702 l -0.072363,0.027512 0.1129153,0.174702 c 0.062103,0.096086 0.1129153,0.1843871 0.1129153,0.1962267 0,0.021163 0.1266538,0.076156 0.1854585,0.080527 0.016511,0.00123 0.086459,-0.024771 0.15544,-0.057774 z m -3.8282358,-0.08837 c 0.040894,-0.066062 0.1134962,-0.161445 0.1613381,-0.2119634 l 0.086986,-0.09185 h -0.093121 c -0.066723,0 -0.115249,0.023687 -0.1711787,0.083561 -0.093597,0.1001964 -0.1551072,0.2383623 -0.1324274,0.2974658 0.027379,0.071348 0.070247,0.049045 0.148403,-0.077213 z M 8.0387307,3.8317804 c 0.061936,-0.023548 0.068961,-0.036721 0.044232,-0.082927 -0.046519,-0.086922 -0.034596,-0.1669687 0.03419,-0.2295312 0.034975,-0.031809 0.085845,-0.078546 0.1130474,-0.1038601 C 8.3468576,3.3068997 8.2496835,3.1923336 7.9546478,3.0905921 7.7367344,3.0154463 7.4226019,2.7958003 7.3496944,2.6675989 7.3249082,2.6240137 7.2938718,2.5882732 7.2807263,2.5881743 7.2225251,2.5877156 7.0927283,2.6887075 7.1062369,2.7239089 c 0.00808,0.021055 0.014689,0.048415 0.014689,0.060802 0,0.012387 0.03831,0.03839 0.085133,0.057785 0.092445,0.038291 0.2354679,0.1641016 0.3334857,0.2933503 0.074415,0.098125 0.080279,0.2363505 0.012374,0.291665 -0.043869,0.035735 -0.033488,0.038493 0.09185,0.024399 0.1994353,-0.022426 0.3250098,0.053822 0.3250098,0.1973441 0,0.055655 -0.013166,0.1257895 -0.029256,0.1558545 -0.033379,0.062371 -0.010714,0.068463 0.099208,0.026672 z M 3.9847361,3.4512366 C 3.8717236,3.2869786 3.7978363,3.2380168 3.6629737,3.2380168 c -0.1213694,0 -0.284054,0.085358 -0.3314418,0.173903 -0.041894,0.07828 0.013535,0.1386476 0.1107653,0.1206348 0.04139,-0.00767 0.1706383,-0.00243 0.2872181,0.011664 0.375436,0.045354 0.3554164,0.052647 0.2552208,-0.092982 z m 3.3876037,0.066939 c 0.1130372,-0.033866 0.1571858,-0.082327 0.075004,-0.082327 -0.022543,0 -0.088316,-0.056621 -0.1461638,-0.1258251 C 7.2433315,3.2408183 7.141882,3.155486 7.0757374,3.1203962 L 6.9554717,3.0565956 6.81498,3.1826334 C 6.73771,3.2519544 6.6731953,3.3167942 6.6716135,3.326722 c -0.0016,0.00993 0.038458,0.026178 0.088975,0.036112 0.050518,0.00993 0.1681575,0.0607 0.2614218,0.1128142 0.093263,0.052113 0.1841434,0.09082 0.2019551,0.086015 0.017814,-0.00481 0.084581,-0.024373 0.1483744,-0.043488 z M 4.3511683,3.4146523 C 4.3509384,3.3675505 4.2374534,3.2113293 4.1818605,3.1815769 c -0.049789,-0.026646 -0.044321,-0.00875 0.033815,0.1107358 0.085443,0.13065 0.1357607,0.1760826 0.1354928,0.1223396 z M 3.0813607,3.2491275 C 3.1540339,3.1315402 3.388325,2.9728278 3.5298286,2.9453287 3.5832125,2.9349595 3.651316,2.904361 3.6811698,2.8773436 3.7236499,2.8388993 3.7870256,2.8282208 3.9727074,2.8282208 H 4.2099651 V 2.667907 c 0,-0.1575777 -0.00165,-0.1608598 -0.09708,-0.1923526 -0.084262,-0.027808 -0.1301521,-0.020959 -0.3475702,0.051883 -0.4722267,0.1582112 -0.959452,0.4232151 -1.1037418,0.60033 -0.055007,0.067522 -0.059388,0.087783 -0.02937,0.1358495 0.03381,0.054138 0.1015285,0.07307 0.296612,0.082924 0.074592,0.00377 0.1000661,-0.012499 0.1525456,-0.097413 z m 2.9866191,0.053282 c 0.081498,-0.00866 0.1625417,-0.033044 0.1800967,-0.054196 0.017554,-0.021152 0.048714,-0.038459 0.069242,-0.038459 0.045127,0 0.4171911,-0.3110526 0.3966422,-0.3316003 -0.00797,-0.00797 -0.1747052,-0.00524 -0.3705342,0.00606 l -0.3560524,0.020537 -0.071532,0.1080906 c -0.039342,0.059451 -0.07876,0.1619841 -0.087595,0.2278528 -0.014657,0.1092792 -0.011354,0.1179103 0.037745,0.09861 0.029595,-0.011634 0.1204894,-0.028234 0.2019872,-0.036889 z M 10.246499,12.789325 C 10.061737,12.734057 9.8793122,12.472346 9.7548171,12.083947 9.7224321,11.982912 9.6500154,11.684043 9.5938918,11.419796 9.5377691,11.155548 9.4543853,10.783499 9.4085964,10.59302 c -0.045789,-0.190479 -0.083253,-0.371381 -0.083253,-0.402004 0,-0.0321 -0.032917,-0.0728 -0.07772,-0.09611 C 9.0523088,9.9932938 8.9578879,9.8106045 8.9580981,9.5347267 c 2.3e-4,-0.3641634 0.076545,-0.5313113 0.2424285,-0.5313113 0.1591678,0 0.2331916,0.1224396 0.1830941,0.3028434 -0.037938,0.1366198 -0.038282,0.3071844 -8.127e-4,0.3772973 0.06125,0.1144445 0.3480681,0.030434 0.4829668,-0.1414627 0.036929,-0.047058 0.096726,-0.1239226 0.1328825,-0.1708095 0.052328,-0.06786 0.087259,-0.085251 0.1712337,-0.085251 0.140597,0 0.187209,0.041179 0.255927,0.2260941 0.08433,0.2269353 0.152085,0.3236048 0.264037,0.3767306 0.136502,0.064774 0.208597,0.059262 0.290034,-0.022174 0.04967,-0.04967 0.06937,-0.1003229 0.06937,-0.1783725 0,-0.2026897 0.205749,-0.3095766 0.339141,-0.1761837 0.06619,0.066192 0.07599,0.2534735 0.02259,0.431715 -0.03309,0.1104476 -0.157803,0.2673306 -0.254355,0.3199666 -0.03617,0.01972 -0.05557,0.09256 -0.07842,0.294345 -0.0167,0.14748 -0.06242,0.452553 -0.101609,0.67794 -0.03919,0.225388 -0.09114,0.524256 -0.115458,0.664151 -0.09033,0.519753 -0.217924,0.805514 -0.392179,0.878323 -0.107504,0.04492 -0.108205,0.04495 -0.222521,0.01076 z m 0.168437,-0.731802 c 0.103463,-0.496218 0.26482,-1.502925 0.266359,-1.661837 4.72e-4,-0.04643 -0.02712,-0.0748 -0.103848,-0.106856 C 10.433533,10.2287 10.297053,10.120057 10.203924,9.9914969 L 10.12547,9.8831938 9.9889191,9.9802783 c -0.075103,0.053396 -0.1502102,0.097279 -0.1669043,0.097517 -0.1026164,0.0015 -0.1045107,0.04311 -0.018737,0.41184 0.046689,0.200709 0.1314707,0.581128 0.1884035,0.845376 0.1095617,0.508514 0.2021947,0.817202 0.2816007,0.938392 0.04248,0.06484 0.05137,0.068 0.07458,0.02653 0.01449,-0.02589 0.04467,-0.134978 0.06707,-0.242411 z m 4.147752,-1.46802 c -0.03396,-0.07183 -0.07031,-0.165581 -0.08078,-0.208327 -0.01637,-0.06679 -0.01042,-0.07772 0.0424,-0.07772 0.164061,0 0.25261,0.139073 0.187606,0.29465 -0.05758,0.137796 -0.08065,0.136465 -0.149219,-0.0086 z m 1.021137,-0.367051 c -0.146704,-0.10653 -0.274677,-0.145463 -0.565183,-0.171941 -0.275802,-0.02514 -0.351827,-0.071246 -0.351827,-0.2133741 0,-0.1452944 0.06869,-0.1837654 0.327236,-0.1832835 0.400357,6.816e-4 0.718024,0.107034 0.883631,0.2956494 0.102577,0.1168282 0.113524,0.2165562 0.03265,0.2974302 -0.07915,0.07915 -0.195856,0.07039 -0.326508,-0.02448 z M 12.455688,10.00486 C 12.29456,9.917433 12.236092,9.6566653 12.338432,9.4818988 c 0.08178,-0.1396591 0.194231,-0.2099964 0.335725,-0.2099964 0.159612,0 0.255748,0.088088 0.313702,0.2874427 0.04063,0.1397592 0.03987,0.1563742 -0.01254,0.2748546 -0.08773,0.1983373 -0.325006,0.2762643 -0.519633,0.1706603 z M 7.6075306,9.3722804 C 7.4994733,9.2735855 7.4600678,9.1816993 7.4600678,9.0284336 c 0,-0.2189171 0.1088539,-0.3457676 0.2943092,-0.3429638 0.1628613,0.00246 0.2814348,0.068013 0.3377689,0.1867289 C 8.2672673,9.2412409 7.8901401,9.6304042 7.6075306,9.3722804 Z M 15.740763,9.0265437 c -0.132125,-0.014133 -0.368907,-0.019565 -0.526183,-0.012075 -0.34482,0.016422 -0.406456,-0.010552 -0.406456,-0.1778461 0,-0.1445392 0.0606,-0.1918088 0.297965,-0.2324363 0.16185,-0.027702 0.269077,-0.0255 0.606411,0.012453 0.448853,0.050501 0.508712,0.079512 0.508712,0.2465462 0,0.086524 -0.114147,0.199688 -0.194578,0.1929023 -0.02511,-0.00212 -0.153747,-0.015412 -0.285871,-0.029544 z"
       id="path1" /></g></svg>
